<svg width="118" height="170" viewBox="0 0 118 170" fill="none" xmlns="http://www.w3.org/2000/svg">
    <g clip-path="url(#clip0_540_23102)">
        <path d="M106.877 53.0852C108.656 57.3914 106.161 67.2845 104.461 69.8085C104.542 67.961 104.634 66.1101 104.641 64.2592C104.641 62.4839 104.641 60.7292 104.488 58.9847C104.459 58.3729 104.51 57.76 104.638 57.1613L105.002 55.0288L104.423 56.5741C104.338 56.8705 104.187 57.1431 103.98 57.3708C104.011 57.3399 102.808 54.9224 102.668 54.7267C102.18 54.1301 101.565 53.6514 100.869 53.3256C96.4862 51.1588 105.885 50.6918 106.877 53.0852Z" fill="url(#paint0_linear_540_23102)"/>
        <path d="M62.4146 79.7083C62.5271 78.5271 62.6361 77.3458 62.7554 76.1645C63.0553 72.9343 63.3541 69.703 63.6517 66.4705C63.7539 65.3889 64.8069 53.504 64.8342 53.504C65.0782 53.5517 65.31 53.6487 65.5158 53.7891C65.7285 53.9312 65.9855 53.9899 66.2382 53.9539C65.8668 53.6105 65.3113 53.2671 65.0421 52.8413C64.7729 52.4155 64.9603 51.7424 65.0012 51.2686C65.1171 49.895 65.25 48.5042 65.4476 47.1307C65.6828 45.4927 65.7134 43.8581 65.9213 42.2236C66.7596 42.4525 67.5991 42.6666 68.4397 42.8657C67.5039 42.3094 66.6269 41.6581 65.8225 40.9221C65.7704 40.8798 65.7275 40.8272 65.6964 40.7676C65.669 40.6769 65.669 40.5801 65.6964 40.4895C66.2252 37.4511 67.0482 34.4723 68.1534 31.5956C68.7498 30.0538 69.3973 28.5291 70.1402 27.0559C70.3549 26.6301 70.8968 25.1501 71.4522 25.0402C72.2667 24.8754 73.9604 39.3151 73.3981 41.6124C72.8358 43.9096 67.7479 79.6603 66.671 80.0723C65.5942 80.4844 62.4146 79.7083 62.4146 79.7083Z" fill="url(#paint1_linear_540_23102)"/>
        <path d="M78.1282 10.6658C77.7874 10.6658 77.4466 12.3141 77.3716 12.5338C76.8979 14.2508 76.5231 15.9678 76.155 17.7122C75.9574 18.6222 75.7699 19.5356 75.5859 20.4593C75.4189 21.2835 75.3235 21.9531 75.7597 22.712L77.5045 25.7579C76.7094 24.9177 75.9335 24.0604 75.177 23.1859C75.2077 23.2168 74.7408 24.635 74.7169 24.817C74.6608 25.2739 74.5766 25.7269 74.4647 26.1734C74.2671 26.9907 74.1512 27.8388 73.9979 28.6664C73.6707 30.4246 73.3504 32.1828 73.0369 33.9409C72.3689 37.677 71.7226 41.4143 71.0978 45.1527C70.473 48.8911 69.8732 52.602 69.2985 56.2855C68.7873 59.5889 68.2931 62.8992 67.8365 66.2095C67.4957 68.7266 67.1549 71.2471 66.9027 73.7642C66.7732 75.0794 66.5449 76.5113 66.6949 77.8231C68.1091 79.0215 71.5067 78.7949 71.5067 78.7949C71.5067 78.7949 80.5443 47.0448 81.6348 34.3873C82.7254 21.7299 79.3141 10.7207 78.1282 10.6658Z" fill="url(#paint2_linear_540_23102)"/>
        <path d="M69.1997 80.553C69.1997 80.553 74.3114 44.6239 78.3088 27.1864C79.5359 21.5907 81.2546 16.116 83.4445 10.8272C83.8087 11.5722 84.4286 12.1591 85.1893 12.4789C84.6887 11.6974 84.2858 10.8566 83.9897 9.97555C83.8213 9.58074 83.775 9.14392 83.8568 8.72217C83.9701 8.40469 84.1463 8.11377 84.3748 7.86712C85.772 6.10551 86.5694 4.04173 87.8133 2.1668C88.1268 1.68949 89.0844 -0.0652524 89.8308 0.00342614C91.0133 0.113312 90.9042 25.8025 89.8308 27.7358L87.2953 27.7702C87.2953 27.7702 89.3877 28.4776 89.8989 28.3814C90.0114 31.2487 83.8432 72.1914 79.43 77.5518C78.248 79.0642 76.6265 80.1666 74.7922 80.7047C72.9579 81.2428 71.0026 81.1898 69.1997 80.553Z" fill="url(#paint3_linear_540_23102)"/>
        <path d="M93.1807 20.7582C92.707 20.6105 91.4495 24.3226 91.3336 24.6317C90.9008 25.7683 90.5123 26.5203 91.0371 27.6501C91.6023 28.8287 92.008 30.0783 92.2435 31.3656C91.6481 30.528 90.9773 29.7475 90.2397 29.034C90.1983 28.9867 90.1471 28.9492 90.0898 28.9241C90.0255 28.9088 89.9581 28.9142 89.897 28.9395C89.8359 28.9647 89.7841 29.0085 89.749 29.0649C89.6818 29.182 89.639 29.3117 89.6229 29.446C89.3537 30.8196 88.6994 32.1108 88.2768 33.4466C87.7622 35.0742 87.2544 36.7019 86.7705 38.3433C86.0889 40.6681 85.3154 43.0719 85.0359 45.4928C84.4702 50.3964 79.9412 81.4426 79.9412 81.4426C79.9412 81.4426 82.5448 83.9631 85.4312 83.7742C88.3177 83.5853 95.5048 47.5531 95.4469 44.782C94.203 44.2943 91.9402 44.0093 91.9402 44.0093C91.9402 44.0093 94.6665 43.5526 95.4469 43.7243C96.2273 43.896 95.3855 21.4415 93.1807 20.7582Z" fill="url(#paint4_linear_540_23102)"/>
        <path d="M83.9113 85.7039C83.9113 85.7039 92.2707 49.8572 98.6502 49.9911C106.202 50.1456 106.87 53.0816 106.877 53.0816C106.771 52.6215 105.367 52.4498 105.054 52.4532C104.348 52.4828 103.669 52.7324 103.111 53.1675C102.711 53.4668 102.347 53.8126 102.027 54.1977C101.721 54.5651 101.516 55.0424 100.988 55.0733L99.0864 55.1935L100.824 56.0245C99.7441 57.6934 99.3795 59.7744 98.841 61.6733C98.3469 63.4281 97.8936 65.1931 97.4506 66.9581C96.493 70.7629 95.5865 74.578 94.5403 78.3588C93.7667 81.1403 93.0306 84.1655 91.555 86.6792C91.3271 87.1039 91.0299 87.487 90.6758 87.8124C87.0874 90.8445 83.9113 85.7039 83.9113 85.7039Z" fill="url(#paint5_linear_540_23102)"/>
        <path d="M77.5931 68.5036C77.5931 68.5036 83.0014 28.4365 85.772 18.0935C83.4376 23.2925 77.7976 56.9827 76.8196 66.8553C76.8196 67.7309 77.5931 68.5036 77.5931 68.5036Z" fill="url(#paint6_radial_540_23102)"/>
        <path d="M83.9113 72.3975C83.9113 72.3975 90.3419 39.109 91.8652 36.0974C91.2655 42.5566 84.6406 74.3136 84.6406 74.3136L83.9113 72.3975Z" fill="url(#paint7_radial_540_23102)"/>
        <path d="M88.8767 80.0621C88.8767 80.0621 94.578 53.2569 99.7102 51.5605C94.5269 58.8164 94.0907 65.2344 89.1459 81.7791C88.3348 81.3361 88.8767 80.0621 88.8767 80.0621Z" fill="url(#paint8_radial_540_23102)"/>
        <path d="M65.4681 73.438C65.4681 73.438 69.3258 43.9474 69.9801 35.6167C70.7946 40.6955 66.4496 74.3136 66.4496 74.3136L65.4681 73.438Z" fill="url(#paint9_radial_540_23102)"/>
        <path d="M77.842 149.465L78.7417 156.621C78.7417 156.621 79.4028 155.914 80.7864 155.993C82.17 156.072 80.5683 158.321 79.6107 159.084C78.6531 159.846 79.6755 166.006 79.304 167.73C78.9326 169.454 76.9764 170.134 76.5198 168.76C76.0631 167.387 76.8878 161.892 76.8878 161.892C76.8878 161.892 74.6796 170.01 72.9484 169.99C71.2172 169.969 70.6617 168.839 71.3194 167.38C71.9771 165.92 75.2384 161.199 75.2384 161.199C75.2384 161.199 70.4334 167.442 69.1043 166.944C67.7753 166.446 68.1501 164.774 68.6034 163.932C69.0566 163.091 74.2468 159.468 74.2468 159.468L71.7795 153.596C71.7795 153.596 74.591 149.764 77.842 149.465Z" fill="url(#paint10_radial_540_23102)"/>
        <path d="M77.4773 150.756C77.4773 150.756 78.4724 156.148 78.2066 156.872C77.9408 157.597 76.2505 158.38 76.2505 158.38C76.2505 158.38 77.6613 158.284 78.3906 157.72C78.4656 158.826 78.6291 162.809 78.6598 164.76C78.6905 166.71 79.1267 167.885 77.1774 168.486C76.1721 167.703 76.9286 160.931 76.9286 160.931C76.9286 160.931 77.1979 159.75 76.7821 160.588C76.3663 161.426 75.0782 168.026 73.0982 168.657C71.1183 169.289 71.2069 168.06 71.8373 166.518C72.4678 164.976 75.4121 160.285 75.4121 160.285C75.4121 160.285 70.3208 166.896 68.6169 165.694C68.2489 165.182 68.6612 163.73 68.6612 163.73L74.1887 159.221L73.5072 156.433C73.5072 156.433 74.6726 156.975 76.6594 154.74C74.5943 155.53 73.2141 155.643 72.9108 154.53C72.6075 153.418 73.6878 152.432 77.4773 150.756Z" fill="url(#paint11_radial_540_23102)"/>
        <path d="M77.8182 166.291C78.752 166.154 78.3532 169.327 77.4604 169.99C76.2506 168.462 76.9151 166.422 77.8182 166.291Z" fill="url(#paint12_radial_540_23102)"/>
        <path d="M72.8189 166.662C73.7424 166.865 72.26 169.691 71.1934 169.997C70.597 168.142 71.9329 166.47 72.8189 166.662Z" fill="url(#paint13_radial_540_23102)"/>
        <path d="M70.0006 163.019C70.8764 163.362 68.9475 165.914 67.8468 166.034C67.564 164.104 69.1588 162.679 70.0006 163.019Z" fill="url(#paint14_radial_540_23102)"/>
        <path d="M44.1997 151.103L40.3318 157.167C40.3318 157.167 41.2894 157.054 42.2913 158.005C43.2932 158.957 40.6351 159.647 39.4287 159.599C38.2223 159.551 35.0599 164.942 33.6729 166.02C32.2859 167.098 30.3639 166.343 30.8853 164.99C31.4067 163.637 35.554 159.963 35.554 159.963C35.554 159.963 28.6838 164.75 27.3752 163.613C26.0666 162.476 26.3528 161.25 27.7943 160.56C29.2359 159.87 34.7327 158.373 34.7327 158.373C34.7327 158.373 27.0719 160.042 26.3835 158.805C25.6951 157.569 26.7447 156.666 27.6342 156.316C28.5236 155.966 35.0871 156.422 35.0871 156.422L36.924 150.341C36.924 150.341 41.5211 149.225 44.1997 151.103Z" fill="url(#paint15_radial_540_23102)"/>
        <path d="M43.0923 151.852C43.0923 151.852 40.4137 156.625 39.7458 157.003C39.0778 157.38 37.2887 156.893 37.2887 156.893C37.2887 156.893 38.4304 157.731 39.3334 157.772C38.6825 158.668 36.2664 161.824 35.0464 163.338C33.8264 164.853 33.4106 166.034 31.5329 165.234C31.2637 163.977 36.3822 159.08 36.3822 159.08C36.3822 159.08 37.1592 158.448 36.3005 158.826C35.4417 159.204 30.2243 163.534 28.292 162.727C26.3598 161.92 27.2254 161.041 28.6907 160.272C30.1561 159.503 35.4076 157.817 35.4076 157.817C35.4076 157.817 27.0788 159.468 26.5472 157.435C26.5472 155.973 29.0963 156.213 29.0963 156.213L35.135 156.285L36.447 153.637C36.447 153.637 36.9922 154.808 39.9434 154.386C37.8578 153.651 36.7264 152.844 37.2172 151.807C37.7079 150.77 39.1256 150.684 43.0923 151.852Z" fill="url(#paint16_radial_540_23102)"/>
        <path d="M33.1753 163.486C34.0818 163.754 32.4119 166.474 31.3282 166.704C30.8682 164.808 32.3131 163.229 33.1753 163.486Z" fill="url(#paint17_radial_540_23102)"/>
        <path d="M28.9633 161.065C29.713 161.646 27.1707 163.562 26.0802 163.376C26.329 161.443 28.2476 160.505 28.9633 161.065Z" fill="url(#paint18_radial_540_23102)"/>
        <path d="M28.9632 156.845C29.379 157.7 26.2642 158.297 25.3645 157.648C26.4312 156.017 28.5611 156.017 28.9632 156.845Z" fill="url(#paint19_radial_540_23102)"/>
        <path d="M91.5414 79.8769C91.5414 79.8769 92.9761 72.5145 92.2877 66.3403C90.8509 68.8545 89.7139 71.5309 88.9003 74.3139C88.9003 74.3139 87.1759 64.7573 88.7265 58.9952C87.4879 61.2211 86.5428 63.6002 85.915 66.0725C85.915 66.0725 84.3065 54.8745 85.915 49.7716C83.995 54.9333 82.5719 60.269 81.6655 65.7051C82.1255 56.9898 81.2633 44.8508 81.2633 44.8508C81.2633 44.8508 76.2708 58.4492 75.637 65.1831C74.1443 60.6915 74.693 54.1568 74.693 54.1568C74.693 54.1568 72.4336 66.5464 70.791 69.8086C69.7687 63.6997 70.3548 55.2041 70.3548 55.2041C70.3548 55.2041 67.1992 66.5361 65.8224 69.4309C65.4646 65.1522 64.4013 64.256 64.4013 64.256C64.4013 64.256 64.2889 69.6163 63.0382 72.9644C61.7875 76.3125 64.4013 77.298 64.4013 77.298C64.4013 77.298 67.8364 78.9463 70.5866 79.015C73.3367 79.0837 75.7733 79.7533 79.4129 80.471C83.0524 81.1886 83.3319 83.2387 85.915 82.9331C88.4982 82.6275 90.5088 82.6927 91.5414 79.8769Z" fill="url(#paint20_linear_540_23102)"/>
        <path d="M57.7561 143.864C57.7561 143.864 57.0745 152.415 57.7561 154.643C55.6739 154.75 55.0298 153.527 55.0298 153.527C55.0298 153.527 54.8151 156.13 53.4043 157.085C52.6805 155.903 51.8365 154.801 50.8859 153.795C50.8859 153.795 50.0442 156.769 45.1369 157.573C45.4515 156.366 45.3307 155.086 44.7961 153.96C44.7961 153.96 39.0027 155.873 39.0777 157.253C36.7502 156.031 36.9887 152.738 36.9887 152.738C36.9887 152.738 33.891 155.021 33.5809 155.924C32.5405 155.101 31.8606 153.901 31.6861 152.58C31.6861 152.58 31.4237 154.64 29.0348 154.983C29.0961 153.497 29.0348 151.144 29.0348 151.144C29.0348 151.144 25.8485 151.488 25.4804 153.071C24.5603 151.584 24.7443 148.874 24.7443 148.874C24.7443 148.874 22.6587 149.561 22.0487 149.561C23.2108 147.175 24.7205 137.721 29.3279 135.118C33.5843 135.757 40.3897 135.211 44.6393 138.085C48.8889 140.959 57.7561 143.864 57.7561 143.864Z" fill="url(#paint21_linear_540_23102)"/>
        <path style="mix-blend-mode:multiply" opacity="0.5" d="M57.7561 143.864C57.7561 143.864 57.0745 152.415 57.7561 154.643C55.6739 154.75 55.0298 153.527 55.0298 153.527C55.0298 153.527 54.8151 156.13 53.4043 157.085C52.6805 155.903 51.8365 154.801 50.8859 153.795C50.8859 153.795 50.0442 156.769 45.1369 157.573C45.4515 156.366 45.3307 155.086 44.7961 153.96C44.7961 153.96 39.0027 155.873 39.0777 157.253C36.7502 156.031 36.9887 152.738 36.9887 152.738C36.9887 152.738 33.891 155.021 33.5809 155.924C32.5405 155.101 31.8606 153.901 31.6861 152.58C31.6861 152.58 31.4237 154.64 29.0348 154.983C29.0961 153.497 29.0348 151.144 29.0348 151.144C29.0348 151.144 25.8485 151.488 25.4804 153.071C24.5603 151.584 24.7443 148.874 24.7443 148.874C24.7443 148.874 22.6587 149.561 22.0487 149.561C23.2108 147.175 24.7205 137.721 29.3279 135.118C33.5843 135.757 40.3897 135.211 44.6393 138.085C48.8889 140.959 57.7561 143.864 57.7561 143.864Z" fill="url(#paint22_radial_540_23102)"/>
        <path d="M52.7092 156.405L54.0008 155.873C54.0008 155.873 54.3654 158.685 56.7679 159.111C57.4495 158.002 64.3606 157.47 64.3606 157.47C64.3606 157.47 64.7866 159.056 63.996 160.337C67.3595 160.653 69.1384 159.904 69.1384 159.904C69.1384 159.904 70.3686 162.511 72.5224 162.143C72.0419 160.121 74.5944 157.154 74.5944 157.154C75.7764 158.214 77.1465 159.04 78.6327 159.588C80.2275 158.479 82.2484 155.811 82.2484 155.811C82.2484 155.811 83.1106 156.766 85.7448 157.871C87.8918 154.245 86.8387 151.347 86.8387 151.347C86.8387 151.347 89.3571 152.034 91.2689 152.356C90.8313 150.906 89.9075 149.653 88.6551 148.813C88.9755 148.919 93.4636 150.588 96.4114 150.111C94.4519 150.111 87.6839 134.016 84.9474 135.458C68.9305 143.885 56.3215 142.903 54.9822 143.651C54.2632 144.046 53.6702 147.611 53.2783 150.863C52.9068 153.778 52.7092 156.405 52.7092 156.405Z" fill="url(#paint23_linear_540_23102)"/>
        <path style="mix-blend-mode:multiply" opacity="0.5" d="M53.2817 150.901C53.2846 150.935 53.2914 150.968 53.3021 151C52.9614 155.835 57.1428 156.972 58.2367 156.9C58.1856 155.43 61.6002 151.567 61.7774 151.666C61.9547 151.766 62.7351 155.025 64.3708 155.924C63.4643 152.752 67.1175 150.008 67.3697 149.826C67.2845 150.008 66.2111 152.209 67.3697 152.985C67.3697 150.712 75.811 147.662 80.2275 148.782C84.6441 149.901 85.0155 154.211 85.0155 154.211C85.0155 154.211 85.4858 149.836 83.8807 147.432C87.6941 149.057 91.2655 152.384 91.2655 152.384C90.8279 150.933 89.904 149.681 88.6517 148.84C88.972 148.947 93.4602 150.616 96.408 150.138C94.4484 150.138 87.6805 134.043 84.944 135.486C68.9271 143.913 56.3181 142.93 54.9788 143.679C54.2597 144.074 53.6668 147.638 53.2749 150.89L53.2817 150.901Z" fill="url(#paint24_radial_540_23102)"/>
        <path d="M2.2151 107.324C2.23896 107.575 2.26622 107.829 2.28667 108.08C2.34119 108.595 2.40254 109.141 2.48433 109.707C2.52863 110.03 2.56953 110.336 2.61042 110.621C3.70434 117.513 6.96224 127.742 16.2725 137.12C14.5686 133.384 14.4697 130.984 14.4697 130.984C14.4697 130.984 21.5614 141.169 42.414 148.789C39.5103 146.782 37.0419 144.201 35.1587 141.203C35.7824 142.093 44.4758 153.929 67.5605 149.489C89.674 145.252 94.4109 127.794 95.0175 125.108C94.7244 126.19 93.5692 129.572 89.565 131.853C91.8857 128.886 97.403 121.929 99.0899 112.245C99.4944 109.922 99.6487 107.562 99.55 105.205C99.3625 91.8817 90.9894 85.7212 90.9894 85.7212C90.9894 85.7212 66.8142 81.81 58.3491 89.1002C56.8599 90.3811 55.0708 91.9744 52.975 93.6742C52.3104 94.2202 51.6118 94.7662 50.8825 95.3328C50.051 95.9509 49.1786 96.5931 48.2687 97.2215C46.8749 98.1864 45.3755 99.141 43.784 100.044C43.3444 100.295 42.898 100.546 42.4515 100.779C40.8179 101.653 39.135 102.431 37.4113 103.107C37.1489 103.21 36.8797 103.317 36.6207 103.409C32.4778 104.973 28.1249 105.899 23.7084 106.157L22.9484 106.198C20.5775 106.289 18.203 106.195 15.8465 105.916C15.0354 105.83 14.2039 105.707 13.3588 105.573H13.2974C13.0793 105.542 12.8612 105.497 12.6397 105.456C12.6349 105.458 12.6297 105.459 12.6244 105.459C12.6191 105.459 12.6139 105.458 12.609 105.456C9.03983 104.781 5.5424 103.766 2.16399 102.424C2.16399 102.424 1.78572 102.97 2.2151 107.324Z" fill="url(#paint25_linear_540_23102)"/>
        <path d="M52.7295 98.0662C52.0991 107.702 54.5561 116.455 56.5974 118.639C52.8283 117.152 50.8347 112.781 50.8347 112.781C50.8347 112.781 51.547 122.104 61.0037 124.741C55.892 126.382 50.2656 121.915 50.2656 121.915C50.2656 121.915 54.6992 130.95 68.0989 130.263C62.9871 131.753 56.5974 131.636 56.5974 131.636C56.5974 131.636 56.1782 135.012 66.1394 135.111C63.5767 138.587 54.2903 138.968 54.2903 138.968C54.2903 138.968 54.413 141.763 58.4547 143.648C56.6076 144.84 49.8942 141.931 49.8942 141.931C49.8942 141.931 49.8942 145.75 54.6311 147.539C50.603 148.432 41.6642 146.165 37.5203 140.201C39.6536 144.198 41.8449 145.63 41.8449 145.63C41.8449 145.63 30.7148 144.198 25.4872 130.239C25.678 136.787 27.7227 139.661 27.7227 139.661C27.7227 139.661 12.6908 134.95 12.0705 119.319C10.7415 124.332 11.6036 127.255 11.6036 127.255C11.6036 127.255 3.97689 120.871 4.93109 108.523C7.84138 102.259 20.2664 98.8182 28.8848 98.4405C37.5033 98.0628 53.2645 89.8763 52.7295 98.0662Z" fill="url(#paint26_radial_540_23102)"/>
        <path d="M58.6421 140.238C58.6421 140.238 63.6619 140.959 68.0989 139.417C64.1526 142.457 60.8947 141.938 58.6421 140.238Z" fill="url(#paint27_radial_540_23102)"/>
        <path d="M54.1234 144.496C54.1234 144.496 57.8721 145.307 61.3992 144.726C60.5574 146.176 55.841 145.612 55.841 145.612C55.841 145.612 56.6895 146.605 58.7342 146.746C57.8073 147.343 53.9837 146.457 54.1234 144.496Z" fill="url(#paint28_radial_540_23102)"/>
        <path d="M78.3089 134.552C78.3089 134.552 82.0746 133.178 83.4207 131.461C83.2707 132.921 81.4816 134.802 78.3089 134.552Z" fill="url(#paint29_radial_540_23102)"/>
        <path d="M74.6931 138.655C74.6931 138.655 77.4194 137.773 78.3088 137.281C77.6068 138.525 75.9779 138.744 74.6931 138.655Z" fill="url(#paint30_radial_540_23102)"/>
        <path d="M45.9719 142.367C45.9719 142.367 40.3797 139.438 38.962 134.929C39.1597 138.59 39.9537 141.052 45.9719 142.367Z" fill="url(#paint31_linear_540_23102)"/>
        <path d="M51.6118 139.417C51.6118 139.417 47.3384 137.484 44.895 134.575C45.2903 137.505 47.8802 138.923 51.6118 139.417Z" fill="url(#paint32_linear_540_23102)"/>
        <path d="M34.8521 135.788C34.8521 135.788 31.008 132.539 29.3995 128.669C29.2189 131.726 31.3965 134.929 34.8521 135.788Z" fill="url(#paint33_linear_540_23102)"/>
        <path d="M35.561 125.596C35.561 125.596 36.1437 129.325 40.3865 130.101C39.5686 130.678 35.9188 128.879 35.9188 128.879C35.9188 128.879 36.5833 131.396 38.3213 132.35C36.0278 131.502 34.6545 130.077 35.561 125.596Z" fill="url(#paint34_linear_540_23102)"/>
        <path d="M32.4938 116.214C32.4938 116.214 31.9384 119.947 35.7585 121.966C34.8043 122.268 31.8566 119.453 31.8566 119.453C31.8566 119.453 31.7441 122.055 33.1175 123.491C31.1988 121.987 30.3094 120.215 32.4938 116.214Z" fill="url(#paint35_linear_540_23102)"/>
        <path d="M54.2801 79.1658C54.2801 79.1658 56.1987 72.734 59.2249 70.2375C59.3407 73.4723 59.4566 76.2744 59.4566 76.2744C59.4566 76.2744 66.3234 67.0406 65.8565 62.106C67.9524 68.3695 65.2772 76.2744 65.2772 76.2744C65.2772 76.2744 70.9785 68.7713 70.6275 64.599C72.5495 70.32 71.7351 77.648 71.7351 77.648C71.7351 77.648 75.9812 52.6558 80.5205 49.9087C80.8613 56.2306 79.8219 73.0568 82.0915 77.8059C82.555 70.7114 84.7087 63.3422 84.7087 63.3422C84.7087 63.3422 86.7534 78.2455 88.7232 80.8552C93.3204 76.5319 94.019 69.2039 94.019 69.2039C94.019 69.2039 98.7899 81.8099 88.3142 88.2004C77.8385 94.591 65.1409 96.0572 65.1409 96.0572C65.1409 96.0572 71.5408 94.6665 72.3587 91.9606C69.917 93.1202 67.2394 93.6864 64.5411 93.6136C61.8427 93.5409 59.199 92.8312 56.8223 91.5416C56.6077 87.4106 54.2801 79.1658 54.2801 79.1658Z" fill="url(#paint36_radial_540_23102)"/>
        <path d="M55.2718 83.7983C57.481 81.9491 59.2874 79.6601 60.5778 77.0746C62.2136 80.8691 60.8709 82.8848 60.8709 82.8848C60.8709 82.8848 65.9827 80.2235 68.0989 75.9861C69.5711 77.4592 66.671 83.788 66.671 83.788C66.671 83.788 72.754 82.9879 74.2569 76.6935C76.104 79.3822 72.2667 84.3237 72.2667 84.3237C72.2667 84.3237 77.5693 81.2091 80.6637 79.8905C79.7878 82.1053 76.0324 84.5537 76.0324 84.5537C76.0324 84.5537 81.7916 84.3546 83.2366 85.1718C82.3471 85.8586 76.6288 86.6278 73.5106 87.6958C69.8233 88.9629 61.5388 89.6668 61.5388 89.6668C63.6913 90.1443 65.9038 90.2856 68.0989 90.0858C66.0099 92.1805 59.6407 91.8543 57.9776 90.3571C56.3146 88.8599 55.2718 83.7983 55.2718 83.7983Z" fill="url(#paint37_radial_540_23102)"/>
        <path d="M53.0125 67.4219C53.0125 67.4219 60.8505 88.9835 61.3992 97.0361C60.6433 94.2048 59.0947 91.6525 56.9383 89.684C59.6032 93.9146 59.6646 105.137 59.6646 105.137C59.6646 105.137 56.8497 96.8369 55.4695 95.714C55.8103 101.394 55.95 105.26 57.746 108.255C53.1624 106.696 51.4892 100.807 51.4892 100.807C51.4892 100.807 52.7364 112.138 46.5682 116.994C47.4645 109.879 47.0317 106.071 47.0317 106.071C47.0317 106.071 43.934 113.062 40.032 114.371C42.138 109.254 41.5212 104.948 41.5212 104.948C41.5212 104.948 38.7949 110.851 36.5049 111.675C38.2361 108.193 35.1417 103.265 35.1417 103.265C35.1417 103.265 48.0268 90.6249 53.0125 67.4219Z" fill="url(#paint38_radial_540_23102)"/>
        <path d="M2.2152 107.324C2.01754 105.353 1.92213 103.347 2.15386 102.424C3.23415 110.765 4.44393 116.043 9.65112 119.841C8.15166 115.802 7.9097 109.666 7.9097 109.666C7.9097 109.666 9.97145 119.841 13.9382 123.336C12.9806 118.738 13.2941 111.5 13.2941 111.5C13.2941 111.5 15.5944 118.182 15.5331 123.889C16.6372 123.082 17.3971 120.826 17.9185 118.426C18.4076 115.986 18.7344 113.516 18.8966 111.033C19.3711 114.078 19.5548 117.162 19.4453 120.242C19.4453 120.63 19.4044 121.008 19.3737 121.386C19.5973 121.197 19.809 120.994 20.0075 120.778C23.1734 117.385 24.3151 110.397 24.3151 110.397C24.3151 110.397 26.1383 116.348 25.5351 120.029C30.5207 114.082 31.2398 105.607 31.2398 105.607C32.6389 107.427 33.3547 109.687 33.2607 111.987C35.4792 109.848 36.3277 105.693 36.6242 103.382C36.7571 102.396 36.7912 101.747 36.7912 101.747C36.7912 101.747 37.0604 102.238 37.4148 103.08C38.2259 105.02 39.5072 108.859 38.9654 112.846C41.2452 110.696 42.547 105.106 42.455 100.751C42.4734 99.3568 42.2426 97.9703 41.7735 96.6581C42.6799 97.393 43.324 98.6533 43.7739 100.017C44.3976 102.032 44.7742 104.117 44.895 106.225C44.895 106.225 47.5293 101.926 48.2654 97.1938C48.5247 95.6756 48.5108 94.1228 48.2245 92.6095C49.3692 93.2038 50.2983 94.1472 50.8792 95.3052C51.3787 96.2612 51.6933 97.3041 51.8061 98.3785C52.391 96.857 52.7826 95.2671 52.9716 93.6466C53.3575 90.8659 53.0974 88.0329 52.2117 85.3708C54.7641 85.3708 55.3469 88.9902 55.3469 88.9902C55.3469 88.9902 56.5124 81.4355 51.5983 73.1048C49.0799 68.8227 38.2395 65.0042 27.7434 63.4109C17.8095 61.8999 8.18915 62.3807 6.27394 66.3812C6.27394 66.3812 5.80367 67.4492 5.10846 69.3378C2.63547 76.1371 0.957703 83.2038 0.109154 90.3947C-0.797333 101.926 2.83543 112.478 2.83543 112.478C2.83543 112.478 2.70934 111.723 2.56281 110.614C2.52191 110.329 2.48101 110.023 2.43671 109.7C2.35492 109.134 2.29358 108.588 2.23906 108.073C2.26632 107.829 2.23565 107.578 2.2152 107.324Z" fill="url(#paint39_linear_540_23102)"/>
        <path d="M2.20477 96.4041C2.10935 92.4791 2.6512 91.3768 2.6512 91.3768C2.6512 91.3768 4.18132 101.06 8.44453 103.536C8.16547 100.292 8.39548 97.0244 9.1261 93.8527C9.1261 93.8527 12.643 101.146 12.5919 105.404C12.5942 105.739 12.5634 106.072 12.4999 106.4C12.4958 106.446 12.489 106.492 12.4794 106.538L12.5714 106.445C12.8579 106.171 13.116 105.868 13.3416 105.542C13.7533 104.969 14.1029 104.353 14.3844 103.705C14.4035 103.671 14.4206 103.637 14.4355 103.602C15.768 100.511 16.0611 96.8642 16.0611 96.8642L16.1531 97.0531C16.6438 97.9974 18.7362 102.3 18.2864 105.446C21.1285 101.346 21.5477 95.8581 21.5477 95.8581C21.5477 95.8581 23.8378 101.239 22.9313 106.16C22.8601 106.564 22.7634 106.963 22.6416 107.355C23.0184 106.967 23.369 106.554 23.6912 106.119C26.4925 102.341 29.2426 95.0408 29.3857 93.6535C31.4679 97.4926 32.0302 102.06 32.0302 102.06C32.0302 102.06 34.6645 97.3999 34.1567 93.2861C36.0924 92.8362 37.4964 98.0592 37.4964 98.0592C37.4964 98.0592 41.0883 90.0753 39.8819 85.6971C43.2454 89.5809 44.8914 95.4014 44.8914 95.4014C44.8914 95.4014 47.6177 89.8212 44.8914 83.7054C47.8869 83.7981 49.2535 86.796 49.2535 86.796C49.2535 86.796 50.1702 81.4974 47.7233 77.6583C51.063 77.5759 52.1535 83.7844 52.1535 83.7844C52.1535 83.7844 53.4144 78.0257 51.6015 73.0946C53.5371 74.2381 56.4031 80.9926 56.5803 81.415C56.3724 80.4294 49.5942 48.9335 41.5449 43.0374C40.9179 42.5738 40.2942 42.1446 39.6706 41.736C32.1938 36.8769 25.2282 35.9841 19.3258 39.7511C11.7467 44.5998 7.69481 59.6027 5.14574 69.3379C4.7368 70.89 4.37216 72.3082 4.03138 73.5238C1.57092 82.428 0.119167 90.2848 2.20477 96.4041Z" fill="url(#paint40_radial_540_23102)"/>
        <path d="M10.8846 104.7C10.8846 104.7 10.4279 110.538 11.2253 113.454C8.10035 109.333 10.8846 104.7 10.8846 104.7Z" fill="url(#paint41_radial_540_23102)"/>
        <path d="M5.72856 103.155C5.72856 103.155 5.88533 109.391 6.56689 111.565C4.80845 109.965 3.78609 106.187 3.78609 106.187C3.78609 106.187 4.72666 108.124 5.46957 108.935C5.0061 106.737 5.41844 103.478 5.72856 103.155Z" fill="url(#paint42_radial_540_23102)"/>
        <path style="mix-blend-mode:multiply" opacity="0.5" d="M2.87273 112.454C2.85229 112.286 2.73642 111.596 2.61033 110.617C3.70425 117.513 6.96214 127.742 16.2724 137.12C16.0134 136.543 15.7816 135.997 15.5908 135.482V135.431C14.5514 132.684 14.4867 130.984 14.4867 130.984C14.4867 130.984 20.0994 139.04 36.0208 146.176C36.0208 146.176 36.0413 146.176 36.0515 146.196C38.0178 147.075 40.1409 147.947 42.4446 148.785C39.5619 146.803 37.1048 144.256 35.22 141.296C36.2423 142.7 45.0789 153.813 67.557 149.489C89.1219 145.369 94.1586 128.652 94.9527 125.328C94.5676 126.599 93.3169 129.693 89.5478 131.853C91.8686 128.886 97.3859 121.929 99.0728 112.245C97.2836 120.51 87.5168 129.377 85.3085 131.276C86.1741 130.393 87.9768 127.941 87.694 122.955C83.7272 131.904 74.0217 134.844 72.0554 135.348C73.1508 134.994 74.1493 134.387 74.972 133.576C75.7947 132.766 76.4191 131.774 76.7957 130.678C69.8505 135.578 55.4626 135.19 55.4626 135.19C55.4626 135.19 60.0018 134.425 61.3445 130.637C49.5806 134.225 33.1276 129.408 31.6281 128.948C34.6066 129.754 41.5415 129.83 46.5613 128.329C33.4411 128.401 24.717 125.119 20.0006 120.775C19.8029 120.596 19.6155 120.418 19.4383 120.239C18.8783 119.682 18.3664 119.078 17.9081 118.433C17.1148 117.343 16.5152 116.123 16.1361 114.827C15.2841 111.847 15.492 108.739 15.8566 105.899C16.3235 102.249 17.063 99.0311 16.177 97.0669L16.0849 96.8781C16.0662 99.2179 15.4999 101.52 14.4321 103.598C14.4178 103.635 14.4007 103.671 14.381 103.705C14.0558 104.339 13.6869 104.949 13.2769 105.532C13.0567 105.847 12.8201 106.151 12.5681 106.442L12.476 106.538C12.4856 106.492 12.4924 106.446 12.4965 106.4C12.5272 106.232 12.5783 105.896 12.6226 105.415C12.8538 102.598 12.6677 99.7629 12.0705 97.0017C10.8914 91.4731 13.6824 84.9039 12.6532 82.6994C12.5885 85.1031 10.3291 89.3612 10.3291 89.3612C10.3291 85.5839 12.81 73.8879 14.974 75.0623C17.138 76.2367 17.857 76.0479 21.1286 74.0321C19.2747 78.6576 21.65 85.9273 25.7291 86.0749C29.8083 86.2226 31.1306 82.5757 27.7227 76.6934C24.3149 70.8111 25.8791 68.1739 28.1078 65.3821C28.544 64.8258 28.3668 64.1562 27.767 63.4316C25.3611 60.4716 16.2008 56.6015 15.1273 56.2959C16.562 49.9088 19.8983 49.2358 21.8646 45.8568C23.831 42.4778 28.861 42.2786 32.429 43.0135C35.997 43.7483 36.1333 41.1042 39.8512 42.1756C39.8512 42.1756 39.7899 42.0279 39.6638 41.767C32.187 36.908 25.2214 36.0151 19.319 39.7821C12.3636 44.2463 8.38663 57.2093 5.81371 66.8415C5.58537 67.7103 5.35706 68.5585 5.14918 69.3586C2.67738 76.1582 0.999641 83.2247 0.149864 90.4154C-0.729355 101.565 2.65463 111.816 2.87273 112.454Z" fill="url(#paint43_radial_540_23102)"/>
        <path d="M12.1729 48.5525C12.1729 48.5525 12.8919 51.0283 12.1729 54.7335C11.4538 58.4387 9.91005 62.0478 9.56926 62.3775C9.22848 62.7071 6.3693 66.5669 5.87175 66.7523C5.37421 66.9377 2.92397 64.4893 3.54079 59.7162C2.62408 58.3804 3.97017 56.138 4.6347 56.4677C5.46962 54.9567 9.59993 48.2228 12.1729 48.5525Z" fill="url(#paint44_radial_540_23102)"/>
        <path d="M4.80503 58.4422C5.82738 60.4338 9.07846 61.8212 9.43969 61.9551C9.46014 61.9757 9.47036 61.9757 9.47036 61.9757C9.47036 61.9757 9.47036 61.9757 9.47036 61.9551C9.78069 61.4209 10.0584 60.8682 10.3019 60.2999C10.9362 58.7307 11.4234 57.1051 11.757 55.4443C11.8797 54.8365 11.9922 54.2356 12.074 53.6587C12.534 50.5991 12.4522 48.1198 11.9717 48.0477C7.02012 47.6047 4.8357 55.1971 4.52899 56.8935C4.45193 57.4262 4.54881 57.9697 4.80503 58.4422Z" fill="url(#paint45_radial_540_23102)"/>
        <path opacity="0.3" d="M9.13639 48.6725C9.13639 48.6725 10.8812 48.3703 11.4571 49.5928C12.0331 50.8153 12.166 53.0267 12.166 53.0267C12.166 53.0267 12.5919 49.9362 11.5662 48.7412C10.5404 47.5462 9.13639 48.6725 9.13639 48.6725Z" fill="#100F16"/>
        <path d="M12.1659 53.0852C12.1659 53.0852 13.0861 50.235 12.2784 47.9343C11.5525 46.3478 8.66268 47.8278 8.09697 47.1067C7.99815 48.0545 8.43775 48.7515 9.05117 48.6794C9.66458 48.6073 10.8948 48.5524 11.3344 48.7618C12.1693 49.222 12.1659 53.0852 12.1659 53.0852Z" fill="url(#paint46_radial_540_23102)"/>
        <path d="M4.80508 58.442C5.82743 60.4336 9.07852 61.8209 9.43975 61.9549H9.48064C9.79097 61.4207 10.0687 60.868 10.3122 60.2997C10.9465 58.7305 11.4336 57.1049 11.7673 55.4441C11.89 54.8363 12.0024 54.2354 12.0842 53.6585C11.5411 52.9626 10.7708 52.4832 9.91003 52.3055C7.64382 51.8282 5.35715 53.6276 4.82553 56.2923C4.67722 57.0004 4.67027 57.7311 4.80508 58.442Z" fill="url(#paint47_radial_540_23102)"/>
        <path d="M11.7708 55.4373C11.4382 57.0984 10.9475 58.7233 10.3054 60.2894C9.9929 60.5023 9.64183 60.651 9.27227 60.727C8.9027 60.803 8.52189 60.8049 8.15162 60.7324C6.4477 60.389 5.42535 58.4832 5.81725 56.4881C6.20915 54.493 7.9233 53.1572 9.6204 53.5109C10.1101 53.6252 10.5635 53.8614 10.9392 54.198C11.3149 54.5345 11.6008 54.9606 11.7708 55.4373Z" fill="#100F16"/>
        <path d="M8.16526 54.8467C7.44442 54.8467 6.86005 54.2579 6.86005 53.5315C6.86005 52.8051 7.44442 52.2163 8.16526 52.2163C8.8861 52.2163 9.47046 52.8051 9.47046 53.5315C9.47046 54.2579 8.8861 54.8467 8.16526 54.8467Z" fill="white"/>
        <path d="M4.32801 57.0101C4.32801 57.0101 4.04175 58.1124 5.1527 59.3658C6.26366 60.6192 9.13647 62.1748 9.13647 62.1748C9.13647 62.1748 6.60104 64.97 4.50863 64.5202C3.75549 62.3946 3.67371 61.4124 3.69075 60.3788C3.69075 60.111 4.68243 60.7222 4.68243 60.7222C4.68243 60.7222 3.18638 59.4654 3.53739 58.2635C3.8884 57.0617 4.13376 56.9998 4.32801 57.0101Z" fill="url(#paint48_radial_540_23102)"/>
        <path d="M4.34162 58.1709C4.47321 58.7409 4.79725 59.247 5.25832 59.6028C5.42871 59.9016 5.12201 59.9256 5.04363 60.2587C5.00813 60.5021 5.0524 60.7504 5.16972 60.9661C5.16972 60.9661 3.30904 59.8673 4.34162 58.1709Z" fill="url(#paint49_radial_540_23102)"/>
        <path d="M4.94482 61.0794C4.94482 61.0794 4.53247 60.6433 4.29392 60.6571C4.05538 60.6708 4.09627 63.1673 4.66879 64.2558C4.69612 63.1923 4.7883 62.1315 4.94482 61.0794Z" fill="url(#paint50_radial_540_23102)"/>
        <path d="M35.3871 63.689C33.5849 61.5491 32.4765 58.9042 32.211 56.1104C31.8702 51.605 32.9233 48.8991 35.3122 47.8964C37.7011 46.8937 43.9067 50.9869 44.895 56.4057C43.508 59.5992 40.6079 61.584 35.3871 63.689Z" fill="url(#paint51_radial_540_23102)"/>
        <path d="M45.0586 55.7465C45.0586 55.7465 44.0192 49.9328 38.0998 48.1025C32.1804 46.2723 31.9384 55.8426 33.0357 58.7992C33.6019 60.4256 34.4209 61.9509 35.4621 63.3183C35.4621 63.3183 42.3459 60.7497 45.0586 55.7465Z" fill="url(#paint52_radial_540_23102)"/>
        <path d="M32.5245 56.1106C32.5245 56.1106 31.1341 53.9678 32.1531 50.4961C32.8346 48.137 34.5079 47.0622 36.113 46.8527C38.7915 46.5093 41.5928 48.2572 43.2422 47.7421C42.7705 48.6082 41.9971 49.2675 41.0714 49.593C41.0714 49.593 37.6635 47.4777 35.5439 48.5216C33.2879 49.6307 32.2962 54.009 32.5245 56.1106Z" fill="url(#paint53_radial_540_23102)"/>
        <path d="M34.5802 58.9815C33.3056 56.5628 33.9378 53.7109 35.9924 52.6115C38.0469 51.5121 40.7458 52.5816 42.0204 55.0002C43.2951 57.4189 42.6628 60.2709 40.6083 61.3703C38.5537 62.4697 35.8549 61.4002 34.5802 58.9815Z" fill="url(#paint54_radial_540_23102)"/>
        <path d="M35.0327 63.5141C34.3205 63.806 35.8813 65.231 36.8968 65.3718C37.6601 66.5256 39.7798 68.9637 43.1502 68.428C46.5205 67.8923 46.8988 60.9283 46.374 57.9168C46.3944 56.5432 46.4592 55.4409 44.8268 54.864C44.9398 55.1522 45.0176 55.4532 45.0586 55.7603C45.0586 55.7603 42.5163 60.4338 35.0327 63.5141Z" fill="url(#paint55_radial_540_23102)"/>
        <path d="M35.5344 58.471C34.5863 56.6721 35.0562 54.5511 36.5838 53.7337C38.1114 52.9162 40.1183 53.7119 41.0664 55.5108C42.0144 57.3097 41.5446 59.4307 40.017 60.2482C38.4894 61.0656 36.4824 60.2699 35.5344 58.471Z" fill="#100F16"/>
        <path d="M35.4756 55.9903C34.7547 55.9903 34.1704 55.4014 34.1704 54.6751C34.1704 53.9487 34.7547 53.3599 35.4756 53.3599C36.1964 53.3599 36.7808 53.9487 36.7808 54.6751C36.7808 55.4014 36.1964 55.9903 35.4756 55.9903Z" fill="white"/>
        <path d="M45.0586 56.186C45.0586 56.186 42.1824 61.0553 35.5916 63.5449C35.1827 63.7647 36.5084 65.1761 37.3773 64.9425C38.0329 64.7376 38.6629 64.4577 39.2551 64.1081C38.7455 64.6011 38.1724 65.0227 37.5512 65.3615C37.742 66.0654 39.9366 68.4074 43.0685 67.9404C46.2003 67.4734 45.2154 59.644 45.2154 59.644C45.2154 59.644 44.4248 60.3583 43.8932 60.7326C44.7144 59.5238 46.5206 58.1502 45.0586 56.186Z" fill="url(#paint56_radial_540_23102)"/>
        <path d="M39.7286 61.5532C38.7915 62.3155 38.679 63.1431 39.5787 63.4865C39.9194 63.6067 40.8941 63.0847 40.8941 63.0847C40.8941 63.0847 40.2875 63.6582 40.1682 63.7715C40.0489 63.8848 42.0868 66.1753 42.5537 66.8037C43.0206 67.4321 42.8706 62.8409 42.4617 62.0202C42.2176 62.2372 41.9446 62.4186 41.6506 62.5593C41.9601 62.2694 42.2419 61.951 42.4924 61.6081C42.6628 61.3369 43.3716 59.225 41.9676 59.9083C41.5007 60.1212 41.5552 60.0594 39.7286 61.5532Z" fill="url(#paint57_radial_540_23102)"/>
        <path opacity="0.3" d="M32.5244 56.1105C32.5244 56.1105 33.1583 49.9294 36.1606 48.6966C38.3007 47.8828 41.0713 49.5929 41.0713 49.5929C41.0713 49.5929 38.8664 47.6905 35.9595 47.9618C33.0526 48.2331 32.153 53.8029 32.5244 56.1105Z" fill="#100F16"/>
        <path d="M13.052 58.0232C13.8154 56.3681 16.1191 55.0872 18.2558 55.2143C20.3925 55.3413 27.6989 59.3727 29.7675 60.8974C31.8361 62.4221 29.6789 64.2146 28.4044 65.4714C27.1298 66.7282 24.9659 70.1484 28.6634 75.8899C32.3609 81.6315 31.526 84.3408 28.9667 85.3985C25.702 86.7515 21.5546 83.3381 21.9567 76.7072C22.243 71.5289 24.2332 68.8607 24.2332 68.8607C24.2332 68.8607 19.9325 74.1627 17.8162 74.5095C15.6999 74.8563 13.5189 72.5316 12.7999 69.8943C11.7775 70.6944 11.1982 73.1634 11.4606 77.7202C11.6889 81.6452 9.56241 85.1169 6.47831 84.2447C3.39421 83.3725 4.70282 76.745 8.16178 71.6902C11.6207 66.6355 11.5151 61.361 13.052 58.0232Z" fill="url(#paint58_radial_540_23102)"/>
        <path d="M12.8885 58.1262C12.8885 58.1262 14.1868 55.3515 17.8401 55.4031C20.8628 55.5885 23.5482 57.5355 26.1688 58.8851C28.8474 60.2586 30.599 61.4159 30.4286 62.422C30.2582 63.4281 27.7228 65.3717 26.9935 67.0132C26.2642 68.6546 25.9712 71.5906 28.0159 75.2031C30.0606 78.8156 32.4052 83.3312 28.2238 84.8181C24.0423 86.305 21.6671 79.6397 22.3963 75.5739C22.8993 72.9372 23.6466 70.3539 24.6285 67.8579C24.6285 67.8579 20.4096 73.8432 17.6186 74.1454C14.8275 74.4476 12.9839 70.7733 12.6704 69.6573C12.2376 70.1243 11.4776 71.0137 11.2697 74.1454C11.0619 77.2772 11.7298 83.1011 7.54837 83.6437C3.36694 84.1862 5.50366 76.3603 6.9111 73.7608C8.31854 71.1613 10.1622 68.1841 11.0005 64.1184C11.8388 60.0526 12.8885 58.1262 12.8885 58.1262Z" fill="url(#paint59_radial_540_23102)"/>
        <path d="M10.7926 66.7075C10.7926 66.7075 9.08865 70.0144 7.74255 72.5898C6.39645 75.1653 4.13023 79.7633 5.74896 82.4933C6.15449 83.5853 10.1349 82.7714 10.4961 78.0292C10.8573 73.2869 10.5608 72.4834 12.2307 68.9911C12.6942 67.2157 10.7926 66.7075 10.7926 66.7075Z" fill="url(#paint60_radial_540_23102)"/>
        <path d="M25.1498 67.3771C25.1498 67.3771 22.1611 72.8714 22.7404 78.9117C23.1766 83.4891 26.5095 84.976 28.377 84.1381C30.9806 82.9637 29.58 79.3821 27.5966 75.9654C25.6132 72.5486 25.6371 68.1772 27.4296 65.7048C28.561 64.4033 30.1252 63.0504 30.1048 62.1232C29.58 61.2888 27.4024 61.0381 27.4024 61.0381C27.4024 61.0381 26.8401 64.6162 25.1498 67.3771Z" fill="url(#paint61_radial_540_23102)"/>
        <path d="M13.178 58.0711C13.3859 57.3843 15.2227 55.4339 17.9967 55.5643C20.7707 55.6948 28.0192 60.1383 29.2187 60.8972C30.4183 61.6561 30.0298 62.2536 30.0298 62.2536C30.0298 62.2536 28.0533 62.3086 27.3615 62.0304C26.6697 61.7523 15.7578 58.3905 13.6483 58.7991C12.6396 58.8644 13.178 58.0711 13.178 58.0711Z" fill="url(#paint62_radial_540_23102)"/>
        <path d="M28.6464 62.7895C28.7078 64.3176 18.9205 73.8124 17.3188 73.5686C11.5016 72.6208 9.66135 63.775 9.66135 63.775C11.6686 62.5972 10.193 64.1562 13.1612 64.1974C14.0061 64.1988 14.8497 64.1287 15.683 63.9879C21.248 63.1501 28.5272 61.6323 28.6464 62.7895Z" fill="url(#paint63_radial_540_23102)"/>
        <path d="M28.6464 62.7895C28.7078 64.3176 18.9205 73.8124 17.3188 73.5686C13.2123 69.4135 13.0522 64.6232 13.0522 64.6232C13.0522 64.6232 13.0896 64.4584 13.1612 64.1974C14.0061 64.1988 14.8497 64.1287 15.683 63.9879C21.248 63.1501 28.5272 61.6323 28.6464 62.7895Z" fill="url(#paint64_radial_540_23102)"/>
        <g style="mix-blend-mode:multiply" opacity="0.3">
            <path d="M9.66114 63.7749C9.66114 63.7749 11.2424 65.2824 13.052 65.6739C14.8615 66.0654 21.7113 62.7035 28.6462 62.7894C27.9953 61.639 22.0895 60.7599 20.5424 60.6707C18.9952 60.5814 14.4083 61.4261 13.3382 61.5806C12.2681 61.7352 12.3465 61.639 11.5423 61.8279C10.738 62.0168 9.66114 63.7749 9.66114 63.7749Z" fill="#420D00"/>
        </g>
        <path d="M29.4062 62.2091C29.3449 62.7002 28.6463 62.7894 28.6463 62.7894C28.6463 61.6631 13.0758 64.9906 12.6498 64.9906C12.2239 64.9906 7.87888 63.5827 8.44117 61.876C8.96257 60.3239 14.4696 57.0308 16.0066 56.4401C16.1153 56.394 16.2301 56.364 16.3474 56.3508C20.2255 56.4092 29.4642 61.7249 29.4062 62.2091Z" fill="url(#paint65_radial_540_23102)"/>
        <path d="M29.4062 62.2091C29.3449 62.7002 28.6463 62.7894 28.6463 62.7894C28.6463 61.6631 13.0758 64.9906 12.6499 64.9906C12.9625 61.8825 14.1245 58.9227 16.0066 56.4401C16.1153 56.394 16.2301 56.364 16.3474 56.3508C20.2255 56.4092 29.4642 61.7249 29.4062 62.2091Z" fill="url(#paint66_radial_540_23102)"/>
        <path d="M23.8857 70.9758C23.8857 70.9758 21.9194 77.1088 23.6574 81.4424C24.5025 83.5406 26.5847 83.4479 26.6324 82.6409C26.6801 81.8339 22.468 80.6595 23.8857 70.9758Z" fill="url(#paint67_radial_540_23102)"/>
        <path d="M10.3428 68.2424C10.3428 68.2424 5.63654 75.4537 5.4866 79.8148C5.53771 81.2673 6.54985 81.779 6.92812 78.3382C7.30639 74.8974 10.0463 69.1387 10.3428 68.2424Z" fill="url(#paint68_radial_540_23102)"/>
        <path d="M14.9946 57.6763C14.9946 57.6763 12.6091 61.0484 12.65 64.1733C12.5853 64.7364 11.3176 64.551 11.6856 62.9405C12.0537 61.33 13.0692 59.6405 14.9946 57.6763Z" fill="url(#paint69_radial_540_23102)"/>
        <path d="M21.9295 57.9922C21.9295 57.9922 29.236 61.0484 29.6108 62.0648C29.7028 62.3327 29.27 62.9851 28.827 63.0263C28.4556 63.5758 27.9171 64.7433 25.351 67.0818C26.7142 65.3648 28.2954 63.2667 28.2545 62.8649C28.2136 62.4632 20.9072 63.5998 12.6329 64.9905C20.3279 63.2736 25.9985 62.1987 28.7214 62.3327C29.0281 62.2503 28.0943 61.0724 21.9295 57.9922Z" fill="url(#paint70_radial_540_23102)"/>
        <path d="M17.2334 57.7277C17.4686 57.5492 19.7927 58.3321 19.3122 58.9811C19.0771 59.0567 17.7173 58.7854 17.4652 58.3939C17.3207 58.2017 17.2397 57.9687 17.2334 57.7277Z" fill="url(#paint71_radial_540_23102)"/>
        <path d="M17.2334 57.7278C17.0221 58.4489 17.84 59.3452 18.8419 59.2044C19.8438 59.0636 19.0634 58.4214 18.5011 58.4729C17.9389 58.5245 17.3254 58.2669 17.2334 57.7278Z" fill="url(#paint72_radial_540_23102)"/>
        <path d="M13.9517 57.9614C13.9517 57.9614 13.3314 58.6173 13.0315 58.9264C12.7317 59.2354 12.459 58.6413 12.8816 58.5109C13.2564 58.3659 13.615 58.1818 13.9517 57.9614Z" fill="url(#paint73_radial_540_23102)"/>
        <path d="M42.3084 79.8767C43.7297 82.2104 44.2918 84.9731 43.8965 87.682C42.8622 85.5758 41.276 83.7946 39.3095 82.5311C39.3095 82.5311 41.9745 82.5311 42.8469 84.0146C42.7514 82.6255 42.5715 81.2436 42.3084 79.8767Z" fill="url(#paint74_linear_540_23102)"/>
        <path d="M35.3598 82.9226C36.5365 84.4366 37.3588 86.1987 37.7654 88.0776C38.172 89.9565 38.1523 91.9036 37.7078 93.7738C37.0672 90.5494 33.9388 87.5378 33.9388 87.5378C33.9388 87.5378 35.8165 87.5721 36.7775 89.114C37.0331 87.1086 35.3598 82.9226 35.3598 82.9226Z" fill="url(#paint75_linear_540_23102)"/>
        <path d="M25.1874 92.1941C25.1874 92.1941 26.7891 95.8512 24.9761 100.872C25.0818 98.1245 23.4801 93.9557 23.4801 93.9557C23.4801 93.9557 24.7614 94.9206 24.9761 95.6727C25.1716 94.5243 25.2425 93.3579 25.1874 92.1941Z" fill="url(#paint76_linear_540_23102)"/>
        <path d="M15.1921 91.7305C15.1921 91.7305 13.127 95.9954 13.3076 98.2172C12.4493 96.8023 11.9236 95.2084 11.7707 93.5573C12.1195 94.193 12.5441 94.7834 13.035 95.3155C13.236 93.8629 14.3027 92.4894 15.1921 91.7305Z" fill="url(#paint77_linear_540_23102)"/>
        <path d="M5.49337 87.8262C5.49337 87.8262 4.66527 94.1686 6.79858 98.2172C4.95153 96.7475 3.79286 92.304 5.49337 87.8262Z" fill="url(#paint78_linear_540_23102)"/>
        <path d="M3.23071 85.1719C3.23071 85.1719 1.95958 88.9011 2.08567 90.3708C1.78069 88.5537 2.19152 86.6884 3.23071 85.1719Z" fill="url(#paint79_linear_540_23102)"/>
        <path d="M29.4063 100.288C29.4063 100.288 30.6876 105.477 28.2919 109.903C28.0261 105.83 27.3581 104.714 27.3581 104.714L28.8951 106.225C29.3229 104.277 29.4948 102.281 29.4063 100.288Z" fill="url(#paint80_radial_540_23102)"/>
        <path d="M50.8314 86.4629C50.8314 86.4629 52.2218 88.9319 51.2915 93.0217C50.8394 91.6921 50.1293 90.4664 49.2024 89.4161C49.2024 89.4161 50.7121 89.8453 51.0222 90.3707C51.0222 88.743 50.8314 86.4629 50.8314 86.4629Z" fill="url(#paint81_radial_540_23102)"/>
        <path d="M48.8515 115.84C48.8515 115.84 51.6971 121.207 54.2666 122.021C51.6732 122.183 48.6368 120.211 48.6368 120.211C48.6368 120.211 49.7921 120.27 50.777 120.4C49.1923 119.319 48.8515 115.84 48.8515 115.84Z" fill="url(#paint82_linear_540_23102)"/>
        <path d="M48.2687 124.635C48.2687 124.635 51.3801 127.114 54.488 127.897C53.6565 129.164 49.2025 128.491 49.2025 128.491C50.3124 128.408 51.4084 128.191 52.4672 127.845C51.5736 127.661 50.7325 127.276 50.0058 126.721C49.2792 126.165 48.6856 125.452 48.2687 124.635Z" fill="url(#paint83_linear_540_23102)"/>
        <path d="M41.0133 116.651C41.0133 116.651 41.4734 120.624 43.1228 123.388C41.6472 123.694 38.9686 120.047 38.9686 120.047C39.8132 120.778 40.7409 121.405 41.7324 121.915C41.2289 121.148 40.9029 120.276 40.7784 119.365C40.654 118.454 40.7343 117.526 41.0133 116.651Z" fill="url(#paint84_linear_540_23102)"/>
        <path d="M62.0433 126.65C62.0433 126.65 68.7533 127.636 73.3982 125.074C69.6155 128.546 65.9248 128.999 62.0433 126.65Z" fill="url(#paint85_radial_540_23102)"/>
        <path d="M62.7622 133.14C62.7622 133.14 69.0394 133.525 71.9634 131.835C71.1012 133.765 66.5722 135.036 62.7622 133.14Z" fill="url(#paint86_radial_540_23102)"/>
        <path d="M82.2211 122.021C80.4013 122.365 87.2715 118.326 87.2715 118.326C86.7807 119.302 86.0668 120.145 85.1887 120.788C84.3105 121.43 83.2933 121.853 82.2211 122.021Z" fill="url(#paint87_radial_540_23102)"/>
        <path d="M77.433 127.89C77.433 127.89 81.1816 126.612 82.6436 125.376C82.0744 127.141 80.7181 128.024 77.433 127.89Z" fill="url(#paint88_radial_540_23102)"/>
        <path d="M59.2181 105.652C59.2181 105.652 61.2322 107.417 63.8596 107.063C63.1133 107.942 60.8369 108.124 59.2181 105.652Z" fill="url(#paint89_radial_540_23102)"/>
        <path d="M56.5872 111.932C56.5872 111.932 57.0711 113.903 59.3918 115.095C58.5603 115.758 56.318 115.298 56.5872 111.932Z" fill="url(#paint90_radial_540_23102)"/>
        <path d="M79.413 89.2514C79.413 89.2514 100.974 82.8849 108.38 77.2979C108.1 81.0237 90.6282 91.3598 86.4263 92.8192C82.2244 94.2786 79.413 89.2514 79.413 89.2514Z" fill="url(#paint91_linear_540_23102)"/>
        <path d="M83.107 93.609C83.107 93.609 105.677 82.6033 112.96 75.0417C112.8 75.2031 112.738 75.7594 112.656 75.9826C112.52 76.3466 112.374 76.7072 112.21 77.0575C112.046 77.4077 111.869 77.7752 111.672 78.1185C111.541 78.4081 111.381 78.6831 111.194 78.9393C111.069 79.069 110.93 79.1841 110.779 79.2827C110.005 79.8389 109.193 80.3392 108.349 80.7798C108.771 80.8227 109.194 80.7185 109.548 80.4845C109.899 80.2498 110.27 80.0476 110.656 79.8802C108.819 82.5675 106.723 85.0658 104.399 87.3386C102.075 89.6874 99.6044 91.892 97.0587 93.997C94.8232 95.8445 92.5263 97.6198 90.1578 99.2956C89.1355 100.024 88.0859 100.734 87.0158 101.404C82.0438 102.355 83.107 93.609 83.107 93.609Z" fill="url(#paint92_linear_540_23102)"/>
        <path d="M89.1356 106.49C89.1356 106.49 110.213 91.662 118 73.3076C117.734 73.9257 116.855 74.5919 116.391 75.0761C115.71 75.7629 115.028 76.4497 114.347 77.109C113.004 78.383 111.494 79.4269 110.155 80.7146C110.034 80.7938 109.941 80.9083 109.886 81.0427C109.832 81.1771 109.82 81.3251 109.852 81.4666L109.992 82.8745C109.838 82.3383 109.597 81.8313 109.279 81.3739C106.788 83.7983 103.994 85.8792 101.22 87.9636C98.7866 89.7905 96.3193 91.5761 93.8009 93.2862C92.6968 94.0348 91.5858 94.7731 90.4442 95.4599C85.1791 98.6294 86.2593 105.538 89.1356 106.49Z" fill="url(#paint93_linear_540_23102)"/>
        <path d="M110.438 84.8594C110.206 85.0929 110.176 86.2329 110.097 86.5763C109.825 88.0064 109.418 89.407 108.881 90.7589C108.84 90.8701 108.778 90.9718 108.697 91.0576C108.586 91.1456 108.458 91.2088 108.322 91.243L107.166 91.6105C107.611 91.728 108.071 91.7732 108.53 91.7444C108.544 91.915 108.507 92.0861 108.424 92.2355C106.263 97.2009 103.714 101.85 99.8635 105.7C98.374 107.197 96.7391 108.539 94.9834 109.707C90.0557 109.257 89.3843 105.93 89.3843 105.93L90.3556 104.958C94.2712 101.047 98.2822 97.194 102.041 93.142C102.085 93.0939 102.143 93.039 102.208 93.0493C102.273 93.0596 102.324 93.1351 102.351 93.2038C102.623 93.8185 102.945 94.409 103.316 94.9689C103.353 95.0272 103.418 95.0959 103.483 95.0684C103.217 94.4778 102.678 93.4717 102.723 92.8089C102.764 92.2354 103.789 91.5315 104.198 91.1229L107.412 87.9121L110.438 84.8594Z" fill="url(#paint94_linear_540_23102)"/>
        <path d="M62.8235 101.778C61.8011 106.383 58.942 115.837 65.8531 120.885C64.9704 119.168 65.0113 116.572 65.0113 116.572C65.0113 116.572 68.0409 124.683 79.9309 123.127C78.8639 122.804 77.8623 122.292 76.9729 121.616C76.9729 121.616 88.4334 122.605 95.8796 112.616C101.128 106.613 103.827 102.187 103.994 101.916C103.564 102.177 93.9644 108.261 91.7254 108.639C94.5508 106.414 97.1501 103.913 99.4851 101.17C99.4851 101.17 93.3816 102.201 90.8326 102.963C92.2468 100.518 95.5286 98.5984 95.5286 98.5984C92.3236 97.0455 88.6596 96.7505 85.2505 97.7709C87.3531 95.137 91.4051 93.3445 91.4051 93.3445C91.4051 93.3445 87.6565 89.8385 81.6586 90.9408C82.2547 90.2092 83.0529 89.6726 83.9521 89.3989C81.0486 88.7911 78.9767 88.1696 76.4242 88.6744H76.3833C75.733 88.8063 75.0955 88.9959 74.4783 89.241C74.2057 89.3474 73.9365 89.4607 73.6434 89.5844C70.1469 91.1777 67.407 90.4222 65.4203 91.3013C65.3478 91.3287 65.2782 91.3632 65.2124 91.4043C64.9853 91.5072 64.7741 91.6425 64.5853 91.8061L64.5445 91.837C59.8996 95.8032 62.1181 101.593 59.7735 104.11C59.7564 104.137 60.864 104.223 62.8235 101.778Z" fill="url(#paint95_linear_540_23102)"/>
        <path d="M64.8104 107.403C63.4472 111.957 67.7547 117.495 71.4931 118.512C68.0376 115.669 69.3394 111.441 69.3394 111.441C69.3394 111.441 69.9017 118.23 85.2983 114.295C80.0945 114.127 76.8673 112.983 76.8673 112.983C76.8673 112.983 86.883 112.64 92.9319 105.229C86.8182 107.977 83.9965 106.143 83.9965 106.143C83.9965 106.143 88.6619 99.5841 92.0867 99.093C87.2783 98.6191 81.8837 100.151 81.8837 100.151C81.8837 100.151 83.4887 95.7037 85.9731 94.677C81.7882 93.9902 79.7469 94.2031 77.1945 95.041C78.7246 92.335 80.5171 92.2938 80.6432 92.2938C80.3399 92.2629 74.9453 91.6414 71.3125 92.6372C67.5946 93.6674 72.812 89.6051 76.3732 88.6917C75.4329 88.8908 74.5183 89.1973 73.6469 89.6051C70.1504 91.1984 67.4105 90.443 65.4238 91.322C62.8236 95.2539 66.1735 102.839 64.8104 107.403Z" fill="url(#paint96_radial_540_23102)"/>
        <path d="M64.4014 103.08C65.7986 102.283 65.693 96.6273 65.693 96.6273C65.693 96.6273 66.3916 106.623 70.2663 108.073C69.4296 106.157 69.2034 104.028 69.6188 101.977C69.6188 101.977 70.9104 104.893 78.4485 104.275C74.7203 102.826 73.7832 101.232 73.7832 101.232C75.3611 101.213 76.9092 100.796 78.2861 100.02C79.663 99.2429 80.8248 98.1309 81.6655 96.7853C78.9397 96.962 76.2063 96.5872 73.6264 95.683C73.6264 95.683 74.6488 93.3307 76.7616 93.1762C75.5655 92.3761 71.7964 92.1769 70.4639 92.7779C72.5087 91.3287 76.5981 90.3329 76.5981 90.3329C75.9541 89.8512 75.2324 89.4852 74.4648 89.2512C74.1921 89.3577 73.9229 89.471 73.6298 89.5946C70.1334 91.188 67.3935 90.4325 65.4067 91.3116C65.3342 91.339 65.2646 91.3735 65.1988 91.4146C64.8853 91.6138 64.6672 91.758 64.5718 91.8164L64.5309 91.8473C62.2067 94.9996 64.8001 99.6285 64.4014 103.08Z" fill="url(#paint97_radial_540_23102)"/>
        <path d="M14.4697 130.984C14.4697 130.984 20.0825 139.04 36.0039 146.175C21.0094 138.422 14.9094 130.723 13.7848 129.274C13.8667 129.893 14.1023 130.481 14.4697 130.984Z" fill="url(#paint98_radial_540_23102)"/>
        <path d="M2.87282 112.454C2.85237 112.286 2.73651 111.596 2.61042 110.617C3.70433 117.512 6.96223 127.742 16.2725 137.12C16.0135 136.543 15.7817 135.997 15.5909 135.482C15.5909 135.482 12.6124 133.951 7.86532 124.476C3.11819 115.002 2.61723 108.361 2.61723 108.361L2.46388 109.549C2.46388 109.549 0.920124 102.245 0.671351 99.498C-0.0102177 86.4491 2.24237 80.3813 2.4298 79.9246C2.36846 80.2371 1.81639 82.9877 1.90159 84.7699C2.64109 78.8017 5.87854 66.7761 5.87854 66.7761L5.82401 66.8311C5.59568 67.6999 5.36736 68.548 5.15949 69.3481C2.68768 76.1478 1.00995 83.2143 0.160175 90.405C-0.729273 101.565 2.65471 111.816 2.87282 112.454Z" fill="url(#paint99_radial_540_23102)"/>
        <path d="M18.5557 33.0241C18.2865 39.1468 18.2149 45.3416 20.338 44.7578C22.9757 44.0436 21.2752 42.3163 25.109 41.0595C28.9428 39.8027 33.4037 42.7284 35.8062 41.5196C38.2087 40.3109 41.2145 43.3465 42.4447 43.5148C43.6749 43.683 44.987 42.4193 45.5118 39.8199C46.0366 37.2204 42.7855 37.5226 43.375 33.6937C43.8862 30.3834 43.2115 30.665 40.2057 29.5936C39.7491 29.4288 39.2277 29.2296 38.6586 28.9892C34.3477 27.1384 38.6961 23.4709 35.3053 20.0198C31.9145 16.5687 30.3571 19.4326 27.0481 19.8756C23.739 20.3186 20.2903 11.7406 17.8469 14.426C15.4035 17.1113 18.7227 18.3441 18.8147 24.9303C18.8454 27.0353 18.692 29.9027 18.5693 32.8043L18.5557 33.0241Z" fill="url(#paint100_radial_540_23102)"/>
        <path d="M20.338 44.758C22.9757 44.0437 21.2752 42.3165 25.109 41.0596C28.9428 39.8028 33.4037 42.7285 35.8062 41.5198C38.2087 40.311 41.2145 43.3466 42.4447 43.5149C43.6749 43.6832 44.987 42.4195 45.5118 39.82C46.0366 37.2205 42.7855 37.5227 43.375 33.6939C43.8862 30.3836 43.2115 30.6651 40.2057 29.5938C42.7548 30.5415 42.7207 33.4672 41.0679 34.9129C39.4151 36.3586 44.9665 37.272 43.6136 40.0638C42.2607 42.8556 38.4473 32.6122 35.5506 37.4987C33.7138 40.5892 26.7243 37.5193 23.5414 40.7094C20.3585 43.8995 18.3751 38.8413 18.5523 33.0174C18.2865 39.1469 18.2115 45.3417 20.338 44.758Z" fill="url(#paint101_radial_540_23102)"/>
        <path d="M20.6857 36.9799C19.6429 41.0114 21.4627 24.01 20.4915 21.1015C19.5202 18.1929 18.2934 14.8345 19.326 14.8963C20.3586 14.9582 22.1613 20.4147 24.8399 20.7684C27.5184 21.1221 26.6733 24.0752 24.5434 25.1707C22.4135 26.2661 22.1647 31.2727 20.6857 36.9799Z" fill="url(#paint102_radial_540_23102)"/>
        <path d="M33.857 20.1264C35.1962 23.8522 34.7055 26.6508 32.9232 30.2565C31.1409 33.8621 31.877 36.6504 32.6301 36.6642C33.3833 36.6779 34.6476 30.7509 38.2872 30.9055C39.2448 30.6926 35.8369 30.1225 35.5404 29.1885C35.244 28.2545 37.2239 19.546 33.857 20.1264Z" fill="url(#paint103_radial_540_23102)"/>
    </g>
    <defs>
        <linearGradient id="paint0_linear_540_23102" x1="107.943" y1="68.4898" x2="102.432" y2="51.6093" gradientUnits="userSpaceOnUse">
            <stop stop-color="#006837"/>
            <stop offset="0.41" stop-color="#11452C"/>
            <stop offset="0.78" stop-color="#1D2B25"/>
            <stop offset="1" stop-color="#222222"/>
        </linearGradient>
        <linearGradient id="paint1_linear_540_23102" x1="73.7184" y1="19.8378" x2="64.9823" y2="67.1612" gradientUnits="userSpaceOnUse">
            <stop stop-color="#006837"/>
            <stop offset="0.41" stop-color="#11452C"/>
            <stop offset="0.78" stop-color="#1D2B25"/>
            <stop offset="1" stop-color="#222222"/>
        </linearGradient>
        <linearGradient id="paint2_linear_540_23102" x1="57.8617" y1="16.9911" x2="79.4058" y2="56.3881" gradientUnits="userSpaceOnUse">
            <stop stop-color="#006837"/>
            <stop offset="0.41" stop-color="#11452C"/>
            <stop offset="0.78" stop-color="#1D2B25"/>
            <stop offset="1" stop-color="#222222"/>
        </linearGradient>
        <linearGradient id="paint3_linear_540_23102" x1="97.6449" y1="10.4048" x2="75.3584" y2="55.4987" gradientUnits="userSpaceOnUse">
            <stop stop-color="#006837"/>
            <stop offset="0.41" stop-color="#11452C"/>
            <stop offset="0.78" stop-color="#1D2B25"/>
            <stop offset="1" stop-color="#222222"/>
        </linearGradient>
        <linearGradient id="paint4_linear_540_23102" x1="87.5373" y1="24.6488" x2="87.8729" y2="64.5133" gradientUnits="userSpaceOnUse">
            <stop stop-color="#006837"/>
            <stop offset="0.41" stop-color="#11452C"/>
            <stop offset="0.78" stop-color="#1D2B25"/>
            <stop offset="1" stop-color="#222222"/>
        </linearGradient>
        <linearGradient id="paint5_linear_540_23102" x1="101.179" y1="49.191" x2="91.8479" y2="80.2737" gradientUnits="userSpaceOnUse">
            <stop stop-color="#006837"/>
            <stop offset="0.41" stop-color="#11452C"/>
            <stop offset="0.78" stop-color="#1D2B25"/>
            <stop offset="1" stop-color="#222222"/>
        </linearGradient>
        <radialGradient id="paint6_radial_540_23102" cx="0" cy="0" r="1" gradientUnits="userSpaceOnUse" gradientTransform="translate(81.2941 43.2985) rotate(180) scale(17.9696 18.1071)">
            <stop stop-color="#FEAC01"/>
            <stop offset="1" stop-color="#B30301"/>
        </radialGradient>
        <radialGradient id="paint7_radial_540_23102" cx="0" cy="0" r="1" gradientUnits="userSpaceOnUse" gradientTransform="translate(87.8883 55.2038) rotate(180) scale(13.6995 13.8044)">
            <stop stop-color="#FEAC01"/>
            <stop offset="1" stop-color="#B30301"/>
        </radialGradient>
        <radialGradient id="paint8_radial_540_23102" cx="0" cy="0" r="1" gradientUnits="userSpaceOnUse" gradientTransform="translate(94.2065 66.6733) rotate(180) scale(11.2902 11.3766)">
            <stop stop-color="#FEAC01"/>
            <stop offset="1" stop-color="#B30301"/>
        </radialGradient>
        <radialGradient id="paint9_radial_540_23102" cx="0" cy="0" r="1" gradientUnits="userSpaceOnUse" gradientTransform="translate(67.7718 54.9634) rotate(180) scale(13.6757 13.7804)">
            <stop stop-color="#FEAC01"/>
            <stop offset="1" stop-color="#B30301"/>
        </radialGradient>
        <radialGradient id="paint10_radial_540_23102" cx="0" cy="0" r="1" gradientUnits="userSpaceOnUse" gradientTransform="translate(84.983 167.559) rotate(162.837) scale(19.9593 20.0855)">
            <stop stop-color="#FED501"/>
            <stop offset="0.08" stop-color="#FEC401"/>
            <stop offset="0.28" stop-color="#FD9B02"/>
            <stop offset="0.44" stop-color="#FD8202"/>
            <stop offset="0.54" stop-color="#FD7902"/>
            <stop offset="1" stop-color="#E06F01"/>
        </radialGradient>
        <radialGradient id="paint11_radial_540_23102" cx="0" cy="0" r="1" gradientUnits="userSpaceOnUse" gradientTransform="translate(72.3017 164.163) rotate(162.837) scale(17.5483 17.6593)">
            <stop offset="0.07" stop-color="#FED501"/>
            <stop offset="0.79" stop-color="#FD7902"/>
            <stop offset="1" stop-color="#E06F01"/>
        </radialGradient>
        <radialGradient id="paint12_radial_540_23102" cx="0" cy="0" r="1" gradientUnits="userSpaceOnUse" gradientTransform="translate(78.1404 168.57) rotate(162.837) scale(3.03498 3.05419)">
            <stop offset="0.07" stop-color="#FED501"/>
            <stop offset="0.79" stop-color="#FD7902"/>
            <stop offset="1" stop-color="#E06F01"/>
        </radialGradient>
        <radialGradient id="paint13_radial_540_23102" cx="0" cy="0" r="1" gradientUnits="userSpaceOnUse" gradientTransform="translate(72.3138 168.907) rotate(-176.413) scale(3.03307 3.05611)">
            <stop offset="0.07" stop-color="#FED501"/>
            <stop offset="0.79" stop-color="#FD7902"/>
            <stop offset="1" stop-color="#E06F01"/>
        </radialGradient>
        <radialGradient id="paint14_radial_540_23102" cx="0" cy="0" r="1" gradientUnits="userSpaceOnUse" gradientTransform="translate(69.151 165.156) rotate(-166.753) scale(3.03418 3.05497)">
            <stop offset="0.07" stop-color="#FED501"/>
            <stop offset="0.79" stop-color="#FD7902"/>
            <stop offset="1" stop-color="#E06F01"/>
        </radialGradient>
        <radialGradient id="paint15_radial_540_23102" cx="0" cy="0" r="1" gradientUnits="userSpaceOnUse" gradientTransform="translate(38.1056 169.579) rotate(-156.853) scale(20.0582 20.1644)">
            <stop stop-color="#FED501"/>
            <stop offset="0.08" stop-color="#FEC401"/>
            <stop offset="0.28" stop-color="#FD9B02"/>
            <stop offset="0.44" stop-color="#FD8202"/>
            <stop offset="0.54" stop-color="#FD7902"/>
            <stop offset="1" stop-color="#E06F01"/>
        </radialGradient>
        <radialGradient id="paint16_radial_540_23102" cx="0" cy="0" r="1" gradientUnits="userSpaceOnUse" gradientTransform="translate(30.3639 158.671) rotate(-156.852) scale(17.7074 17.8012)">
            <stop offset="0.07" stop-color="#FED501"/>
            <stop offset="0.79" stop-color="#FD7902"/>
            <stop offset="1" stop-color="#E06F01"/>
        </radialGradient>
        <radialGradient id="paint17_radial_540_23102" cx="0" cy="0" r="1" gradientUnits="userSpaceOnUse" gradientTransform="translate(32.5512 165.705) rotate(-172.494) scale(3.03338 3.0558)">
            <stop offset="0.07" stop-color="#FED501"/>
            <stop offset="0.79" stop-color="#FD7902"/>
            <stop offset="1" stop-color="#E06F01"/>
        </radialGradient>
        <radialGradient id="paint18_radial_540_23102" cx="0" cy="0" r="1" gradientUnits="userSpaceOnUse" gradientTransform="translate(27.5596 162.875) rotate(-150.915) scale(3.03842 3.05072)">
            <stop offset="0.07" stop-color="#FED501"/>
            <stop offset="0.79" stop-color="#FD7902"/>
            <stop offset="1" stop-color="#E06F01"/>
        </radialGradient>
        <radialGradient id="paint19_radial_540_23102" cx="0" cy="0" r="1" gradientUnits="userSpaceOnUse" gradientTransform="translate(26.9073 157.845) rotate(-124.845) scale(3.04856 3.04058)">
            <stop offset="0.07" stop-color="#FED501"/>
            <stop offset="0.79" stop-color="#FD7902"/>
            <stop offset="1" stop-color="#E06F01"/>
        </radialGradient>
        <linearGradient id="paint20_linear_540_23102" x1="83.8158" y1="44.7925" x2="75.5792" y2="82.6462" gradientUnits="userSpaceOnUse">
            <stop stop-color="#BABABA"/>
            <stop offset="0.09" stop-color="#A7A7A7"/>
            <stop offset="0.4" stop-color="#6E6E6E"/>
            <stop offset="0.67" stop-color="#454545"/>
            <stop offset="0.88" stop-color="#2B2B2B"/>
            <stop offset="1" stop-color="#222222"/>
        </linearGradient>
        <linearGradient id="paint21_linear_540_23102" x1="34.9951" y1="168.486" x2="44.2636" y2="137.918" gradientUnits="userSpaceOnUse">
            <stop stop-color="#BABABA"/>
            <stop offset="0.15" stop-color="#AAAAAA"/>
            <stop offset="0.43" stop-color="#828282"/>
            <stop offset="0.83" stop-color="#414141"/>
            <stop offset="1" stop-color="#222222"/>
        </linearGradient>
        <radialGradient id="paint22_radial_540_23102" cx="0" cy="0" r="1" gradientUnits="userSpaceOnUse" gradientTransform="translate(36.6547 153.287) rotate(180) scale(19.3702 16.7859)">
            <stop stop-color="#F2F2F2"/>
            <stop offset="0.1" stop-color="#EEEDEC"/>
            <stop offset="0.23" stop-color="#E2DFDC"/>
            <stop offset="0.38" stop-color="#CEC7C2"/>
            <stop offset="0.54" stop-color="#B2A69D"/>
            <stop offset="0.71" stop-color="#8E7B6E"/>
            <stop offset="0.88" stop-color="#634836"/>
            <stop offset="1" stop-color="#42210B"/>
        </radialGradient>
        <linearGradient id="paint23_linear_540_23102" x1="76.8606" y1="164.076" x2="70.5569" y2="134.939" gradientUnits="userSpaceOnUse">
            <stop stop-color="#BABABA"/>
            <stop offset="0.15" stop-color="#AAAAAA"/>
            <stop offset="0.43" stop-color="#828282"/>
            <stop offset="0.83" stop-color="#414141"/>
            <stop offset="1" stop-color="#222222"/>
        </linearGradient>
        <radialGradient id="paint24_radial_540_23102" cx="0" cy="0" r="1" gradientUnits="userSpaceOnUse" gradientTransform="translate(76.1098 149.667) rotate(167.127) scale(24.214 13.5373)">
            <stop stop-color="#F2F2F2"/>
            <stop offset="0.1" stop-color="#EEEDEC"/>
            <stop offset="0.23" stop-color="#E2DFDC"/>
            <stop offset="0.38" stop-color="#CEC7C2"/>
            <stop offset="0.54" stop-color="#B2A69D"/>
            <stop offset="0.71" stop-color="#8E7B6E"/>
            <stop offset="0.88" stop-color="#634836"/>
            <stop offset="1" stop-color="#42210B"/>
        </radialGradient>
        <linearGradient id="paint25_linear_540_23102" x1="63.6415" y1="46.5161" x2="37.3031" y2="167.709" gradientUnits="userSpaceOnUse">
            <stop stop-color="#BABABA"/>
            <stop offset="0.15" stop-color="#AAAAAA"/>
            <stop offset="0.43" stop-color="#828282"/>
            <stop offset="0.83" stop-color="#414141"/>
            <stop offset="1" stop-color="#222222"/>
        </linearGradient>
        <radialGradient id="paint26_radial_540_23102" cx="0" cy="0" r="1" gradientUnits="userSpaceOnUse" gradientTransform="translate(43.5079 112.616) rotate(180) scale(45.5969 45.946)">
            <stop stop-color="#B3B3B3"/>
            <stop offset="0.21" stop-color="#AEAEAE"/>
            <stop offset="0.45" stop-color="#A0A0A0"/>
            <stop offset="0.71" stop-color="#898989"/>
            <stop offset="0.98" stop-color="#686868"/>
            <stop offset="1" stop-color="#666666"/>
        </radialGradient>
        <radialGradient id="paint27_radial_540_23102" cx="0" cy="0" r="1" gradientUnits="userSpaceOnUse" gradientTransform="translate(64.4218 140.163) rotate(180) scale(5.21741 5.25734)">
            <stop stop-color="#B3B3B3"/>
            <stop offset="0.21" stop-color="#AEAEAE"/>
            <stop offset="0.45" stop-color="#A0A0A0"/>
            <stop offset="0.71" stop-color="#898989"/>
            <stop offset="0.98" stop-color="#686868"/>
            <stop offset="1" stop-color="#666666"/>
        </radialGradient>
        <radialGradient id="paint28_radial_540_23102" cx="0" cy="0" r="1" gradientUnits="userSpaceOnUse" gradientTransform="translate(58.5673 145.327) rotate(180) scale(4.14053 4.17222)">
            <stop stop-color="#B3B3B3"/>
            <stop offset="0.21" stop-color="#AEAEAE"/>
            <stop offset="0.45" stop-color="#A0A0A0"/>
            <stop offset="0.71" stop-color="#898989"/>
            <stop offset="0.98" stop-color="#686868"/>
            <stop offset="1" stop-color="#666666"/>
        </radialGradient>
        <radialGradient id="paint29_radial_540_23102" cx="0" cy="0" r="1" gradientUnits="userSpaceOnUse" gradientTransform="translate(81.4407 132.526) rotate(180) scale(3.27153 3.29657)">
            <stop stop-color="#B3B3B3"/>
            <stop offset="0.21" stop-color="#AEAEAE"/>
            <stop offset="0.45" stop-color="#A0A0A0"/>
            <stop offset="0.71" stop-color="#898989"/>
            <stop offset="0.98" stop-color="#686868"/>
            <stop offset="1" stop-color="#666666"/>
        </radialGradient>
        <radialGradient id="paint30_radial_540_23102" cx="0" cy="0" r="1" gradientUnits="userSpaceOnUse" gradientTransform="translate(76.9014 137.762) rotate(180) scale(2.09242 2.10843)">
            <stop stop-color="#B3B3B3"/>
            <stop offset="0.21" stop-color="#AEAEAE"/>
            <stop offset="0.45" stop-color="#A0A0A0"/>
            <stop offset="0.71" stop-color="#898989"/>
            <stop offset="0.98" stop-color="#686868"/>
            <stop offset="1" stop-color="#666666"/>
        </radialGradient>
        <linearGradient id="paint31_linear_540_23102" x1="43.6171" y1="133.271" x2="41.5009" y2="143.006" gradientUnits="userSpaceOnUse">
            <stop stop-color="#BABABA"/>
            <stop offset="0.15" stop-color="#AAAAAA"/>
            <stop offset="0.43" stop-color="#828282"/>
            <stop offset="0.83" stop-color="#414141"/>
            <stop offset="1" stop-color="#222222"/>
        </linearGradient>
        <linearGradient id="paint32_linear_540_23102" x1="48.9162" y1="133.896" x2="47.6852" y2="139.561" gradientUnits="userSpaceOnUse">
            <stop stop-color="#BABABA"/>
            <stop offset="0.15" stop-color="#AAAAAA"/>
            <stop offset="0.43" stop-color="#828282"/>
            <stop offset="0.83" stop-color="#414141"/>
            <stop offset="1" stop-color="#222222"/>
        </linearGradient>
        <linearGradient id="paint33_linear_540_23102" x1="33.2844" y1="126.832" x2="31.1613" y2="136.599" gradientUnits="userSpaceOnUse">
            <stop stop-color="#BABABA"/>
            <stop offset="0.15" stop-color="#AAAAAA"/>
            <stop offset="0.43" stop-color="#828282"/>
            <stop offset="0.83" stop-color="#414141"/>
            <stop offset="1" stop-color="#222222"/>
        </linearGradient>
        <linearGradient id="paint34_linear_540_23102" x1="38.0029" y1="122.641" x2="37.6747" y2="134.141" gradientUnits="userSpaceOnUse">
            <stop stop-color="#BABABA"/>
            <stop offset="0.15" stop-color="#AAAAAA"/>
            <stop offset="0.43" stop-color="#828282"/>
            <stop offset="0.83" stop-color="#414141"/>
            <stop offset="1" stop-color="#222222"/>
        </linearGradient>
        <linearGradient id="paint35_linear_540_23102" x1="35.7228" y1="114.143" x2="31.95" y2="125.001" gradientUnits="userSpaceOnUse">
            <stop stop-color="#BABABA"/>
            <stop offset="0.15" stop-color="#AAAAAA"/>
            <stop offset="0.43" stop-color="#828282"/>
            <stop offset="0.83" stop-color="#414141"/>
            <stop offset="1" stop-color="#222222"/>
        </linearGradient>
        <radialGradient id="paint36_radial_540_23102" cx="0" cy="0" r="1" gradientUnits="userSpaceOnUse" gradientTransform="translate(70.6037 65.4644) rotate(180) scale(28.8849 29.106)">
            <stop stop-color="#FFE54D"/>
            <stop offset="0.22" stop-color="#FFE14B"/>
            <stop offset="0.43" stop-color="#FFD646"/>
            <stop offset="0.63" stop-color="#FFC33E"/>
            <stop offset="0.82" stop-color="#FEA932"/>
            <stop offset="1" stop-color="#FE8A24"/>
        </radialGradient>
        <radialGradient id="paint37_radial_540_23102" cx="0" cy="0" r="1" gradientUnits="userSpaceOnUse" gradientTransform="translate(70.7536 82.6376) rotate(180) scale(16.1702 16.294)">
            <stop stop-color="white"/>
            <stop offset="0.26" stop-color="#FAFAFA"/>
            <stop offset="0.57" stop-color="#ECECEC"/>
            <stop offset="0.9" stop-color="#D5D5D5"/>
            <stop offset="1" stop-color="#CCCCCC"/>
        </radialGradient>
        <radialGradient id="paint38_radial_540_23102" cx="0" cy="0" r="1" gradientUnits="userSpaceOnUse" gradientTransform="translate(46.4524 106.696) rotate(180) scale(23.9265 24.1096)">
            <stop stop-color="#FE8A24"/>
            <stop offset="0.4" stop-color="#FEAC33"/>
            <stop offset="1" stop-color="#FFE54D"/>
        </radialGradient>
        <linearGradient id="paint39_linear_540_23102" x1="16.1431" y1="43.5593" x2="36.2406" y2="127.113" gradientUnits="userSpaceOnUse">
            <stop stop-color="#BABABA"/>
            <stop offset="0.09" stop-color="#A7A7A7"/>
            <stop offset="0.4" stop-color="#6E6E6E"/>
            <stop offset="0.67" stop-color="#454545"/>
            <stop offset="0.88" stop-color="#2B2B2B"/>
            <stop offset="1" stop-color="#222222"/>
        </linearGradient>
        <radialGradient id="paint40_radial_540_23102" cx="0" cy="0" r="1" gradientUnits="userSpaceOnUse" gradientTransform="translate(31.8632 67.25) rotate(180) scale(45.5254 45.8738)">
            <stop stop-color="white"/>
            <stop offset="0.26" stop-color="#FAFAFA"/>
            <stop offset="0.57" stop-color="#ECECEC"/>
            <stop offset="0.9" stop-color="#D5D5D5"/>
            <stop offset="1" stop-color="#CCCCCC"/>
        </radialGradient>
        <radialGradient id="paint41_radial_540_23102" cx="0" cy="0" r="1" gradientUnits="userSpaceOnUse" gradientTransform="translate(10.5642 108.433) rotate(180) scale(4.57673 4.61176)">
            <stop stop-color="white"/>
            <stop offset="0.26" stop-color="#FAFAFA"/>
            <stop offset="0.57" stop-color="#ECECEC"/>
            <stop offset="0.9" stop-color="#D5D5D5"/>
            <stop offset="1" stop-color="#CCCCCC"/>
        </radialGradient>
        <radialGradient id="paint42_radial_540_23102" cx="0" cy="0" r="1" gradientUnits="userSpaceOnUse" gradientTransform="translate(5.32644 106.74) rotate(180) scale(4.55629 4.59116)">
            <stop stop-color="white"/>
            <stop offset="0.26" stop-color="#FAFAFA"/>
            <stop offset="0.57" stop-color="#ECECEC"/>
            <stop offset="0.9" stop-color="#D5D5D5"/>
            <stop offset="1" stop-color="#CCCCCC"/>
        </radialGradient>
        <radialGradient id="paint43_radial_540_23102" cx="0" cy="0" r="1" gradientUnits="userSpaceOnUse" gradientTransform="translate(54.4743 91.4696) rotate(180) scale(73.0744 73.6337)">
            <stop stop-color="#F2F2F2"/>
            <stop offset="0.1" stop-color="#EEEDEC"/>
            <stop offset="0.23" stop-color="#E2DFDC"/>
            <stop offset="0.38" stop-color="#CEC7C2"/>
            <stop offset="0.54" stop-color="#B2A69D"/>
            <stop offset="0.71" stop-color="#8E7B6E"/>
            <stop offset="0.88" stop-color="#634836"/>
            <stop offset="1" stop-color="#42210B"/>
        </radialGradient>
        <radialGradient id="paint44_radial_540_23102" cx="0" cy="0" r="1" gradientUnits="userSpaceOnUse" gradientTransform="translate(7.0679 56.7836) scale(14.4458 14.5564)">
            <stop stop-color="#9D0001"/>
            <stop offset="0.32" stop-color="#980001"/>
            <stop offset="0.7" stop-color="#8A0002"/>
            <stop offset="1" stop-color="#790002"/>
        </radialGradient>
        <radialGradient id="paint45_radial_540_23102" cx="0" cy="0" r="1" gradientUnits="userSpaceOnUse" gradientTransform="translate(11.3567 55.3717) rotate(-163.964) scale(10.6352 14.6648)">
            <stop stop-color="#F2F2F2"/>
            <stop offset="0.14" stop-color="#EDEDED"/>
            <stop offset="0.31" stop-color="#DFDFDF"/>
            <stop offset="0.49" stop-color="#C7C7C7"/>
            <stop offset="0.59" stop-color="#D8D8D8"/>
            <stop offset="0.7" stop-color="#F2F2F2"/>
        </radialGradient>
        <radialGradient id="paint46_radial_540_23102" cx="0" cy="0" r="1" gradientUnits="userSpaceOnUse" gradientTransform="translate(9.95766 49.8092) scale(5.36053 5.40157)">
            <stop stop-color="#730001"/>
            <stop offset="0.32" stop-color="#6E0001"/>
            <stop offset="0.7" stop-color="#600001"/>
            <stop offset="1" stop-color="#4F0001"/>
        </radialGradient>
        <radialGradient id="paint47_radial_540_23102" cx="0" cy="0" r="1" gradientUnits="userSpaceOnUse" gradientTransform="translate(8.39694 57.0856) rotate(180) scale(4.29729 4.33018)">
            <stop stop-color="#FFE54D"/>
            <stop offset="0.22" stop-color="#FFE14B"/>
            <stop offset="0.43" stop-color="#FFD646"/>
            <stop offset="0.63" stop-color="#FFC33E"/>
            <stop offset="0.82" stop-color="#FEA932"/>
            <stop offset="1" stop-color="#FE8A24"/>
        </radialGradient>
        <radialGradient id="paint48_radial_540_23102" cx="0" cy="0" r="1" gradientUnits="userSpaceOnUse" gradientTransform="translate(2.29012 61.2923) scale(9.63738 9.71115)">
            <stop stop-color="#FB6A00"/>
            <stop offset="1" stop-color="#EB0401"/>
        </radialGradient>
        <radialGradient id="paint49_radial_540_23102" cx="0" cy="0" r="1" gradientUnits="userSpaceOnUse" gradientTransform="translate(2.69564 59.7711) scale(4.83911 4.87618)">
            <stop stop-color="white"/>
            <stop offset="1" stop-color="white" stop-opacity="0"/>
        </radialGradient>
        <radialGradient id="paint50_radial_540_23102" cx="0" cy="0" r="1" gradientUnits="userSpaceOnUse" gradientTransform="translate(2.64453 59.5033) scale(4.83914 4.87617)">
            <stop stop-color="white"/>
            <stop offset="1" stop-color="white" stop-opacity="0"/>
        </radialGradient>
        <radialGradient id="paint51_radial_540_23102" cx="0" cy="0" r="1" gradientUnits="userSpaceOnUse" gradientTransform="translate(37.425 54.9531) scale(14.6265 14.7384)">
            <stop stop-color="#9D0001"/>
            <stop offset="0.32" stop-color="#980001"/>
            <stop offset="0.7" stop-color="#8A0002"/>
            <stop offset="1" stop-color="#790002"/>
        </radialGradient>
        <radialGradient id="paint52_radial_540_23102" cx="0" cy="0" r="1" gradientUnits="userSpaceOnUse" gradientTransform="translate(36.4084 56.4922) rotate(-18.7483) scale(14.3045 19.7032)">
            <stop stop-color="#F2F2F2"/>
            <stop offset="0.14" stop-color="#EDEDED"/>
            <stop offset="0.31" stop-color="#DFDFDF"/>
            <stop offset="0.49" stop-color="#C7C7C7"/>
            <stop offset="0.59" stop-color="#D8D8D8"/>
            <stop offset="0.7" stop-color="#F2F2F2"/>
        </radialGradient>
        <radialGradient id="paint53_radial_540_23102" cx="0" cy="0" r="1" gradientUnits="userSpaceOnUse" gradientTransform="translate(36.5287 51.0146) scale(10.7449 10.8272)">
            <stop stop-color="#730001"/>
            <stop offset="0.32" stop-color="#6E0001"/>
            <stop offset="0.7" stop-color="#600001"/>
            <stop offset="1" stop-color="#4F0001"/>
        </radialGradient>
        <radialGradient id="paint54_radial_540_23102" cx="0" cy="0" r="1" gradientUnits="userSpaceOnUse" gradientTransform="translate(38.2971 56.9876) rotate(-180) scale(4.58014 4.6152)">
            <stop stop-color="#FFE54D"/>
            <stop offset="0.22" stop-color="#FFE14B"/>
            <stop offset="0.43" stop-color="#FFD646"/>
            <stop offset="0.63" stop-color="#FFC33E"/>
            <stop offset="0.82" stop-color="#FEA932"/>
            <stop offset="1" stop-color="#FE8A24"/>
        </radialGradient>
        <radialGradient id="paint55_radial_540_23102" cx="0" cy="0" r="1" gradientUnits="userSpaceOnUse" gradientTransform="translate(39.7048 61.0279) scale(12.9157 13.0146)">
            <stop stop-color="#9D0001"/>
            <stop offset="0.32" stop-color="#980001"/>
            <stop offset="0.7" stop-color="#8A0002"/>
            <stop offset="1" stop-color="#790002"/>
        </radialGradient>
        <radialGradient id="paint56_radial_540_23102" cx="0" cy="0" r="1" gradientUnits="userSpaceOnUse" gradientTransform="translate(33.3834 62.8788) scale(16.845 16.9739)">
            <stop stop-color="#FB6A00"/>
            <stop offset="1" stop-color="#EB0401"/>
        </radialGradient>
        <radialGradient id="paint57_radial_540_23102" cx="0" cy="0" r="1" gradientUnits="userSpaceOnUse" gradientTransform="translate(37.4249 58.8576) scale(10.1963 10.2743)">
            <stop stop-color="white"/>
            <stop offset="1" stop-color="white" stop-opacity="0"/>
        </radialGradient>
        <radialGradient id="paint58_radial_540_23102" cx="0" cy="0" r="1" gradientUnits="userSpaceOnUse" gradientTransform="translate(18.4194 67.1884) scale(23.8106 23.9929)">
            <stop stop-color="#730001"/>
            <stop offset="0.32" stop-color="#6E0001"/>
            <stop offset="0.7" stop-color="#600001"/>
            <stop offset="1" stop-color="#4F0001"/>
        </radialGradient>
        <radialGradient id="paint59_radial_540_23102" cx="0" cy="0" r="1" gradientUnits="userSpaceOnUse" gradientTransform="translate(15.475 71.9855) scale(23.3676 23.5464)">
            <stop stop-color="#F12A05"/>
            <stop offset="1" stop-color="#4F0001"/>
        </radialGradient>
        <radialGradient id="paint60_radial_540_23102" cx="0" cy="0" r="1" gradientUnits="userSpaceOnUse" gradientTransform="translate(4.73683 73.3659) scale(20.0893 20.243)">
            <stop stop-color="#FB6A00"/>
            <stop offset="1" stop-color="#EB0401"/>
        </radialGradient>
        <radialGradient id="paint61_radial_540_23102" cx="0" cy="0" r="1" gradientUnits="userSpaceOnUse" gradientTransform="translate(21.0944 74.2518) scale(17.1517 17.283)">
            <stop stop-color="#FB6A00"/>
            <stop offset="1" stop-color="#EB0401"/>
        </radialGradient>
        <radialGradient id="paint62_radial_540_23102" cx="0" cy="0" r="1" gradientUnits="userSpaceOnUse" gradientTransform="translate(9.43281 59.3485) scale(26.5266 26.7297)">
            <stop stop-color="#FB6A00"/>
            <stop offset="1" stop-color="#EB0401"/>
        </radialGradient>
        <radialGradient id="paint63_radial_540_23102" cx="0" cy="0" r="1" gradientUnits="userSpaceOnUse" gradientTransform="translate(14.7527 71.1477) scale(24.8738 25.0642)">
            <stop stop-color="#FED501"/>
            <stop offset="0.48" stop-color="#FD7902"/>
            <stop offset="1" stop-color="#E06F01"/>
        </radialGradient>
        <radialGradient id="paint64_radial_540_23102" cx="0" cy="0" r="1" gradientUnits="userSpaceOnUse" gradientTransform="translate(12.984 72.0714) scale(20.5731 20.7306)">
            <stop stop-color="#FED501"/>
            <stop offset="0.48" stop-color="#FD7902"/>
            <stop offset="1" stop-color="#E06F01"/>
        </radialGradient>
        <radialGradient id="paint65_radial_540_23102" cx="0" cy="0" r="1" gradientUnits="userSpaceOnUse" gradientTransform="translate(15.6624 62.0821) scale(24.85 25.0402)">
            <stop offset="0.07" stop-color="#FED501"/>
            <stop offset="0.79" stop-color="#FD7902"/>
            <stop offset="1" stop-color="#E06F01"/>
        </radialGradient>
        <radialGradient id="paint66_radial_540_23102" cx="0" cy="0" r="1" gradientUnits="userSpaceOnUse" gradientTransform="translate(12.367 65.1383) scale(21.875 22.0424)">
            <stop stop-color="#FED501"/>
            <stop offset="0.08" stop-color="#FEC401"/>
            <stop offset="0.28" stop-color="#FD9B02"/>
            <stop offset="0.44" stop-color="#FD8202"/>
            <stop offset="0.54" stop-color="#FD7902"/>
            <stop offset="1" stop-color="#E06F01"/>
        </radialGradient>
        <radialGradient id="paint67_radial_540_23102" cx="0" cy="0" r="1" gradientUnits="userSpaceOnUse" gradientTransform="translate(21.6399 78.7468) scale(8.91831 8.98659)">
            <stop stop-color="white"/>
            <stop offset="1" stop-color="white" stop-opacity="0"/>
        </radialGradient>
        <radialGradient id="paint68_radial_540_23102" cx="0" cy="0" r="1" gradientUnits="userSpaceOnUse" gradientTransform="translate(3.78608 76.3259) scale(10.7313 10.8134)">
            <stop stop-color="white"/>
            <stop offset="1" stop-color="white" stop-opacity="0"/>
        </radialGradient>
        <radialGradient id="paint69_radial_540_23102" cx="0" cy="0" r="1" gradientUnits="userSpaceOnUse" gradientTransform="translate(10.4315 61.9996) scale(6.94518 6.99834)">
            <stop stop-color="white"/>
            <stop offset="1" stop-color="white" stop-opacity="0"/>
        </radialGradient>
        <radialGradient id="paint70_radial_540_23102" cx="0" cy="0" r="1" gradientUnits="userSpaceOnUse" gradientTransform="translate(20.8322 61.5635) rotate(180) scale(10.4893 10.5696)">
            <stop stop-color="#730001"/>
            <stop offset="0.32" stop-color="#6E0001"/>
            <stop offset="0.7" stop-color="#600001"/>
            <stop offset="1" stop-color="#4F0001"/>
        </radialGradient>
        <radialGradient id="paint71_radial_540_23102" cx="0" cy="0" r="1" gradientUnits="userSpaceOnUse" gradientTransform="translate(19.8302 58.4317) rotate(180) scale(3.38058 3.40645)">
            <stop stop-color="#FB6A00"/>
            <stop offset="1" stop-color="#EB0401"/>
        </radialGradient>
        <radialGradient id="paint72_radial_540_23102" cx="0" cy="0" r="1" gradientUnits="userSpaceOnUse" gradientTransform="translate(18.2217 58.315) rotate(180) scale(1.45174 1.46285)">
            <stop stop-color="#730001"/>
            <stop offset="0.32" stop-color="#6E0001"/>
            <stop offset="0.7" stop-color="#600001"/>
            <stop offset="1" stop-color="#4F0001"/>
        </radialGradient>
        <radialGradient id="paint73_radial_540_23102" cx="0" cy="0" r="1" gradientUnits="userSpaceOnUse" gradientTransform="translate(13.2837 58.3769) rotate(180) scale(0.943969 0.951197)">
            <stop stop-color="#730001"/>
            <stop offset="0.32" stop-color="#6E0001"/>
            <stop offset="0.7" stop-color="#600001"/>
            <stop offset="1" stop-color="#4F0001"/>
        </radialGradient>
        <linearGradient id="paint74_linear_540_23102" x1="40.3182" y1="77.885" x2="42.9908" y2="89.0052" gradientUnits="userSpaceOnUse">
            <stop stop-color="#BABABA"/>
            <stop offset="0.09" stop-color="#A7A7A7"/>
            <stop offset="0.4" stop-color="#6E6E6E"/>
            <stop offset="0.67" stop-color="#454545"/>
            <stop offset="0.88" stop-color="#2B2B2B"/>
            <stop offset="1" stop-color="#222222"/>
        </linearGradient>
        <linearGradient id="paint75_linear_540_23102" x1="33.9592" y1="79.8183" x2="37.6828" y2="95.2994" gradientUnits="userSpaceOnUse">
            <stop stop-color="#BABABA"/>
            <stop offset="0.09" stop-color="#A7A7A7"/>
            <stop offset="0.4" stop-color="#6E6E6E"/>
            <stop offset="0.67" stop-color="#454545"/>
            <stop offset="0.88" stop-color="#2B2B2B"/>
            <stop offset="1" stop-color="#222222"/>
        </linearGradient>
        <linearGradient id="paint76_linear_540_23102" x1="23.5687" y1="89.9826" x2="26.383" y2="101.679" gradientUnits="userSpaceOnUse">
            <stop stop-color="#BABABA"/>
            <stop offset="0.09" stop-color="#A7A7A7"/>
            <stop offset="0.4" stop-color="#6E6E6E"/>
            <stop offset="0.67" stop-color="#454545"/>
            <stop offset="0.88" stop-color="#2B2B2B"/>
            <stop offset="1" stop-color="#222222"/>
        </linearGradient>
        <linearGradient id="paint77_linear_540_23102" x1="12.9089" y1="90.4634" x2="14.8761" y2="98.6431" gradientUnits="userSpaceOnUse">
            <stop stop-color="#BABABA"/>
            <stop offset="0.09" stop-color="#A7A7A7"/>
            <stop offset="0.4" stop-color="#6E6E6E"/>
            <stop offset="0.67" stop-color="#454545"/>
            <stop offset="0.88" stop-color="#2B2B2B"/>
            <stop offset="1" stop-color="#222222"/>
        </linearGradient>
        <linearGradient id="paint78_linear_540_23102" x1="3.72811" y1="85.0207" x2="7.22002" y2="99.541" gradientUnits="userSpaceOnUse">
            <stop stop-color="#BABABA"/>
            <stop offset="0.09" stop-color="#A7A7A7"/>
            <stop offset="0.4" stop-color="#6E6E6E"/>
            <stop offset="0.67" stop-color="#454545"/>
            <stop offset="0.88" stop-color="#2B2B2B"/>
            <stop offset="1" stop-color="#222222"/>
        </linearGradient>
        <linearGradient id="paint79_linear_540_23102" x1="1.77556" y1="84.0387" x2="3.37976" y2="90.7121" gradientUnits="userSpaceOnUse">
            <stop stop-color="#BABABA"/>
            <stop offset="0.09" stop-color="#A7A7A7"/>
            <stop offset="0.4" stop-color="#6E6E6E"/>
            <stop offset="0.67" stop-color="#454545"/>
            <stop offset="0.88" stop-color="#2B2B2B"/>
            <stop offset="1" stop-color="#222222"/>
        </linearGradient>
        <radialGradient id="paint80_radial_540_23102" cx="0" cy="0" r="1" gradientUnits="userSpaceOnUse" gradientTransform="translate(28.6804 104.388) rotate(180) scale(5.10496 5.14402)">
            <stop stop-color="white"/>
            <stop offset="0.26" stop-color="#FAFAFA"/>
            <stop offset="0.57" stop-color="#ECECEC"/>
            <stop offset="0.9" stop-color="#D5D5D5"/>
            <stop offset="1" stop-color="#CCCCCC"/>
        </radialGradient>
        <radialGradient id="paint81_radial_540_23102" cx="0" cy="0" r="1" gradientUnits="userSpaceOnUse" gradientTransform="translate(50.5349 89.2581) rotate(180) scale(3.59187 3.61935)">
            <stop stop-color="white"/>
            <stop offset="0.26" stop-color="#FAFAFA"/>
            <stop offset="0.57" stop-color="#ECECEC"/>
            <stop offset="0.9" stop-color="#D5D5D5"/>
            <stop offset="1" stop-color="#CCCCCC"/>
        </radialGradient>
        <linearGradient id="paint82_linear_540_23102" x1="52.5661" y1="114.288" x2="50.6988" y2="122.877" gradientUnits="userSpaceOnUse">
            <stop stop-color="#BABABA"/>
            <stop offset="0.15" stop-color="#AAAAAA"/>
            <stop offset="0.43" stop-color="#828282"/>
            <stop offset="0.83" stop-color="#414141"/>
            <stop offset="1" stop-color="#222222"/>
        </linearGradient>
        <linearGradient id="paint83_linear_540_23102" x1="51.9117" y1="123.776" x2="50.6046" y2="129.788" gradientUnits="userSpaceOnUse">
            <stop stop-color="#BABABA"/>
            <stop offset="0.15" stop-color="#AAAAAA"/>
            <stop offset="0.43" stop-color="#828282"/>
            <stop offset="0.83" stop-color="#414141"/>
            <stop offset="1" stop-color="#222222"/>
        </linearGradient>
        <linearGradient id="paint84_linear_540_23102" x1="44.182" y1="118.641" x2="39.0232" y2="121.944" gradientUnits="userSpaceOnUse">
            <stop stop-color="#BABABA"/>
            <stop offset="0.15" stop-color="#AAAAAA"/>
            <stop offset="0.43" stop-color="#828282"/>
            <stop offset="0.83" stop-color="#414141"/>
            <stop offset="1" stop-color="#222222"/>
        </linearGradient>
        <radialGradient id="paint85_radial_540_23102" cx="0" cy="0" r="1" gradientUnits="userSpaceOnUse" gradientTransform="translate(68.985 126.111) rotate(180) scale(6.32496 6.37337)">
            <stop stop-color="#B3B3B3"/>
            <stop offset="0.21" stop-color="#AEAEAE"/>
            <stop offset="0.45" stop-color="#A0A0A0"/>
            <stop offset="0.71" stop-color="#898989"/>
            <stop offset="0.98" stop-color="#686868"/>
            <stop offset="1" stop-color="#666666"/>
        </radialGradient>
        <radialGradient id="paint86_radial_540_23102" cx="0" cy="0" r="1" gradientUnits="userSpaceOnUse" gradientTransform="translate(68.3851 132.598) rotate(180) scale(5.09132 5.1303)">
            <stop stop-color="#B3B3B3"/>
            <stop offset="0.21" stop-color="#AEAEAE"/>
            <stop offset="0.45" stop-color="#A0A0A0"/>
            <stop offset="0.71" stop-color="#898989"/>
            <stop offset="0.98" stop-color="#686868"/>
            <stop offset="1" stop-color="#666666"/>
        </radialGradient>
        <radialGradient id="paint87_radial_540_23102" cx="0" cy="0" r="1" gradientUnits="userSpaceOnUse" gradientTransform="translate(85.1893 119.597) rotate(180) scale(3.57142 3.59876)">
            <stop stop-color="#B3B3B3"/>
            <stop offset="0.21" stop-color="#AEAEAE"/>
            <stop offset="0.45" stop-color="#A0A0A0"/>
            <stop offset="0.71" stop-color="#898989"/>
            <stop offset="0.98" stop-color="#686868"/>
            <stop offset="1" stop-color="#666666"/>
        </radialGradient>
        <radialGradient id="paint88_radial_540_23102" cx="0" cy="0" r="1" gradientUnits="userSpaceOnUse" gradientTransform="translate(80.6159 126.238) rotate(180) scale(3.14544 3.16952)">
            <stop stop-color="#B3B3B3"/>
            <stop offset="0.21" stop-color="#AEAEAE"/>
            <stop offset="0.45" stop-color="#A0A0A0"/>
            <stop offset="0.71" stop-color="#898989"/>
            <stop offset="0.98" stop-color="#686868"/>
            <stop offset="1" stop-color="#666666"/>
        </radialGradient>
        <radialGradient id="paint89_radial_540_23102" cx="0" cy="0" r="1" gradientUnits="userSpaceOnUse" gradientTransform="translate(62.0535 106.338) rotate(180) scale(2.73991 2.76088)">
            <stop stop-color="#B3B3B3"/>
            <stop offset="0.21" stop-color="#AEAEAE"/>
            <stop offset="0.45" stop-color="#A0A0A0"/>
            <stop offset="0.71" stop-color="#898989"/>
            <stop offset="0.98" stop-color="#686868"/>
            <stop offset="1" stop-color="#666666"/>
        </radialGradient>
        <radialGradient id="paint90_radial_540_23102" cx="0" cy="0" r="1" gradientUnits="userSpaceOnUse" gradientTransform="translate(58.2911 113.1) rotate(180) scale(2.4775 2.49646)">
            <stop stop-color="#B3B3B3"/>
            <stop offset="0.21" stop-color="#AEAEAE"/>
            <stop offset="0.45" stop-color="#A0A0A0"/>
            <stop offset="0.71" stop-color="#898989"/>
            <stop offset="0.98" stop-color="#686868"/>
            <stop offset="1" stop-color="#666666"/>
        </radialGradient>
        <linearGradient id="paint91_linear_540_23102" x1="92.6354" y1="77.9881" x2="95.9821" y2="91.908" gradientUnits="userSpaceOnUse">
            <stop stop-color="#006837"/>
            <stop offset="0.41" stop-color="#11452C"/>
            <stop offset="0.78" stop-color="#1D2B25"/>
            <stop offset="1" stop-color="#222222"/>
        </linearGradient>
        <linearGradient id="paint92_linear_540_23102" x1="94.9561" y1="73.3076" x2="101.515" y2="100.588" gradientUnits="userSpaceOnUse">
            <stop stop-color="#006837"/>
            <stop offset="0.41" stop-color="#11452C"/>
            <stop offset="0.78" stop-color="#1D2B25"/>
            <stop offset="1" stop-color="#222222"/>
        </linearGradient>
        <linearGradient id="paint93_linear_540_23102" x1="98.1391" y1="70.1724" x2="106.699" y2="105.76" gradientUnits="userSpaceOnUse">
            <stop stop-color="#006837"/>
            <stop offset="0.41" stop-color="#11452C"/>
            <stop offset="0.78" stop-color="#1D2B25"/>
            <stop offset="1" stop-color="#222222"/>
        </linearGradient>
        <linearGradient id="paint94_linear_540_23102" x1="96.6907" y1="81.8032" x2="103.578" y2="110.432" gradientUnits="userSpaceOnUse">
            <stop stop-color="#006837"/>
            <stop offset="0.41" stop-color="#11452C"/>
            <stop offset="0.78" stop-color="#1D2B25"/>
            <stop offset="1" stop-color="#222222"/>
        </linearGradient>
        <linearGradient id="paint95_linear_540_23102" x1="88.0688" y1="74.1111" x2="75.2471" y2="133.11" gradientUnits="userSpaceOnUse">
            <stop stop-color="#BABABA"/>
            <stop offset="0.15" stop-color="#AAAAAA"/>
            <stop offset="0.43" stop-color="#828282"/>
            <stop offset="0.83" stop-color="#414141"/>
            <stop offset="1" stop-color="#222222"/>
        </linearGradient>
        <radialGradient id="paint96_radial_540_23102" cx="0" cy="0" r="1" gradientUnits="userSpaceOnUse" gradientTransform="translate(81.8359 98.8595) rotate(180) scale(22.9246 23.1)">
            <stop stop-color="#B3B3B3"/>
            <stop offset="0.21" stop-color="#AEAEAE"/>
            <stop offset="0.45" stop-color="#A0A0A0"/>
            <stop offset="0.71" stop-color="#898989"/>
            <stop offset="0.98" stop-color="#686868"/>
            <stop offset="1" stop-color="#666666"/>
        </radialGradient>
        <radialGradient id="paint97_radial_540_23102" cx="0" cy="0" r="1" gradientUnits="userSpaceOnUse" gradientTransform="translate(73.2141 94.718) rotate(180) scale(13.1611 13.2618)">
            <stop stop-color="#FFE54D"/>
            <stop offset="0.22" stop-color="#FFE14B"/>
            <stop offset="0.43" stop-color="#FFD646"/>
            <stop offset="0.63" stop-color="#FFC33E"/>
            <stop offset="0.82" stop-color="#FEA932"/>
            <stop offset="1" stop-color="#FE8A24"/>
        </radialGradient>
        <radialGradient id="paint98_radial_540_23102" cx="0" cy="0" r="1" gradientUnits="userSpaceOnUse" gradientTransform="translate(24.8943 137.725) rotate(180) scale(9.84185 9.91718)">
            <stop stop-color="white"/>
            <stop offset="1" stop-color="white" stop-opacity="0"/>
        </radialGradient>
        <radialGradient id="paint99_radial_540_23102" cx="0" cy="0" r="1" gradientUnits="userSpaceOnUse" gradientTransform="translate(8.13453 101.943) rotate(180) scale(25.3475 25.5416)">
            <stop stop-color="white"/>
            <stop offset="1" stop-color="white" stop-opacity="0"/>
        </radialGradient>
        <radialGradient id="paint100_radial_540_23102" cx="0" cy="0" r="1" gradientUnits="userSpaceOnUse" gradientTransform="translate(35.3061 22.5288) rotate(175.809) scale(29.532 26.8886)">
            <stop stop-color="#FB6A00"/>
            <stop offset="1" stop-color="#EB0401"/>
        </radialGradient>
        <radialGradient id="paint101_radial_540_23102" cx="0" cy="0" r="1" gradientUnits="userSpaceOnUse" gradientTransform="translate(39.1608 45.9164) rotate(175.809) scale(31.4038 28.5929)">
            <stop stop-color="#BE5000"/>
            <stop offset="1" stop-color="#AE0301"/>
        </radialGradient>
        <radialGradient id="paint102_radial_540_23102" cx="0" cy="0" r="1" gradientUnits="userSpaceOnUse" gradientTransform="translate(13.8924 25.7657) rotate(175.809) scale(16.4029 14.9347)">
            <stop stop-color="white"/>
            <stop offset="1" stop-color="white" stop-opacity="0"/>
        </radialGradient>
        <radialGradient id="paint103_radial_540_23102" cx="0" cy="0" r="1" gradientUnits="userSpaceOnUse" gradientTransform="translate(27.5046 28.0659) rotate(175.809) scale(12.1105 11.0265)">
            <stop stop-color="white"/>
            <stop offset="1" stop-color="white" stop-opacity="0"/>
        </radialGradient>
        <clipPath id="clip0_540_23102">
            <rect width="118" height="170" fill="white" transform="matrix(-1 0 0 1 118 0)"/>
        </clipPath>
    </defs>
</svg>
