<svg width="117" height="171" viewBox="0 0 117 171" fill="none" xmlns="http://www.w3.org/2000/svg">
    <g clip-path="url(#clip0_540_23275)">
        <path d="M97.9106 80.9859C97.9429 80.9499 97.9734 80.9123 98.0019 80.8732C98.385 80.3852 98.7371 79.8736 99.0562 79.3414C99.7412 78.2398 100.357 77.0967 100.901 75.9187C101.719 74.1511 102.424 72.3328 103.01 70.4749C103.797 67.9875 104.423 65.4515 104.883 62.883C105.464 59.6237 105.836 56.3305 105.997 53.0234C106.095 51.0832 106.13 49.15 106.113 47.1957C106.113 46.7063 105.828 41.0652 105.972 41.0617C105.132 41.1028 104.29 41.0804 103.453 40.9948C104.036 40.7553 105.305 40.9948 105.719 40.4877C105.941 40.2166 105.758 39.5757 105.719 39.2553C105.677 38.7552 105.631 38.2587 105.586 37.7587C105.487 36.7305 105.37 35.7035 105.234 34.6776C104.97 32.4944 104.652 30.3183 104.282 28.1492C103.14 34.9311 101.323 52.3966 93.574 74.5701C93.1277 78.5315 97.9106 80.9859 97.9106 80.9859Z" fill="url(#paint0_radial_540_23275)"/>
        <path d="M66.9361 72.5593C66.9361 72.5593 71.4449 47.3364 71.9931 30.8674C74.5233 35.9345 75.4862 57.8439 74.5831 67.9077C73.6202 73.746 71.4413 75.5418 69.4593 74.4925C67.4773 73.4431 66.9361 72.5593 66.9361 72.5593Z" fill="url(#paint1_radial_540_23275)"/>
        <path d="M108.612 20.8495C110.27 21.4129 110.661 26.1314 109.49 29.5647C109.525 29.459 109.265 29.0118 109.223 28.8991C109.128 28.6491 109.037 28.3956 108.942 28.1421C108.745 27.6174 108.545 27.0857 108.302 26.5857C108.088 26.1385 107.761 25.8004 107.86 25.3039C107.94 24.6947 107.962 24.0793 107.926 23.4658C107.963 23.1569 107.892 22.8448 107.726 22.582L107.751 23.1313C107.813 23.7043 107.753 24.2841 107.575 24.8321C107.543 24.9095 107.491 24.9941 107.406 24.9941C107.363 24.987 107.323 24.9674 107.29 24.9377C106.588 24.4095 106.004 23.7722 105.182 23.413C104.297 23.0344 103.355 22.8059 102.395 22.7369C101.808 20.2932 106.995 20.3002 108.612 20.8495Z" fill="url(#paint2_radial_540_23275)"/>
        <path d="M99.573 12.1484C99.9494 12.1614 100.306 12.3205 100.568 12.592C100.838 12.8667 101.168 13.3315 100.634 13.5146C100.19 13.6504 99.7352 13.7459 99.2743 13.7998C99.9314 13.7998 100.585 13.7998 101.239 13.7365C101.466 15.271 101.422 16.8336 101.109 18.3529C101.109 18.3529 99.9385 14.1062 94.9658 13.8139C95.5719 13.2248 96.2962 12.7716 97.0905 12.4844C97.8849 12.1972 98.7311 12.0827 99.573 12.1484Z" fill="url(#paint3_radial_540_23275)"/>
        <path d="M66.1418 72.8058C66.1418 72.8058 74.2246 79.1018 78.0727 69.7846C81.2707 62.0378 83.7201 46.3399 83.6323 35.0014C83.6348 32.9158 83.5093 30.8319 83.2562 28.7617C81.8294 17.874 82.8064 8.3947 85.5862 5.28541C81.6678 5.2009 72.9349 12.3103 73.5077 28.6526C73.6683 33.8841 73.4427 39.1205 72.833 44.3187C71.5538 55.5797 68.8162 66.1647 66.1418 72.8058Z" fill="url(#paint4_radial_540_23275)"/>
        <path d="M80.5608 11.5569C80.5608 11.5569 78.888 21.2932 83.6323 34.998C83.6348 32.9124 83.5093 30.8285 83.2562 28.7583C81.8294 17.8705 82.8064 8.39128 85.5862 5.28199C81.6678 5.19748 72.9349 12.3069 73.5077 28.6492C73.6683 33.8807 73.4427 39.117 72.833 44.3153C76.1188 27.5435 73.5604 19.0748 80.5608 11.5569Z" fill="url(#paint5_radial_540_23275)"/>
        <path d="M86.1484 148.591L87.0762 155.929C87.3638 155.681 87.6998 155.496 88.0628 155.385C88.4258 155.274 88.8079 155.24 89.1847 155.285C90.5904 155.366 88.9598 157.672 87.9723 158.454C86.9848 159.236 88.0391 165.556 87.656 167.32C87.273 169.085 85.2558 169.785 84.7849 168.377C84.314 166.968 85.1644 161.334 85.1644 161.334C85.1644 161.334 82.8872 169.659 81.102 169.637C79.3167 169.616 78.7439 168.458 79.4222 166.961C80.1004 165.465 83.4635 160.623 83.4635 160.623C83.4635 160.623 78.5084 167.025 77.1555 166.514C75.8025 166.004 76.1715 164.289 76.6389 163.426C77.1063 162.563 82.4585 158.848 82.4585 158.848L79.9141 152.827C79.9141 152.827 82.7958 148.897 86.1484 148.591Z" fill="url(#paint6_radial_540_23275)"/>
        <path d="M85.769 149.922C85.769 149.922 86.7951 155.45 86.521 156.193C86.2469 156.936 84.5038 157.739 84.5038 157.739C84.5038 157.739 85.9587 157.641 86.7108 157.063C86.7881 158.197 86.9568 162.282 86.9884 164.282C87.0201 166.282 87.4699 167.486 85.4597 168.102C84.4054 167.299 85.2032 160.355 85.2032 160.355C85.2032 160.355 85.4808 159.144 85.0521 160.003C84.6233 160.862 83.2949 167.63 81.2532 168.278C79.2114 168.926 79.3028 167.666 79.9529 166.085C80.603 164.503 83.6393 159.693 83.6393 159.693C83.6393 159.693 78.4101 166.472 76.6319 165.232C76.2524 164.708 76.6776 163.218 76.6776 163.218L82.3777 158.595L81.6749 155.735C81.6749 155.735 82.8768 156.292 84.9256 154C82.7959 154.809 81.3726 154.926 81.0775 153.785C80.7823 152.644 81.8646 151.633 85.769 149.922Z" fill="url(#paint7_radial_540_23275)"/>
        <path d="M86.1204 165.845C87.0833 165.704 86.6721 168.958 85.7514 169.637C84.5073 168.07 85.1926 165.979 86.1204 165.845Z" fill="url(#paint8_radial_540_23275)"/>
        <path d="M80.9682 166.229C81.9206 166.437 80.3919 169.335 79.2955 169.648C78.677 167.743 80.0545 166.028 80.9682 166.229Z" fill="url(#paint9_radial_540_23275)"/>
        <path d="M78.0622 162.489C78.9654 162.841 76.9763 165.457 75.8412 165.581C75.5531 163.602 77.1942 162.14 78.0622 162.489Z" fill="url(#paint10_radial_540_23275)"/>
        <path d="M43.4221 152.855L40.6107 159.7C40.9814 159.627 41.3633 159.632 41.7322 159.713C42.1011 159.795 42.4492 159.953 42.7544 160.176C43.9422 160.947 41.3803 162.141 40.1468 162.32C38.9133 162.5 36.7099 168.532 35.5045 169.877C34.2991 171.222 32.2081 170.824 32.4893 169.373C32.7704 167.923 36.2882 163.429 36.2882 163.429C36.2882 163.429 30.212 169.546 28.6693 168.648C27.1265 167.75 27.1968 166.454 28.5252 165.479C29.8536 164.503 35.1531 161.958 35.1531 161.958C35.1531 161.958 27.6958 165.077 26.7681 163.961C25.8403 162.845 26.7364 161.736 27.5728 161.215C28.4092 160.693 35.1636 159.947 35.1636 159.947L35.9051 153.443C35.9051 153.443 40.3542 151.468 43.4221 152.855Z" fill="url(#paint11_radial_540_23275)"/>
        <path d="M42.4385 153.82C42.4385 153.82 40.6075 159.137 40.0031 159.647C39.3986 160.158 37.4904 160 37.4904 160C37.4904 160 38.8047 160.63 39.7395 160.5C39.2475 161.524 37.385 165.162 36.4291 166.915C35.4732 168.669 35.2694 169.944 33.2171 169.486C32.711 168.271 36.9914 162.373 36.9914 162.373C36.9914 162.373 37.6591 161.588 36.8613 162.13C36.0636 162.672 31.59 168.021 29.4639 167.567C27.3377 167.113 28.0582 166.07 29.4147 165.017C30.7712 163.965 35.7684 161.281 35.7684 161.281C35.7684 161.281 27.6294 164.51 26.6981 162.563C26.4275 161.088 29.0562 160.852 29.0562 160.852L35.1921 159.795L36.032 156.876C36.032 156.876 36.8016 157.957 39.7149 156.978C37.4623 156.626 36.1691 156.024 36.4748 154.887C36.7805 153.749 38.1968 153.387 42.4385 153.82Z" fill="url(#paint12_radial_540_23275)"/>
        <path d="M34.5521 167.412C35.5221 167.511 34.3343 170.581 33.28 171C32.4506 169.18 33.6244 167.317 34.5521 167.412Z" fill="url(#paint13_radial_540_23275)"/>
        <path d="M29.822 165.768C30.69 166.215 28.469 168.623 27.3269 168.641C27.2215 166.637 28.9926 165.331 29.822 165.768Z" fill="url(#paint14_radial_540_23275)"/>
        <path d="M29.0385 161.507C29.6183 162.292 26.5785 163.479 25.5242 162.993C26.3149 161.151 28.4867 160.757 29.0385 161.507Z" fill="url(#paint15_radial_540_23275)"/>
        <path d="M87.9372 78.1828C91.5885 72.996 93.1137 61.7209 93.7146 50.4352C94.2418 40.5932 94.0661 30.7478 93.9958 24.8849C93.8341 12.2963 99.5764 12.1484 99.5764 12.1484C98.7376 12.011 97.9367 11.6991 97.2254 11.2329C96.5225 10.7927 95.8197 10.2751 95.1168 9.82437C93.4335 8.70461 91.7572 7.98275 89.7189 9.89832C85.9903 13.3949 82.7502 29.7055 82.5147 34.1951C82.7924 34.2268 83.0911 34.2796 83.4144 34.3359C84.9396 34.5824 86.7002 34.9698 86.7002 34.9698C86.7002 34.9698 85.3683 35.1212 83.2211 35.2937C82.9962 35.3149 82.7607 35.3254 82.5182 35.3465C82.387 37.7645 82.2043 40.112 81.97 42.3891C80.9933 52.0367 79.0987 61.5687 76.3121 70.8551C75.5389 73.4819 80.8103 78.1054 87.9372 78.1828Z" fill="url(#paint16_radial_540_23275)"/>
        <path d="M93.0084 52.5762C93.2649 51.9001 93.5004 51.1677 93.7112 50.4352C94.2384 40.5933 94.0626 30.7478 93.9924 24.8849C93.8307 12.2963 99.573 12.1484 99.573 12.1484C98.7341 12.011 97.9333 11.6991 97.222 11.2329C96.9549 11.2329 93.0049 11.3738 92.4566 19.7966C91.9014 28.5118 93.5004 45.0266 93.0084 52.5762Z" fill="url(#paint17_radial_540_23275)"/>
        <path d="M82.5183 34.1916C82.7959 34.2233 83.0946 34.2762 83.4179 34.3325C84.2789 29.9943 85.4597 24.7546 86.767 20.9517C89.4413 13.1732 90.7627 9.29978 95.1204 9.83853C93.437 8.71877 91.7607 7.99691 89.7225 9.91248C85.9938 13.395 82.7537 29.7055 82.5183 34.1916Z" fill="url(#paint18_radial_540_23275)"/>
        <path d="M81.97 42.3997C81.97 42.3997 82.4409 39.3433 83.2246 35.2903C82.9997 35.3114 82.7642 35.322 82.5218 35.3431C82.3882 37.761 82.2043 40.1132 81.97 42.3997Z" fill="url(#paint19_radial_540_23275)"/>
        <path d="M87.9057 77.2991C87.6913 79.3661 92.1474 83.4754 99.5765 86.1446C106.053 76.6547 104.518 54.4179 102.894 41.2695C102.131 35.1706 101.358 31.0296 101.358 31.0296L100.48 30.8676L98.2587 30.4697C98.2587 30.4697 99.0951 30.4697 100.395 30.3711C100.694 30.35 101.017 30.3289 101.358 30.2972C100.019 20.2475 108.608 20.8496 108.608 20.8496C108.327 20.4517 107.202 20.001 105.73 19.7651C104.378 19.539 103 19.5093 101.639 19.677C97.9565 20.163 94.1751 22.2828 94.0381 28.0823C93.9291 32.4909 93.1876 38.7412 92.2212 45.6887C90.7944 55.9567 88.8932 67.7354 87.9057 77.2991Z" fill="url(#paint20_radial_540_23275)"/>
        <path d="M64.3321 72.5595C64.5324 71.7003 64.6836 70.834 64.8628 69.9678C65.3313 67.4677 65.7296 64.9535 66.0576 62.4253C66.2755 60.7233 66.4629 59.0178 66.6199 57.3088C66.757 56.4428 66.8088 55.5653 66.7745 54.689C66.6704 53.9835 66.7935 53.2632 67.126 52.6326C67.1354 52.6035 67.1515 52.5769 67.1728 52.5549C67.1941 52.5329 67.2202 52.5162 67.249 52.5058C67.2791 52.5047 67.3092 52.5102 67.337 52.5217C67.3649 52.5332 67.39 52.5506 67.4106 52.5727C67.8558 52.9249 68.2892 53.2911 68.7109 53.6714C68.8269 53.777 68.9534 53.9284 68.8901 54.0728C68.5598 53.6045 68.2119 53.1502 67.8534 52.703C67.6039 52.3967 67.1506 52.0305 67.0241 51.6466C66.8975 51.2628 67.0662 50.4987 67.0803 50.048C67.0967 49.4987 67.1107 48.9493 67.1224 48.4C67.1576 46.1394 67.1224 43.8787 67.0065 41.6216C71.575 53.0833 72.1584 61.5485 70.2466 70.1826C68.3349 78.8168 64.3321 72.5595 64.3321 72.5595Z" fill="url(#paint21_radial_540_23275)"/>
        <path d="M97.2255 82.2921C97.2255 82.2921 102.908 69.2634 105.203 47.2449C109.94 59.1714 107.364 78.8236 101.214 88.567C99.2216 82.7393 97.2255 82.2921 97.2255 82.2921Z" fill="url(#paint22_radial_540_23275)"/>
        <path d="M77.9075 24.2334C77.3206 30.8675 76.3085 64.1083 70.5275 74.7566L73.0402 73.5805C73.0402 73.5805 77.6193 55.9037 77.9075 24.2334Z" fill="url(#paint23_radial_540_23275)"/>
        <path d="M89.7224 19.6875C88.3694 30.6034 88.4257 59.6187 81.0071 74.8799L81.3304 71.6474C81.3304 71.6474 85.6494 58.6609 87.1746 40.4665C88.6998 22.2721 89.7224 19.6875 89.7224 19.6875Z" fill="url(#paint24_radial_540_23275)"/>
        <path d="M88.8193 78.7251C88.8193 78.7251 96.5225 60.4426 96.8107 42.9525C97.0988 25.4623 97.9036 24.2334 97.9036 24.2334C97.9036 24.2334 97.7033 37.0473 97.9036 42.7412C98.1039 48.4351 94.2804 71.7494 89.7224 78.7251H88.8193Z" fill="url(#paint25_radial_540_23275)"/>
        <path d="M99.8083 82.2922C99.8083 82.2922 103.481 75.4258 104.925 64.7246C103.747 69.728 102.107 74.6108 100.026 79.3097L99.8083 82.2922Z" fill="url(#paint26_radial_540_23275)"/>
        <path d="M68.261 71.6615C68.261 71.6615 70.0181 63.4041 69.2837 56.7207C68.8022 61.0765 67.5019 69.1015 67.5019 69.1015L68.261 71.6615Z" fill="url(#paint27_radial_540_23275)"/>
        <path d="M4.17856 113.705C4.20029 113.349 4.30743 113.002 4.49094 112.696C4.67445 112.39 4.92892 112.132 5.23283 111.945C4.14693 118.184 8.53976 123.843 8.84901 124.231C8.78576 124.125 8.57139 123.554 9.41832 122.156C9.80489 129.298 13.3051 131.752 13.5194 131.893C13.4562 131.784 12.8869 130.815 12.9853 128.836C14.6792 132.752 19.4902 136.83 22.4316 138.875C23.9041 147.879 32.2715 152.14 34.0286 153.665C35.178 154.712 36.1542 155.935 36.9209 157.288C36.9209 157.288 37.2512 156.556 37.5429 153.996C37.5429 155.471 38.7764 156.612 38.7764 156.612C38.731 155.671 38.9764 154.739 39.4792 153.943C39.307 156.492 40.2629 157.911 40.2629 157.911C40.2629 157.911 41.3453 156.095 42.6456 155.587C49.2067 153.492 50.507 151.112 50.8478 148.844C57.915 150.372 63.1758 146.143 65.2141 149.587C67.1153 152.802 69.1325 153.415 69.382 153.482C68.7473 152.831 68.3203 152.006 68.1555 151.112C73.2477 156.89 82.072 155.418 82.072 155.418C82.072 155.418 81.8998 155.19 79.8615 152.64C81.0528 153.996 84.2719 154.619 84.2719 154.619C83.851 153.611 83.8135 152.484 84.1665 151.45C84.7252 152.816 86.2504 154.619 86.2504 154.619L86.7881 148.337C86.7881 148.337 87.8635 149.693 87.7545 152.866C89.6241 149.975 89.8631 149.07 90.9173 138.428C98.466 134.298 101.288 128.241 101.622 127.456C101.481 127.702 100.817 128.512 97.8756 130.037C107.663 119.991 107.835 110.483 107.835 110.483C107.531 111.866 106.822 113.126 105.8 114.103C105.951 112.695 106.06 111.318 106.113 109.931C106.97 90.9158 99.5624 73.577 95.5034 70.4924C95.7354 74.2144 90.3375 77.9364 90.3375 77.9364C90.3375 77.9364 90.3902 70.8023 88.4679 66.295C88.6401 69.3938 82.1879 74.6334 82.1879 74.6334C82.1879 74.6334 82.7045 59.5166 80.6628 53.8579C78.9443 66.1824 71.3535 72.834 71.118 73.0277C71.7482 70.2718 71.5886 67.3936 70.6577 64.7246C70.4855 67.7141 62.8736 68.2846 62.1321 71.7671C58.8779 87.0741 50.4613 97.2752 30.7358 98.4266C27.4933 98.6281 24.2419 98.6422 20.9978 98.4689C8.61707 97.7646 3.90446 94.2715 3.90446 94.2715C3.90446 94.2715 4.35427 98.8034 3.45462 100.222C5.32069 100.05 5.99896 97.5006 5.99896 97.5006C5.99896 97.5006 5.82675 99.9971 3.50735 103.902C1.18794 107.807 4.17856 113.705 4.17856 113.705Z" fill="url(#paint28_radial_540_23275)"/>
        <path d="M63.1512 84.2043C67.7197 90.2645 76.7267 90.5673 76.7267 90.5673C76.7267 90.5673 72.6361 94.74 68.549 94.3421C72.6361 99.0888 76.0977 101.487 82.3847 100.497C75.4686 104.656 66.9782 103.015 66.9782 103.015C66.9782 103.015 71.2761 111.72 78.9266 110.867C71.378 113.582 68.2363 113.403 68.2363 113.403C68.2363 113.403 76.8286 123.428 89.7224 115.093C88.3624 121.984 78.403 124.097 72.6361 123.618C72.6361 123.618 76.4104 127.28 85.0063 125.104C78.1922 130.597 73.2652 129.946 73.2652 129.946C73.2652 129.946 75.7814 134.076 82.0719 134.228C77.9848 136.376 71.0652 134.671 71.0652 134.671C71.0652 134.671 71.9052 137.619 75.8868 139.309C71.378 140.263 67.6072 140.615 63.1512 138.076C65.091 141.837 66.8727 145.929 66.8727 145.929C66.8727 145.929 63.4112 141.612 56.1789 140.936C58.2874 144.457 63.1512 146.147 63.1512 146.147C63.1512 146.147 52.7068 147.767 46.7396 143.488C46.7396 143.488 44.9825 145.7 48.8481 147.549C43.2886 146.563 35.009 144.408 29.8712 140.39C30.8034 141.493 31.6437 142.67 32.3839 143.911C32.3839 143.911 23.6615 142.503 19.8591 132.344C19.6975 133.666 19.9427 135.006 20.5619 136.185C20.5619 136.185 14.412 131.256 13.934 124.727C12.8516 125.551 13.2312 127.245 13.2312 127.245C13.2312 127.245 9.55879 122.181 10.0684 117.956C8.68375 118.956 8.89812 120.259 8.89812 120.259C8.89812 120.259 4.74076 115.223 6.64548 109.015C5.08867 109.839 4.74075 109.885 4.74075 109.885C4.74075 109.885 3.00822 106.064 5.60877 103.195C8.20932 100.325 8.29367 97.5605 8.29367 97.5605C8.29367 97.5605 18.5975 103.617 39.1312 98.6521C59.665 93.6871 63.1512 84.2043 63.1512 84.2043Z" fill="url(#paint29_radial_540_23275)"/>
        <path d="M59.6018 75.5843C59.6018 75.5843 66.4265 73.306 67.4175 69.7038C69.0657 72.6053 67.1926 78.7429 65.2141 80.0317C69.5401 78.4506 75.8482 72.1722 76.8111 68.5664C78.3504 72.8271 73.9997 80.0317 73.9997 80.0317C73.9997 80.0317 80.4308 75.8695 81.0282 72.8025C80.1988 78.2288 78.8423 81.3909 73.817 83.229C75.2859 83.5811 82.6518 81.3521 85.3859 77.6795C85.421 81.2817 76.0801 87.6059 71.2621 87.6235C66.4441 87.6411 64.339 86.1446 64.339 86.1446C64.339 86.1446 62.3535 78.2288 59.6018 75.5843Z" fill="url(#paint30_radial_540_23275)"/>
        <path d="M58.8007 97.1731C61.5594 95.0427 59.0115 106.86 64.5676 110.642C60.1642 110.853 56.179 107.744 56.179 107.744C56.179 107.744 55.9717 114.656 66.1384 120.42C59.4297 122.931 54.6082 120.42 54.6082 120.42C54.6082 120.42 54.7136 126.217 60.3715 130.928C57.9608 132.312 47.1931 128.794 47.1931 128.794C47.1931 128.794 46.6414 134.182 51.1993 137.749C46.2232 138.372 38.4637 134.16 35.9475 128.072C36.3692 135.639 36.5554 137.495 36.5554 137.495C36.5554 137.495 30.2895 136.544 28.1915 128.794C26.4098 132.594 26.7683 134.956 26.7683 134.956C26.7683 134.956 21.1455 131.858 20.7378 124.192C18.6539 125.248 19.1564 129.456 19.1564 129.456C19.1564 129.456 14.3384 125.805 15.0799 117.801C13.3052 118.505 13.523 122.097 13.523 122.097C13.523 122.097 10.2372 119.28 11.2985 112.857C9.84713 114.212 9.84713 116.262 9.84713 116.262C9.84713 116.262 6.80731 112.846 9.32351 105.441C8.42828 106.077 7.37793 106.46 6.28368 106.547C6.28368 106.547 8.39223 103.61 7.95998 100.3C12.1525 99.2964 14.0924 102.127 14.0924 102.127C14.0924 102.127 33.8881 106.916 58.8007 97.1731Z" fill="url(#paint31_radial_540_23275)"/>
        <path style="mix-blend-mode:multiply" opacity="0.5" d="M4.17867 113.706C4.20068 113.349 4.30796 113.003 4.49144 112.696C4.67493 112.39 4.92923 112.132 5.23294 111.945C4.14704 118.185 8.53986 123.843 8.85263 124.231C8.78586 124.125 8.57149 123.555 9.42194 122.157C9.8085 129.298 13.3087 131.752 13.5231 131.893C13.4563 131.784 12.887 130.815 12.9854 128.836C14.6828 132.752 19.4903 136.83 22.4352 138.876C23.6265 146.189 29.3794 150.376 32.4403 152.506C33.1431 152.999 33.6984 153.387 34.0287 153.668C35.1731 154.716 36.1445 155.939 36.9069 157.292C36.9069 157.292 37.2408 156.559 37.5289 153.999C37.5289 155.475 38.7659 156.616 38.7659 156.616C38.7153 155.677 38.9546 154.745 39.4512 153.947C39.279 156.496 40.2349 157.915 40.2349 157.915C40.2349 157.915 41.3208 156.098 42.6176 155.591C49.1787 153.496 50.4789 151.116 50.8233 148.848C56.4461 150.063 60.9374 147.619 63.5555 148.33C63.8999 148.416 64.2229 148.572 64.5041 148.789C64.7854 149.006 65.0187 149.279 65.1896 149.591C67.0873 152.806 69.108 153.418 69.354 153.485C68.7206 152.835 68.2948 152.01 68.131 151.116C69.1769 152.299 70.4513 153.257 71.8772 153.933C76.6566 156.299 82.044 155.397 82.044 155.397C82.044 155.397 81.8753 155.168 79.8335 152.619C81.0248 153.975 84.2474 154.598 84.2474 154.598C83.8243 153.591 83.7856 152.463 84.1385 151.429C84.6972 152.795 86.2224 154.598 86.2224 154.598L86.7882 148.337C86.7882 148.337 87.8425 149.693 87.7546 152.866C88.8932 151.105 89.4169 150.08 89.9018 147.154C90.2111 145.27 90.5028 142.594 90.921 138.418C98.3185 134.372 101.186 128.467 101.594 127.502C101.507 127.631 101.406 127.749 101.292 127.854C100.842 128.273 99.8858 128.984 97.8897 130.016C107.659 119.991 107.832 110.484 107.832 110.484C107.528 111.871 106.818 113.136 105.793 114.118C105.941 112.709 106.05 111.332 106.103 109.945C105.319 119.283 97.7281 126.748 95.3559 128.868C96.3856 127.812 98.0514 125.481 96.8495 121.973C94.1752 130.425 86.0678 132.453 85.5652 132.569C86.3471 131.318 86.8386 129.907 87.0034 128.44C87.1683 126.973 87.0022 125.487 86.5176 124.093C84.2123 130.699 80.8948 133.15 75.525 133.72C80.5715 130.449 81.5906 125.727 81.5906 125.727C81.5906 125.727 77.7249 134.935 60.6316 136.893C43.5383 138.851 36.5695 129.329 36.5695 129.329C36.5695 129.329 37.7714 134.115 43.7105 138.02C27.2181 132.449 19.5957 116.505 19.0369 109.663C21.3142 110.146 23.254 110.167 23.7495 109.737C26.5328 112.906 37.5922 111.642 37.5922 111.642C37.5922 111.642 37.0123 111.417 35.9475 109.586C37.8171 111.114 42.2732 112.329 45.0108 111.716C43.8721 110.846 44.7402 108.628 45.2779 108.779C45.8155 108.931 45.0108 110.23 45.0108 110.23C45.0108 110.23 45.5801 110.35 49.003 108.899C56.4356 106.335 59.9885 98.8176 59.9885 98.8176C59.9885 98.8176 60.3751 99.4514 58.3122 102.409C64.2408 96.5358 64.2864 90.7891 64.2864 90.6306C52.1869 101.744 32.5035 101.603 20.6394 100.258C20.7695 99.6451 20.8995 99.0429 21.026 98.4619C8.6488 97.7577 3.93268 94.2646 3.93268 94.2646C3.93268 94.2646 4.38602 98.7964 3.48285 100.216C5.35243 100.043 6.02717 97.4936 6.02717 97.4936C6.02717 97.4936 5.93228 98.8281 4.97289 101.075C4.56069 102.047 4.07916 102.989 3.53204 103.892C1.2021 107.811 4.17867 113.706 4.17867 113.706Z" fill="url(#paint32_radial_540_23275)"/>
        <path d="M4.17856 113.705C4.20058 113.349 4.30786 113.003 4.49134 112.696C4.67482 112.39 4.92913 112.132 5.23284 111.945C4.14694 118.184 8.53976 123.843 8.85253 124.231C8.78576 124.125 8.57138 123.554 9.42183 122.156C9.8084 129.298 13.3086 131.752 13.523 131.893C13.4562 131.784 12.8869 130.815 12.9853 128.836C14.6827 132.752 19.4902 136.83 22.4351 138.875C23.6264 146.189 29.3793 150.376 32.4402 152.506C26.6733 148.158 23.261 139.992 23.261 139.992C23.261 139.992 26.6838 142.597 28.4902 143.08C21.0821 138.714 13.0802 126.361 13.0802 126.361C13.0802 126.361 12.2016 128.375 12.3773 129.449C9.62215 125.421 10.564 119.287 10.564 119.287C9.84803 119.796 9.31162 120.52 9.03176 121.354C8.40622 120.762 8.01965 118.491 8.01965 118.491C8.01965 118.491 7.9353 120.276 8.21293 121.16C5.53156 117.287 5.80918 112.251 6.31524 110.476C5.21879 110.54 4.18911 111.55 4.18911 111.55C4.18911 111.55 2.92046 107.754 4.05908 105.117C5.1977 102.48 4.97279 101.061 4.97279 101.061C4.56059 102.033 4.07906 102.974 3.53194 103.878C1.20199 107.811 4.17856 113.705 4.17856 113.705Z" fill="url(#paint33_radial_540_23275)"/>
        <path style="mix-blend-mode:multiply" opacity="0.5" d="M22.4212 138.872C22.4212 138.872 29.0807 144.953 36.2181 145.665C32.5071 146.017 30.026 145.239 30.026 145.239C30.026 145.239 34.461 147.105 41.9393 147.549C49.4176 147.992 50.8198 148.844 50.8198 148.844C50.8198 148.844 50.4297 152.535 47.1228 153.644C47.7027 152.084 46.9541 149.915 46.9541 149.915C46.9541 149.915 42.0342 150.137 41.0537 152.971C40.8148 150.035 40.9167 149.077 40.9167 149.077C40.9167 149.077 38.2212 150.682 38.3231 152.837C36.6187 151.232 35.9721 147.95 35.9721 147.95C35.5401 148.503 35.2438 149.15 35.1071 149.838C34.9704 150.527 34.997 151.238 35.1849 151.915C33.2415 151.947 30.1385 150.682 27.9912 146.633C28.5711 149.098 29.0455 149.897 29.0455 149.897C29.0455 149.897 23.1029 145.263 22.4212 138.854" fill="url(#paint34_radial_540_23275)"/>
        <path d="M3.88692 101.022C5.31371 101.726 8.67333 101.518 9.81194 100.624C13.2173 106.519 22.2243 108.156 22.7831 108.24C22.653 108.177 22.1927 107.8 21.7288 105.776C24.9478 109.142 31.0591 109.336 34.2255 109.131C33.7405 107.797 34.482 105.61 34.482 105.61C34.482 105.61 40.2489 110.73 43.858 110.871C43.3625 108.202 48.8483 101.011 48.8483 101.011C48.8483 101.011 49.7093 105.589 46.7397 108.339C61.8264 101.649 61.0533 92.3067 61.0533 92.3067C61.0533 92.3067 61.4925 94.8244 61.0533 96.666C67.5265 88.1445 64.2653 80.8203 64.2653 80.8203C64.2653 80.8203 65.1966 80.8203 67.7795 79.3167C63.1934 75.0912 56.0736 61.0483 54.334 57.0447C52.1763 52.0867 43.1692 51.4634 36.341 48.7415C34.253 47.925 32.0197 47.5475 29.7799 47.6323C27.4833 47.7026 25.2195 48.198 23.1028 49.0936C23.1028 49.0936 18.9982 50.2204 14.0783 55.7524C9.1583 61.2843 9.30239 67.0204 7.72449 76.5279C6.14659 86.0353 1.35666 92.944 0.270752 93.5814C1.67702 94.3678 3.19344 94.9376 4.769 95.2716C4.769 95.2716 6.29418 99.388 3.88692 101.022Z" fill="url(#paint35_radial_540_23275)"/>
        <path d="M42.2519 44.6357C46.7501 46.2485 53.5783 58.0976 57.3631 69.1121C60.3151 74.5278 63.1511 76.2568 63.1511 76.2568C63.1511 76.2568 56.713 77.1969 54.0527 74.5701C55.9785 78.7076 59.8161 77.454 61.4819 86.2255C60.445 84.3156 59.2457 82.499 57.8973 80.7957C57.8973 80.7957 60.1499 87.1164 57.0644 92.687C55.3073 87.6481 50.6439 84.5564 50.6439 84.5564C50.6439 84.5564 50.9778 95.085 53.3112 98.9267C50.31 98.1767 47.6392 94.1659 47.6392 94.1659C47.6392 94.1659 48.1453 100.18 43.64 103.941C43.387 101.353 42.2519 97.8422 42.2519 97.8422C42.2519 97.8422 38.5232 100.349 39.7919 105.029C36.0527 105.195 30.7603 98.4267 30.7603 98.4267C30.7603 98.4267 29.7973 102.187 31.1328 105.614C27.13 105.364 23.2925 100.43 22.0414 96.8386C18.7907 100.008 19.0016 103.272 19.0016 103.272C19.0016 103.272 11.7376 99.0957 12.9289 91.9088C8.86647 95.6695 6.533 95.6695 6.533 95.6695L8.86647 90.1552C8.86647 90.1552 6.94768 92.8279 3.02929 92.3278C5.44709 89.4017 9.20031 82.0492 9.86802 76.9504C10.5357 71.8516 9.61851 69.3868 12.4967 62.9745C15.3749 56.5623 17.1004 49.3155 21.4053 47.2556C25.7103 45.1956 35.139 42.0758 42.2519 44.6357Z" fill="url(#paint36_radial_540_23275)"/>
        <path d="M34.9248 48.2063C37.4164 49.2627 48.8236 52.0797 53.3113 65.6471C54.2251 69.105 57.3633 72.4397 57.3633 72.4397C57.3633 72.4397 49.5757 70.7952 47.193 68.5663C48.8272 74.5137 54.2215 77.9329 55.4164 82.8274C52.7174 80.4893 48.2016 78.4118 48.2016 78.4118C48.2016 78.4118 46.0228 98.7894 45.6995 95.7681C45.3762 92.7469 44.1532 87.8452 42.252 85.5811C43.4293 91.62 36.5027 97.0287 37.5816 101.87C32.384 97.5921 32.3102 87.0811 32.3102 87.0811C32.3102 87.0811 25.6331 95.004 26.4906 99.1556C23.8338 96.4512 24.1466 89.5319 24.1466 89.5319C24.1466 89.5319 17.357 90.289 16.4152 97.2787C14.6581 93.8842 14.4156 87.8593 16.9564 83.5141C12.4054 86.9649 7.57335 88.0917 7.38358 88.0917C7.19381 88.0917 13.5581 81.0175 13.5019 77.211C14.1028 71.9537 14.0993 68.3867 15.6456 65.5133C13.0942 70.4819 11.1509 70.8622 11.1509 70.8622C11.1509 70.8622 14.0325 62.809 15.1641 57.8334C16.2957 52.8579 17.8631 47.7063 23.0115 47.6746C28.1598 47.6429 30.7534 46.428 34.9248 48.2063Z" fill="url(#paint37_radial_540_23275)"/>
        <path style="mix-blend-mode:multiply" opacity="0.5" d="M3.88681 101.022C5.31359 101.726 8.67673 101.518 9.81535 100.624C13.2171 106.519 22.2242 108.156 22.7829 108.241C22.6564 108.177 22.1925 107.8 21.7287 105.776C24.9512 109.142 31.059 109.336 34.2253 109.131C33.7439 107.797 34.4854 105.61 34.4854 105.61C34.4854 105.61 40.2488 110.73 43.8579 110.871C36.5764 107.702 34.9247 104.406 31.8427 100.135C30.437 103.135 31.8427 106.568 31.8427 106.568C13.8849 102.089 16.4397 90.4123 16.4397 90.4123C16.4397 90.4123 17.0934 96.3421 20.0524 97.807C16.2535 90.6623 18.6678 78.2886 20.7201 73.5771C21.2121 74.6969 25.1867 74.9856 27.7099 75.3377C26.5186 79.771 30.2226 86.2537 35.4624 85.1973C40.7021 84.1409 38.8536 78.859 38.8536 78.859L33.164 65.1261C33.164 65.1261 18.5975 55.5517 23.7283 54.1432C36.9137 50.474 30.9993 49.1324 35.4202 48.2275C35.4202 48.2275 30.3526 48.4845 29.7728 47.6465C25.9071 47.7768 19.2617 46.1077 19.2617 46.1077C19.2617 46.1077 18.9981 50.2205 14.0781 55.7524C13.2531 56.6774 12.522 57.6824 11.8958 58.7526C9.15819 63.4429 9.02113 68.6931 7.72086 76.5139C6.14296 86.0213 1.34249 92.9441 0.260098 93.5885C1.66637 94.3749 3.18278 94.9447 4.75835 95.2787C4.75835 95.2787 6.29407 99.388 3.88681 101.022Z" fill="url(#paint38_radial_540_23275)"/>
        <path d="M3.88695 101.022C7.09898 99.1944 6.17473 95.4161 5.02557 94.2787C6.45235 93.6519 7.97754 91.9441 8.16028 91.7258C7.87211 91.9195 5.08882 93.7717 1.98574 93.1343C3.82369 91.3737 8.36411 84.7854 9.01424 73.468C9.66438 62.1506 12.3528 58.823 12.3528 58.823L11.91 58.7385C9.17238 63.4289 9.03533 68.6791 7.73506 76.4998C6.15716 86.0072 1.35669 92.9301 0.2743 93.5745C1.68057 94.3609 3.19697 94.9306 4.77254 95.2647C4.77254 95.2647 6.29421 99.3881 3.88695 101.022Z" fill="url(#paint39_radial_540_23275)"/>
        <path d="M4.08007 38.4524C2.37214 38.0228 1.7923 37.4735 1.7923 37.4735C1.7923 37.4735 3.72514 45.3787 9.48148 48.2098C12.0469 49.65 13.3472 49.8437 14.0219 49.6817C14.6966 49.5197 14.7247 49.0901 14.7247 49.0901C14.7247 49.0901 18.8891 45.995 20.2984 47.1887C21.7076 48.3824 22.1644 51.1783 27.7064 50.3578C33.2484 49.5374 34.4608 48.2098 34.4608 48.2098C38.9274 45.8118 45.4217 42.6357 51.0586 49.4458C52.5311 51.4036 54.622 55.2559 54.622 55.2559C54.622 55.2559 60.3151 52.8474 63.6642 48.2134C64.8612 46.6144 65.6469 44.7447 65.952 42.7695C65.0395 44.3893 63.7029 45.7286 62.0863 46.6429C62.0863 46.6429 65.9204 41.2412 65.6287 35.5614C65.4565 32.1176 64.0613 30.4838 63.8891 30.2795C65.7204 31.5954 67.0374 33.5089 67.6142 35.6917C68.2257 32.0648 67.0555 22.5538 59.6896 17.8213C61.4643 17.6382 63.1687 18.9516 63.1687 18.9516C63.1687 18.9516 62.5889 14.5606 55.7888 12.3879C57.3988 11.5394 59.1368 10.9612 60.9336 10.6766C60.9336 10.6766 56.5619 6.60601 48.1347 7.20815C48.0654 6.56619 48.1402 5.91683 48.3536 5.30756C48.567 4.6983 48.9137 4.14457 49.3682 3.68687C49.3682 3.68687 43.8087 2.27837 39.7814 3.25728C37.3214 1.88046 37.968 -0.00341797 37.968 -0.00341797C37.968 -0.00341797 32.9426 0.137433 29.0348 2.70796C29.0348 2.70796 25.264 3.14812 25.4362 0.362795C19.4866 1.68679 14.1308 4.19394 12.9395 8.32439C12.1453 6.83841 12.8095 4.40873 12.8095 4.40873H12.7884L12.7357 4.46155C11.952 5.06369 5.28194 10.4125 5.52092 15.4585C4.88483 14.219 4.97269 11.8421 4.97269 11.8421C4.97269 11.8421 0.709908 20.2439 2.92037 28.0013C0.678276 27.2054 0.0632782 26.2406 0.0632782 26.2406C0.0632782 26.2406 -0.836372 33.0825 4.08007 38.4524Z" fill="url(#paint40_radial_540_23275)"/>
        <path d="M19.5711 46.1077C19.5711 46.1077 20.3126 48.6465 19.5711 52.446C18.8296 56.2454 17.2411 59.9639 16.8897 60.2984C16.5383 60.6329 13.5898 64.5944 13.0803 64.7845C12.5707 64.9747 10.0369 62.464 10.6765 57.5694C9.72766 56.2032 11.1193 53.9003 11.8046 54.2383C12.655 52.6749 16.9143 45.7697 19.5711 46.1077Z" fill="url(#paint41_radial_540_23275)"/>
        <path d="M11.9696 56.2559C13.0239 58.3017 16.3765 59.7208 16.7454 59.8581C16.7665 59.8793 16.7771 59.8792 16.7771 59.8792C16.7771 59.8792 16.7771 59.8793 16.7771 59.8581C17.0998 59.3119 17.3863 58.7449 17.6346 58.1609C18.2919 56.5528 18.7943 54.8856 19.1351 53.1818C19.2617 52.5585 19.3776 51.9423 19.462 51.3507C19.9399 48.2168 19.8556 45.6744 19.3565 45.597C14.2503 45.1427 12.0012 52.9283 11.6814 54.6678C11.6012 55.2145 11.7024 55.7724 11.9696 56.2559Z" fill="url(#paint42_radial_540_23275)"/>
        <path opacity="0.3" d="M16.4363 46.231C16.4363 46.231 18.2391 45.9211 18.833 47.1782C19.4269 48.4353 19.5604 50.6995 19.5604 50.6995C19.5604 50.6995 19.9997 47.5303 18.9419 46.3014C17.8841 45.0725 16.4363 46.231 16.4363 46.231Z" fill="#100F16"/>
        <path d="M19.5605 50.7558C19.5605 50.7558 20.5128 47.8331 19.6799 45.4739C18.9279 43.847 15.9513 45.3647 15.368 44.6252C15.2625 45.6006 15.7194 46.3119 16.3519 46.238C16.9845 46.164 18.2496 46.1077 18.7065 46.3225C19.5675 46.7767 19.5605 50.7558 19.5605 50.7558Z" fill="url(#paint43_radial_540_23275)"/>
        <path d="M11.9697 56.2558C13.024 58.3017 16.3766 59.7207 16.7456 59.8581H16.7878C17.1105 59.3118 17.397 58.7449 17.6452 58.1608C18.3025 56.5528 18.805 54.8855 19.1458 53.1817C19.2723 52.5585 19.3883 51.9423 19.4727 51.3507C18.9139 50.6373 18.1206 50.1457 17.2341 49.9633C14.8971 49.4774 12.539 51.319 11.9908 54.0515C11.8344 54.7772 11.8272 55.5272 11.9697 56.2558Z" fill="url(#paint44_radial_540_23275)"/>
        <path d="M19.1562 53.1677C18.8117 54.8706 18.3057 56.5367 17.6451 58.1432C16.9929 58.5839 16.1929 58.7473 15.4206 58.5975C13.6635 58.2454 12.6092 56.2911 13.0133 54.2452C13.4175 52.1993 15.1887 50.8296 16.9352 51.1923C17.4406 51.3095 17.9086 51.5518 18.2966 51.8968C18.6845 52.2419 18.9801 52.6788 19.1562 53.1677Z" fill="#100F16"/>
        <path d="M15.4382 52.562C14.6949 52.562 14.0923 51.9582 14.0923 51.2134C14.0923 50.4686 14.6949 49.8647 15.4382 49.8647C16.1816 49.8647 16.7842 50.4686 16.7842 51.2134C16.7842 51.9582 16.1816 52.562 15.4382 52.562Z" fill="white"/>
        <path d="M11.4812 54.7804C11.4812 54.7804 11.186 55.9107 12.3281 57.196C13.4702 58.4813 16.4363 60.0764 16.4363 60.0764C16.4363 60.0764 13.8252 62.9427 11.6639 62.4814C10.8908 60.3018 10.8029 59.2947 10.8205 58.2383C10.8205 57.9601 11.8432 58.5904 11.8432 58.5904C11.8432 58.5904 10.3004 57.3016 10.6659 56.0692C11.0314 54.8368 11.2668 54.7698 11.4812 54.7804Z" fill="url(#paint45_radial_540_23275)"/>
        <path d="M11.4918 55.9741C11.6299 56.5575 11.9652 57.075 12.4406 57.439C12.6163 57.7453 12.3 57.7735 12.2157 58.1151C12.1794 58.3639 12.2263 58.6177 12.3492 58.8369C12.3492 58.8369 10.4269 57.7136 11.4918 55.9741Z" fill="url(#paint46_radial_540_23275)"/>
        <path d="M12.1172 58.9532C12.1172 58.9532 11.692 58.506 11.4424 58.5201C11.1929 58.5342 11.2386 61.0942 11.8325 62.2104C11.8609 61.1199 11.956 60.0321 12.1172 58.9532Z" fill="url(#paint47_radial_540_23275)"/>
        <path d="M43.51 61.6293C41.6502 59.4353 40.506 56.7231 40.2312 53.8578C39.8798 49.2414 40.9657 46.4631 43.4327 45.4349C45.8997 44.4067 52.2957 48.6041 53.3113 54.1606C51.8845 57.4354 48.8903 59.4531 43.51 61.6293Z" fill="url(#paint48_radial_540_23275)"/>
        <path d="M53.4836 53.4988C53.4836 53.4988 52.4118 47.5372 46.3075 45.6604C40.2033 43.7836 39.9503 53.5974 41.0854 56.6292C41.6724 58.2975 42.5206 59.8618 43.598 61.2632C43.598 61.2632 50.6863 58.6152 53.4836 53.4988Z" fill="url(#paint49_radial_540_23275)"/>
        <path d="M40.5545 53.8579C40.5545 53.8579 39.1207 51.6607 40.1715 48.1042C40.8743 45.6815 42.6033 44.5829 44.2585 44.3646C47.0207 44.0125 49.9095 45.8048 51.6104 45.2766C51.122 46.1645 50.3235 46.8404 49.3683 47.1746C49.3683 47.1746 45.854 45.0055 43.6717 46.0759C41.3452 47.2133 40.3226 51.7029 40.5545 53.8579Z" fill="url(#paint50_radial_540_23275)"/>
        <path d="M42.6762 56.8007C41.3618 54.3205 42.0138 51.396 44.1325 50.2687C46.2512 49.1413 49.0343 50.238 50.3487 52.7182C51.6632 55.1984 51.0112 58.1229 48.8925 59.2502C46.7738 60.3776 43.9907 59.2809 42.6762 56.8007Z" fill="url(#paint51_radial_540_23275)"/>
        <path d="M43.1412 61.4497C42.4067 61.749 44.0162 63.2103 45.067 63.3582C45.8542 64.5378 48.0401 67.0379 51.5156 66.4886C54.9912 65.9393 55.3813 58.8017 54.8401 55.71C54.8612 54.3015 54.9245 53.1712 53.2411 52.5796C53.3593 52.8748 53.4408 53.1835 53.4836 53.4986C53.4836 53.4986 50.8585 58.2911 43.1412 61.4497Z" fill="url(#paint52_radial_540_23275)"/>
        <path d="M43.6601 56.2772C42.6825 54.4325 43.167 52.2575 44.7423 51.4193C46.3176 50.5811 48.3872 51.397 49.3648 53.2417C50.3425 55.0864 49.858 57.2613 48.2826 58.0995C46.7073 58.9377 44.6378 58.1218 43.6601 56.2772Z" fill="#100F16"/>
        <path d="M43.6016 53.7346C42.8582 53.7346 42.2556 53.1308 42.2556 52.386C42.2556 51.6412 42.8582 51.0374 43.6016 51.0374C44.3449 51.0374 44.9475 51.6412 44.9475 52.386C44.9475 53.1308 44.3449 53.7346 43.6016 53.7346Z" fill="white"/>
        <path d="M53.4836 53.9353C53.4836 53.9353 50.5175 58.9285 43.7175 61.4849C43.2993 61.7068 44.6663 63.154 45.5624 62.9145C46.2373 62.7045 46.8859 62.4174 47.4953 62.0589C46.9707 62.5654 46.3795 62.9979 45.7382 63.3441C45.935 64.066 48.1981 66.4675 51.4277 65.9886C54.6573 65.5097 53.6417 57.4812 53.6417 57.4812C53.6417 57.4812 52.8229 58.2136 52.2782 58.5975C53.1286 57.3615 54.9912 55.953 53.4836 53.9353Z" fill="url(#paint53_radial_540_23275)"/>
        <path d="M47.9837 59.4251C47.0208 60.2104 46.9013 61.0555 47.8291 61.4076C48.2016 61.5309 49.1855 60.9956 49.1855 60.9956C49.1855 60.9956 48.5635 61.5837 48.437 61.6999C48.3105 61.8161 50.4155 64.1648 50.897 64.8092C51.3784 65.4535 51.2238 60.7456 50.8021 59.904C50.552 60.1269 50.2716 60.313 49.9692 60.4569C50.2869 60.1592 50.5763 59.8327 50.8337 59.4815C51.0094 59.2033 51.7439 57.0377 50.2961 57.7384C49.8146 57.9709 49.8708 57.9075 47.9837 59.4251Z" fill="url(#paint54_radial_540_23275)"/>
        <path opacity="0.3" d="M40.5547 53.858C40.5547 53.858 41.2118 47.5197 44.3044 46.2556C46.5113 45.421 49.3684 47.1746 49.3684 47.1746C49.3684 47.1746 47.0982 45.2238 44.097 45.502C41.0959 45.7802 40.1575 51.4917 40.5547 53.858Z" fill="#100F16"/>
        <path d="M20.4776 55.8228C21.2648 54.1255 23.6404 52.8085 25.8404 52.9388C28.0403 53.0691 35.5819 57.2031 37.701 58.7806C39.8201 60.3581 37.6096 62.1822 36.2953 63.471C34.9809 64.7597 32.7459 68.2669 36.5588 74.1545C40.3718 80.0421 39.5143 82.8203 36.8716 83.9084C33.5049 85.2923 29.2281 81.7956 29.6463 74.9925C29.9415 69.6825 31.9903 66.9464 31.9903 66.9464C31.9903 66.9464 27.5588 72.3868 25.373 72.7389C23.1871 73.0911 20.9415 70.7107 20.2035 68.0099C19.1317 68.8268 18.5483 71.3586 18.8224 76.0313C19.0543 80.0597 16.8615 83.6162 13.6846 82.7217C10.5077 81.8273 11.8536 75.0313 15.4171 69.8515C18.9805 64.6717 18.8892 59.2419 20.4776 55.8228Z" fill="url(#paint55_radial_540_23275)"/>
        <path d="M20.309 55.9248C20.309 55.9248 21.6479 53.0832 25.3976 53.1466C28.5183 53.3367 31.2875 55.3333 33.99 56.7171C36.7522 58.1256 38.5585 59.3123 38.3793 60.344C38.2 61.3758 35.5925 63.3688 34.8369 65.052C34.0813 66.7351 33.7826 69.7458 35.8912 73.4502C37.9997 77.1546 40.421 81.7851 36.109 83.3098C31.7971 84.8345 29.3441 77.9997 30.0997 73.8305C30.6189 71.1269 31.3895 68.4779 32.4015 65.9182C32.4015 65.9182 28.0509 72.0558 25.1692 72.3657C22.2875 72.6755 20.3933 68.9078 20.07 67.7633C19.6237 68.2422 18.8365 69.1543 18.6221 72.3657C18.4078 75.5771 19.093 81.5386 14.7811 82.0949C10.4691 82.6513 12.6725 74.6263 14.1239 71.9607C15.5753 69.2951 17.4765 66.2422 18.341 62.073C19.2055 57.9038 20.309 55.9248 20.309 55.9248Z" fill="url(#paint56_radial_540_23275)"/>
        <path d="M18.1478 64.7246C18.1478 64.7246 16.3907 68.1156 14.985 70.7601C13.5792 73.4045 11.2669 78.1125 12.9467 80.9049C13.3649 82.0246 17.4695 81.1901 17.8385 76.3272C18.2075 71.4643 17.9088 70.6403 19.6273 67.0592C20.1087 65.2458 18.1478 64.7246 18.1478 64.7246Z" fill="url(#paint57_radial_540_23275)"/>
        <path d="M32.9499 65.4112C32.9499 65.4112 29.8714 71.0452 30.4653 77.2426C30.9186 81.933 34.3556 83.4577 36.2779 82.5985C38.9627 81.3942 37.5219 77.7215 35.4731 74.2179C33.4243 70.7142 33.4524 66.2316 35.3044 63.6963C36.4676 62.3617 38.0807 60.9744 38.0631 60.0236C37.5219 59.1679 35.2728 58.9109 35.2728 58.9109C35.2728 58.9109 34.6964 62.5941 32.9499 65.4112Z" fill="url(#paint58_radial_540_23275)"/>
        <path d="M20.6042 55.8687C20.8221 55.1644 22.7128 53.1643 25.5734 53.2982C28.434 53.432 35.9123 57.9885 37.1493 58.7526C38.3863 59.5167 37.9857 60.1611 37.9857 60.1611C37.9857 60.1611 35.9474 60.2139 35.2305 59.9287C34.5136 59.6435 23.2645 56.1821 21.1067 56.6081C20.0525 56.6821 20.6042 55.8687 20.6042 55.8687Z" fill="url(#paint59_radial_540_23275)"/>
        <path d="M36.5695 60.7069C36.6328 62.2739 26.5434 72.0102 24.8882 71.7602C18.8928 70.7918 16.9916 61.7175 16.9916 61.7175C19.065 60.5097 17.5399 62.1084 20.6043 62.1506C21.4744 62.1519 22.3431 62.08 23.2013 61.9358C28.9401 61.0766 36.436 59.5202 36.5695 60.7069Z" fill="url(#paint60_radial_540_23275)"/>
        <path d="M36.5695 60.7069C36.6328 62.2739 26.5434 72.0102 24.8882 71.7602C20.6535 67.4994 20.4918 62.5873 20.4918 62.5873C20.4918 62.5873 20.527 62.4182 20.6043 62.1506C21.4744 62.1519 22.3431 62.08 23.2013 61.9358C28.9401 61.0766 36.436 59.5202 36.5695 60.7069Z" fill="url(#paint61_radial_540_23275)"/>
        <g style="mix-blend-mode:multiply" opacity="0.3">
            <path d="M16.9774 61.7173C16.9774 61.7173 18.6115 63.2632 20.4916 63.6646C22.3718 64.066 29.4213 60.6187 36.5693 60.7067C35.9016 59.5271 29.8079 58.6257 28.2124 58.5341C26.617 58.4425 21.8868 59.3088 20.7868 59.4672C19.6869 59.6257 19.7607 59.5271 18.9313 59.7208C18.1019 59.9144 16.9774 61.7173 16.9774 61.7173Z" fill="#420D00"/>
        </g>
        <path d="M37.339 60.1294C37.2758 60.633 36.5554 60.7245 36.5554 60.7245C36.5554 59.5695 20.5023 62.9817 20.063 62.9817C19.6237 62.9817 15.1325 61.5379 15.7229 59.7773C16.257 58.1857 21.9361 54.8123 23.5245 54.2031C23.6365 54.1555 23.7549 54.1246 23.8759 54.1116C27.8716 54.1679 37.4023 59.6153 37.339 60.1294Z" fill="url(#paint62_radial_540_23275)"/>
        <path d="M37.339 60.1294C37.2758 60.6329 36.5554 60.7245 36.5554 60.7245C36.5554 59.5695 20.5023 62.9816 20.063 62.9816C20.3854 59.7944 21.5837 56.7593 23.5245 54.2136C23.6365 54.1659 23.7549 54.1351 23.8759 54.1221C27.8716 54.1678 37.4023 59.6153 37.339 60.1294Z" fill="url(#paint63_radial_540_23275)"/>
        <path d="M31.6496 69.1016C31.6496 69.1016 29.6218 75.3906 31.4141 79.8344C32.2892 81.9859 34.4364 81.8908 34.4821 81.0633C34.5277 80.2358 30.1841 79.0315 31.6496 69.1016Z" fill="url(#paint64_radial_540_23275)"/>
        <path d="M17.6909 66.2986C17.6909 66.2986 12.8377 73.6933 12.6796 78.1653C12.7323 79.6583 13.776 80.1794 14.1661 76.6511C14.5562 73.1228 17.3781 67.2141 17.6909 66.2986Z" fill="url(#paint65_radial_540_23275)"/>
        <path d="M22.4807 55.4636C22.4807 55.4636 20.0207 58.925 20.0629 62.1259C19.9961 62.7069 18.6853 62.5167 19.0649 60.8617C19.4444 59.2067 20.5057 57.4778 22.4807 55.4636Z" fill="url(#paint66_radial_540_23275)"/>
        <path d="M29.6463 55.7876C29.6463 55.7876 37.1844 58.9215 37.5675 59.9638C37.6623 60.2385 37.216 60.9075 36.7592 60.9498C36.3761 61.5132 35.8209 62.7104 33.1782 65.1119C34.5839 63.3513 36.2145 61.1963 36.1723 60.7843C36.1301 60.3723 28.5921 61.5378 20.0524 62.964C27.9841 61.2033 33.8353 60.1012 36.6397 60.2385C36.9525 60.154 35.986 58.9462 29.6463 55.7876Z" fill="url(#paint67_radial_540_23275)"/>
        <path d="M24.7862 55.5165C25.0322 55.3334 27.4289 56.1362 26.9299 56.8017C26.6909 56.8792 25.2887 56.601 25.0252 56.1996C24.8783 56.0014 24.7949 55.7632 24.7862 55.5165Z" fill="url(#paint68_radial_540_23275)"/>
        <path d="M24.7861 55.5164C24.5717 56.2558 25.4116 57.1749 26.4448 57.0305C27.478 56.8861 26.6732 56.2312 26.0934 56.2805C25.5135 56.3298 24.8809 56.0692 24.7861 55.5164Z" fill="url(#paint69_radial_540_23275)"/>
        <path d="M21.4019 55.7559C21.4019 55.7559 20.7658 56.4284 20.453 56.7453C20.1402 57.0623 19.8661 56.4531 20.2984 56.3193C20.6849 56.1706 21.0547 55.9818 21.4019 55.7559Z" fill="url(#paint70_radial_540_23275)"/>
        <path d="M35.4239 48.2063C41.0256 46.0372 47.7694 40.3714 53.7472 41.8398C49.7444 39.0721 46.7398 39.639 46.7398 39.639C46.7398 39.639 54.6468 36.248 59.6089 42.125C61.5242 36.815 55.3181 30.3922 49.3684 29.2442C55.3251 25.4624 63.8928 28.4555 63.8928 28.4555C63.8928 28.4555 56.5305 19.6523 46.5113 22.413C45.9666 16.8775 55.4938 10.7188 55.4938 10.7188C55.4938 10.7188 44.8807 9.41947 39.1384 20.8319C38.2458 14.3352 40.9975 9.52511 45.1759 4.67632C37.5816 5.38057 32.2645 11.3667 30.7675 20.1523C29.2634 11.9372 32.5843 4.80661 32.5843 4.80661C32.5843 4.80661 23.7987 7.3877 21.4125 17.8917C19.0896 11.6238 17.8315 8.29266 19.1669 4.15869C16.0041 6.07778 12.1771 13.314 12.9362 21.4974C10.803 16.867 11.6745 10.7083 11.6745 10.7083C11.6745 10.7083 6.61402 19.0044 8.83152 26.1772C6.96896 23.7581 4.31921 20.6488 4.43166 16.4691C2.67454 19.2861 2.46017 29.5189 7.59449 34.3184C4.49141 35.9558 0.773335 31.3816 0.773335 31.3816C0.773335 31.3816 3.81667 39.2341 9.14428 40.0792C6.35396 40.7588 2.63237 38.8362 2.63237 38.8362C2.63237 38.8362 9.76279 47.5795 16.9916 46.9633C24.2204 46.347 18.4184 54.7946 35.4239 48.2063Z" fill="url(#paint71_radial_540_23275)"/>
        <path d="M38.4917 44.3222C41.5842 38.6882 47.576 33.8359 51.1992 33.5788C47.952 32.1703 42.034 34.0894 39.1383 37.917C39.7428 32.7513 44.9438 27.9694 44.9438 27.9694C43.3154 27.995 41.7144 28.393 40.2629 29.1333C38.8115 29.8736 37.5482 30.9365 36.5694 32.2408C35.0477 28.5434 34.8474 22.9939 36.5694 19.5642C33.0551 20.8917 29.8923 25.6208 29.2527 28.9237C27.3796 25.2862 27.2777 20.6241 28.701 14.564C24.6912 17.381 19.8978 22.4903 20.4776 30.878C16.7806 26.8391 16.7806 23.9376 16.9634 19.5501C14.6545 23.9517 12.2718 31.3499 14.3523 35.6212C10.5182 35.3641 10.3355 30.8393 10.3355 30.8393C10.3355 30.8393 9.63264 39.8291 14.781 42.125C14.0782 42.6109 10.5955 42.4419 10.5955 42.4419C10.5955 42.4419 16.9388 44.0159 18.6783 46.3153C20.4179 48.6147 21.7814 51.4986 26.74 51.2098C31.6986 50.9211 36.5694 47.8435 38.4917 44.3222Z" fill="url(#paint72_radial_540_23275)"/>
        <path style="mix-blend-mode:multiply" opacity="0.5" d="M4.08359 38.4525C2.37566 38.0229 1.79581 37.4736 1.79581 37.4736C1.79581 37.4736 3.72865 45.3788 9.48499 48.2099C12.6724 50.1959 15.4346 47.1007 15.4346 47.1007C15.4346 47.1007 18.7942 46.4458 19.3003 47.1394C20.3054 48.4846 22.0484 51.8791 27.492 51.1396C33.0551 50.3825 34.4889 48.5092 34.4889 48.5092C38.9555 46.1112 45.4428 42.6287 51.0797 49.4388C52.5486 51.3967 54.6431 55.2489 54.6431 55.2489C54.6431 55.2489 60.3327 52.8404 63.6853 48.2064C56.822 50.9389 55.0402 45.7204 55.0402 45.7204C55.0402 45.7204 57.8973 45.5267 59.6896 47.238C59.6053 44.6217 55.6939 41.0829 45.6994 42.3435C40.5545 42.9914 41.3382 48.0972 24.7544 47.6254C10.0438 47.2909 10.346 23.2652 10.346 23.2652C10.346 23.2652 11.1226 33.3044 14.3628 35.6284C10.36 23.1877 16.4327 11.6838 16.4327 11.6838C16.4327 11.6838 16.9739 14.5712 21.3983 17.6312C18.369 6.36311 25.4362 0.376953 25.4362 0.376953C19.4901 1.6763 14.1343 4.19753 12.9395 8.32798C12.1453 6.84201 12.813 4.41233 12.813 4.41233C12.813 4.41233 5.27492 10.1274 5.52092 15.4726C4.88835 14.2332 4.97269 11.8563 4.97269 11.8563C4.97269 11.8563 0.709908 20.2581 2.92389 28.0154C0.67828 27.2196 0.0667992 26.2548 0.0667992 26.2548C0.0667992 26.2548 -0.832855 33.0825 4.08359 38.4525Z" fill="url(#paint73_radial_540_23275)"/>
        <path d="M101.358 31.0294L100.48 30.8674C101.049 33.8464 102.047 37.3114 102.883 41.2798C102.131 35.1704 101.358 31.0294 101.358 31.0294Z" fill="url(#paint74_radial_540_23275)"/>
        <path d="M101.358 22.1312C99.8155 24.2439 99.7909 26.9941 100.395 30.371C100.694 30.3498 101.017 30.3287 101.358 30.297C100.019 20.2473 108.608 20.8494 108.608 20.8494C108.327 20.4515 107.202 20.0008 105.73 19.7649C104.866 19.7837 104.019 20.008 103.259 20.4195C102.499 20.8309 101.847 21.4176 101.358 22.1312Z" fill="url(#paint75_radial_540_23275)"/>
        <path d="M92.2105 45.6922V45.7344C94.7583 40.3222 94.6915 29.7584 95.788 25.0469C96.41 22.3461 99.0633 20.5714 101.629 19.677C97.9457 20.1629 94.1644 22.2827 94.0273 28.0823C93.9184 32.5015 93.1769 38.7517 92.2105 45.6922Z" fill="url(#paint76_radial_540_23275)"/>
        <path style="mix-blend-mode:multiply" opacity="0.5" d="M63.5554 148.327C63.8991 148.413 64.2213 148.57 64.5019 148.787C64.7825 149.004 65.0154 149.276 65.186 149.587C67.0872 152.802 69.1044 153.415 69.3539 153.482C68.7192 152.832 68.2922 152.007 68.1274 151.112C69.1746 152.295 70.4501 153.254 71.8771 153.929C69.8459 150.982 70.7491 149.218 70.7491 149.218C70.7491 149.218 76.6741 148.865 79.1446 150.7C79.8018 148.777 77.9111 145.485 77.9111 145.485C77.9111 145.485 80.6382 147.411 81.0142 148.946C81.4679 147.223 81.5553 145.424 81.2707 143.665C81.2707 143.665 83.9873 145.464 83.924 148.077C85.2313 146.045 85.5862 141.9 85.5862 141.9C85.7163 141.9 88.9142 141.957 89.7225 147.291C89.7858 147.239 89.8385 147.193 89.9053 147.13C90.2145 145.246 90.5062 142.569 90.9244 138.393C98.3219 134.347 101.19 128.442 101.597 127.477C101.541 127.544 101.446 127.66 101.295 127.829C99.8892 129.453 94.0591 135.456 82.9787 137.749C84.898 138.273 86.9307 138.202 88.8088 137.545C88.4574 137.791 84.8799 140.33 78.8459 140.869C72.5202 141.439 71.8174 145.365 68.9463 145.894C71.3711 146.517 74.0771 144.71 74.2176 144.622C74.0771 144.897 71.6171 148.865 63.5554 148.327Z" fill="url(#paint77_radial_540_23275)"/>
        <path d="M107.445 97.9513C111.448 92.7504 115.289 81.8979 116.143 69.2847C116.729 73.3473 116.965 77.4531 116.845 81.5563C116.856 81.9594 116.791 82.3609 116.652 82.7394C116.346 83.4437 115.598 83.7958 114.916 84.148C115.603 84.2523 116.3 84.2654 116.99 84.1867C117.028 84.1867 116.694 86.9791 116.638 87.2291C116.501 87.9897 116.638 88.7045 116.54 89.4686C116.333 91.3137 116.033 93.1472 115.64 94.9618C115.018 97.8927 114.113 100.756 112.938 103.511C111.665 106.448 110.042 109.403 107.824 111.737C107.68 111.889 107.54 112.04 107.385 112.177L107.445 97.9513Z" fill="url(#paint78_radial_540_23275)"/>
        <path d="M105.319 99.1027C105.287 98.976 116.916 92.7644 116.213 65.376C116.213 65.8654 115.429 66.8479 115.134 67.2176C114.702 67.7599 114.294 68.274 114.291 69.017C114.3 69.2677 114.335 69.5167 114.396 69.76L114.857 71.915L113.785 70.2952C113.735 70.2212 113.669 70.1403 113.584 70.1543C113.531 70.168 113.485 70.2005 113.454 70.2459C112.284 71.591 111.546 73.3481 110.552 74.8236C109.473 76.4363 108.352 78.0244 107.181 79.5737C105.119 82.3063 102.912 85.0352 100.286 87.2466C99.7319 87.7237 99.1448 88.1614 98.5293 88.5565C96.1607 90.3488 105.319 99.1027 105.319 99.1027Z" fill="url(#paint79_radial_540_23275)"/>
        <path d="M114.34 69.7036C114.28 69.848 113.901 70.0311 113.781 70.1191C113.215 70.5311 112.646 70.9325 112.07 71.3304C110.379 72.496 108.436 73.4784 106.97 74.9257C106.877 75.0071 106.805 75.1097 106.76 75.225C106.738 75.3307 106.738 75.4396 106.76 75.5454C106.798 75.9644 106.858 76.3835 106.932 76.7954C106.77 76.2909 106.555 75.8046 106.292 75.3447C106.283 75.3193 106.268 75.2963 106.248 75.2774C106.229 75.2585 106.205 75.2442 106.18 75.2355C106.129 75.2315 106.078 75.248 106.039 75.2813C103.931 76.6898 101.495 77.6723 99.1723 78.6653C97.9882 79.1761 96.7789 79.6263 95.5491 80.0139C94.9623 80.197 94.3683 80.366 93.7674 80.5033C93.5214 80.5632 92.1473 80.6653 92.0384 80.8555C90.2004 83.8063 94.3297 90.0988 98.8842 88.6023C103.439 87.1057 112.193 74.739 114.34 69.7036Z" fill="url(#paint80_radial_540_23275)"/>
        <path d="M67.6566 95.6942C67.4141 103.793 72.1583 112.786 82.2232 119.966C80.336 118.023 79.8721 116.258 79.8721 116.258C79.8721 116.258 87.1993 128.801 102.799 116.931C109.125 111.202 112.881 106.744 113.981 95.9196C113.981 95.9196 111.971 98.2506 109.3 99.0887C111.571 95.9935 112.323 85.8205 112.323 85.8205C112.323 85.8205 106.967 89.296 102.409 91.3701C103.646 88.384 108.215 84.7501 108.215 84.7501C105.049 85.48 101.949 86.473 98.9475 87.7185C100.951 83.743 105.08 80.9049 105.08 80.9049C105.08 80.9049 100.487 79.3379 92.3864 82.2359C94.2625 80.9909 96.2357 79.8993 98.2868 78.9717C98.2868 78.9717 88.2677 79.2956 78.5191 83.1092C68.7706 86.9227 67.7093 93.9723 67.6566 95.6942Z" fill="url(#paint81_radial_540_23275)"/>
        <path d="M67.6564 95.6942C68.5842 103.166 73.2055 111.462 78.2519 114.92C78.2519 114.92 76.537 112.843 76.3261 110.955C80.7365 116.635 85.2734 123.16 97.5873 119.156C95.1274 119.139 94.1891 118.16 94.1891 118.16C94.1891 118.16 109.283 116.523 111.535 101.402C108.046 107.776 101.147 106.881 101.147 106.881C101.147 106.881 105.825 106.575 108.225 101.096C104.985 103.881 99.2496 103.659 99.2496 103.659C99.2496 103.659 99.8646 96.0816 103.902 93.6202C101.024 92.6941 95.2258 96.5569 95.2258 96.5569C95.2258 96.5569 95.4647 91.3842 99.3445 90.4158C96.9723 89.8067 90.8083 91.1659 90.8083 91.1659C90.8083 91.1659 93.9009 87.134 98.7716 85.1304C95.6932 83.331 89.2621 82.5986 86.6896 84.5459C86.6896 84.5459 87.7826 82.1232 91.4022 81.2817C89.5784 79.6689 66.0891 83.1831 67.6564 95.6942Z" fill="url(#paint82_radial_540_23275)"/>
        <path d="M68.022 96.8773C71.1849 105.177 74.4812 109.441 74.4812 109.441C74.4812 109.441 72.2181 104.892 71.5995 101.103C71.5995 101.103 75.4336 111.667 81.9174 113.167C80.3448 111.118 79.2627 108.735 78.7546 106.202C78.7546 106.202 83.4988 115.839 95.8303 111.589C88.6542 111.237 86.4051 108.24 86.4051 108.24C86.4051 108.24 92.6605 105.011 95.7319 104.825C92.9451 102.902 86.8233 103.793 86.8233 103.793C86.8233 103.793 90.4781 99.4267 93.0857 99.8528C90.4359 96.9971 83.8573 95.4864 83.8573 95.4864C83.8573 95.4864 87.8213 93.9265 90.5343 95.2716C86.6124 91.3982 82.5851 88.2009 77.6089 88.7573C79.8545 86.8769 84.9467 88.3277 84.9467 88.3277C84.9467 88.3277 81.4113 84.2677 75.2263 85.9403C69.0412 87.6129 66.0295 91.6306 68.022 96.8773Z" fill="url(#paint83_radial_540_23275)"/>
        <path d="M52.8228 44.942C48.0609 42.8293 45.9981 42.9419 36.9454 47.2449C27.8927 51.5479 22.0625 52.7346 17.6908 44.6357C18.1722 45.9843 20.4424 51.5585 25.893 51.4564C31.3436 51.3543 34.3097 49.0866 39.7884 46.7872C45.2671 44.4878 45.9981 43.773 52.8228 44.942Z" fill="url(#paint84_radial_540_23275)"/>
        <path d="M19.5254 47.6885C19.5254 47.6885 17.0408 46.2589 13.1013 48.0865C14.2435 47.1991 16.5629 46.2413 18.5906 46.3962C19.2724 47.3012 19.5254 47.6885 19.5254 47.6885Z" fill="url(#paint85_radial_540_23275)"/>
        <path d="M13.6775 49.4L13.2769 50.1394C13.2769 50.1394 7.87546 49.1218 5.01486 44.28C6.7509 46.2766 10.1597 49.157 13.6775 49.4Z" fill="url(#paint86_radial_540_23275)"/>
        <path d="M65.9697 42.7659C65.9697 42.7659 65.7905 50.9387 54.8401 55.5164C54.7858 55.1664 54.7858 54.81 54.8401 54.46C54.8401 54.46 64.188 50.9211 65.9697 42.7659Z" fill="url(#paint87_radial_540_23275)"/>
        <path d="M64.8486 88.2996C64.8486 88.2996 64.3672 93.8315 60.8072 97.4549C60.9619 96.9548 61.0111 94.6695 61.0111 94.6695C59.4969 99.1842 56.4776 103.039 52.4609 105.585C47.5691 108.642 46.0931 108.755 46.0931 108.755C47.0072 107.809 47.7144 106.683 48.1694 105.447C48.6245 104.212 48.8174 102.896 48.7358 101.582C46.6764 104.318 43.6542 109.064 44.0829 111.128C41.9744 111.128 38.0243 109.339 34.6225 106.156C34.4046 107.218 34.4046 108.313 34.6225 109.374C34.6225 109.374 27.7206 110.304 22.2594 106.691C23.0677 108.55 23.6827 108.67 23.6827 108.67C23.6827 108.67 15.5472 108.617 9.72406 101.015C8.64167 101.804 4.48784 101.719 3.87987 101.015C5.82677 101.219 9.10556 100.842 10.0333 99.9972C10.0333 99.9972 12.5249 105.983 22.1716 107.948C21.5038 107.205 21.4687 105.596 21.4687 105.596C21.4687 105.596 26.3676 109.649 34.0392 108.945C33.9338 108.015 33.9197 106.071 34.5031 105.424C35.1883 106.191 40.6671 110.586 43.5839 110.519C43.9634 108.005 47.3793 101.571 49.1294 100.659C49.3894 102.966 49.045 105.751 47.6358 107.61C54.71 103.307 60.1536 98.6627 60.99 92.1166C61.5558 93.5603 61.5206 95.6062 61.5206 95.6062C61.5206 95.6062 63.8119 93.261 64.8486 88.2996Z" fill="url(#paint88_radial_540_23275)"/>
        <path d="M63.9314 148.453C63.9314 148.453 66.792 150.02 73.3286 146.893C77.3489 145.048 77.1942 142.45 83.7764 140.943C89.6382 139.513 97.4434 133.439 97.4434 133.439C97.4434 133.439 95.4156 136.161 91.1177 138.678C90.8196 140.003 90.6013 141.345 90.4641 142.696C90.4641 142.696 90.5871 139.281 90.0213 139.214C89.4555 139.147 84.9713 141.39 82.9471 141.598C83.8573 142.041 84.0013 143.65 84.0013 143.65C84.0013 143.65 83.2563 141.664 81.1372 142.041C79.0181 142.418 75.7569 145.503 75.9607 146.524C76.1646 147.545 77.4789 148.306 77.4789 148.306C77.0186 148.262 76.5751 148.109 76.1849 147.861C75.7946 147.612 75.4685 147.275 75.2333 146.876C73.8269 147.068 72.4643 147.503 71.2059 148.161C69.8763 148.874 68.4067 149.285 66.901 149.365C66.0857 149.365 66.7534 151.718 66.7534 151.718C66.1033 151.17 65.5456 150.521 65.1017 149.795C64.4445 148.658 63.9314 148.453 63.9314 148.453Z" fill="url(#paint89_radial_540_23275)"/>
        <path d="M12.7885 4.42292L12.7358 4.47574L12.8096 4.41235L12.7885 4.42292Z" fill="url(#paint90_radial_540_23275)"/>
        <path d="M4.08006 38.4524C2.37213 38.0228 1.79229 37.4735 1.79229 37.4735C1.79229 37.4735 3.72513 45.3788 9.48148 48.2099C12.0469 49.6501 13.3471 49.8437 14.0219 49.6817C14.5069 48.9212 14.925 48.0901 14.925 48.0901C13.9912 48.2483 13.0318 48.141 12.1558 47.7803C4.77589 45.8753 3.01876 39.044 3.01876 39.044C4.22789 39.641 5.54024 39.9996 6.88444 40.1004C1.57792 36.0227 0.955896 28.1597 0.955896 28.1597C0.955896 28.1597 1.51466 29.1915 3.99572 29.4837C1.68686 21.7792 4.37175 15.6592 4.37175 15.6592C4.53798 16.7056 5.01711 17.6768 5.74582 18.4445C6.09725 10.6238 11.9942 5.14822 12.7357 4.48975C11.952 5.09188 5.28194 10.4407 5.52091 15.4867C4.88483 14.2472 4.97268 11.8703 4.97268 11.8703C4.97268 11.8703 0.709897 20.2721 2.92036 28.0294C0.678268 27.2336 0.0632725 26.2688 0.0632725 26.2688C0.0632725 26.2688 -0.836378 33.0825 4.08006 38.4524Z" fill="url(#paint91_radial_540_23275)"/>
    </g>
    <defs>
        <radialGradient id="paint0_radial_540_23275" cx="0" cy="0" r="1" gradientUnits="userSpaceOnUse" gradientTransform="translate(97.5029 36.6178) rotate(180) scale(35.0019 35.0719)">
            <stop stop-color="#4C0003"/>
            <stop offset="1" stop-color="#7F2503"/>
        </radialGradient>
        <radialGradient id="paint1_radial_540_23275" cx="0" cy="0" r="1" gradientUnits="userSpaceOnUse" gradientTransform="translate(69.4312 37.9135) rotate(180) scale(29.0383 29.0963)">
            <stop stop-color="#4C0003"/>
            <stop offset="1" stop-color="#7F2503"/>
        </radialGradient>
        <radialGradient id="paint2_radial_540_23275" cx="0" cy="0" r="1" gradientUnits="userSpaceOnUse" gradientTransform="translate(104.802 21.9975) rotate(180) scale(6.24834 6.26082)">
            <stop stop-color="#4C0003"/>
            <stop offset="1" stop-color="#7F2503"/>
        </radialGradient>
        <radialGradient id="paint3_radial_540_23275" cx="0" cy="0" r="1" gradientUnits="userSpaceOnUse" gradientTransform="translate(96.9759 13.1343) rotate(180) scale(4.39984 4.40863)">
            <stop stop-color="#4C0003"/>
            <stop offset="1" stop-color="#7F2503"/>
        </radialGradient>
        <radialGradient id="paint4_radial_540_23275" cx="0" cy="0" r="1" gradientUnits="userSpaceOnUse" gradientTransform="translate(72.225 16.4478) rotate(180) scale(46.1702 46.2625)">
            <stop stop-color="#C43904"/>
            <stop offset="1" stop-color="#910005"/>
        </radialGradient>
        <radialGradient id="paint5_radial_540_23275" cx="0" cy="0" r="1" gradientUnits="userSpaceOnUse" gradientTransform="translate(78.649 25.9448) rotate(180) scale(22.0519 22.096)">
            <stop stop-color="#FE8A24"/>
            <stop offset="0.4" stop-color="#FEAC33"/>
            <stop offset="1" stop-color="#FFE54D"/>
        </radialGradient>
        <radialGradient id="paint6_radial_540_23275" cx="0" cy="0" r="1" gradientUnits="userSpaceOnUse" gradientTransform="translate(93.5119 167.146) rotate(162.928) scale(20.5724 20.6065)">
            <stop stop-color="#FED501"/>
            <stop offset="0.08" stop-color="#FEC401"/>
            <stop offset="0.28" stop-color="#FD9B02"/>
            <stop offset="0.44" stop-color="#FD8202"/>
            <stop offset="0.54" stop-color="#FD7902"/>
            <stop offset="1" stop-color="#E06F01"/>
        </radialGradient>
        <radialGradient id="paint7_radial_540_23275" cx="0" cy="0" r="1" gradientUnits="userSpaceOnUse" gradientTransform="translate(80.4349 163.663) rotate(162.928) scale(18.0874 18.1174)">
            <stop offset="0.07" stop-color="#FED501"/>
            <stop offset="0.79" stop-color="#FD7902"/>
            <stop offset="1" stop-color="#E06F01"/>
        </radialGradient>
        <radialGradient id="paint8_radial_540_23275" cx="0" cy="0" r="1" gradientUnits="userSpaceOnUse" gradientTransform="translate(86.459 168.181) rotate(162.928) scale(3.12822 3.1334)">
            <stop offset="0.07" stop-color="#FED501"/>
            <stop offset="0.79" stop-color="#FD7902"/>
            <stop offset="1" stop-color="#E06F01"/>
        </radialGradient>
        <radialGradient id="paint9_radial_540_23275" cx="0" cy="0" r="1" gradientUnits="userSpaceOnUse" gradientTransform="translate(80.4495 168.527) rotate(-176.433) scale(3.12771 3.13391)">
            <stop offset="0.07" stop-color="#FED501"/>
            <stop offset="0.79" stop-color="#FD7902"/>
            <stop offset="1" stop-color="#E06F01"/>
        </radialGradient>
        <radialGradient id="paint10_radial_540_23275" cx="0" cy="0" r="1" gradientUnits="userSpaceOnUse" gradientTransform="translate(77.186 164.68) rotate(-166.825) scale(3.12801 3.1336)">
            <stop offset="0.07" stop-color="#FED501"/>
            <stop offset="0.79" stop-color="#FD7902"/>
            <stop offset="1" stop-color="#E06F01"/>
        </radialGradient>
        <radialGradient id="paint11_radial_540_23275" cx="0" cy="0" r="1" gradientUnits="userSpaceOnUse" gradientTransform="translate(40.6904 172.637) rotate(-167.456) scale(20.6622 20.6996)">
            <stop stop-color="#FED501"/>
            <stop offset="0.08" stop-color="#FEC401"/>
            <stop offset="0.28" stop-color="#FD9B02"/>
            <stop offset="0.44" stop-color="#FD8202"/>
            <stop offset="0.54" stop-color="#FD7902"/>
            <stop offset="1" stop-color="#E06F01"/>
        </radialGradient>
        <radialGradient id="paint12_radial_540_23275" cx="0" cy="0" r="1" gradientUnits="userSpaceOnUse" gradientTransform="translate(30.8074 163.094) rotate(-167.456) scale(18.2407 18.2737)">
            <stop offset="0.07" stop-color="#FED501"/>
            <stop offset="0.79" stop-color="#FD7902"/>
            <stop offset="1" stop-color="#E06F01"/>
        </radialGradient>
        <radialGradient id="paint13_radial_540_23275" cx="0" cy="0" r="1" gradientUnits="userSpaceOnUse" gradientTransform="translate(34.3031 169.757) rotate(176.984) scale(3.1277 3.13392)">
            <stop offset="0.07" stop-color="#FED501"/>
            <stop offset="0.79" stop-color="#FD7902"/>
            <stop offset="1" stop-color="#E06F01"/>
        </radialGradient>
        <radialGradient id="paint14_radial_540_23275" cx="0" cy="0" r="1" gradientUnits="userSpaceOnUse" gradientTransform="translate(28.7447 167.861) rotate(-161.536) scale(3.1283 3.1333)">
            <stop offset="0.07" stop-color="#FED501"/>
            <stop offset="0.79" stop-color="#FD7902"/>
            <stop offset="1" stop-color="#E06F01"/>
        </radialGradient>
        <radialGradient id="paint15_radial_540_23275" cx="0" cy="0" r="1" gradientUnits="userSpaceOnUse" gradientTransform="translate(27.1419 162.912) rotate(-135.463) scale(3.13075 3.13086)">
            <stop offset="0.07" stop-color="#FED501"/>
            <stop offset="0.79" stop-color="#FD7902"/>
            <stop offset="1" stop-color="#E06F01"/>
        </radialGradient>
        <radialGradient id="paint16_radial_540_23275" cx="0" cy="0" r="1" gradientUnits="userSpaceOnUse" gradientTransform="translate(83.5374 19.8565) rotate(180) scale(46.1948 46.2871)">
            <stop stop-color="#C43904"/>
            <stop offset="1" stop-color="#910005"/>
        </radialGradient>
        <radialGradient id="paint17_radial_540_23275" cx="0" cy="0" r="1" gradientUnits="userSpaceOnUse" gradientTransform="translate(90.6257 35.16) rotate(180) scale(25.0461 25.0961)">
            <stop stop-color="#FE8A24"/>
            <stop offset="0.4" stop-color="#FEAC33"/>
            <stop offset="1" stop-color="#FFE54D"/>
        </radialGradient>
        <radialGradient id="paint18_radial_540_23275" cx="0" cy="0" r="1" gradientUnits="userSpaceOnUse" gradientTransform="translate(88.6612 34.0085) rotate(180) scale(25.0461 25.0961)">
            <stop stop-color="#FE8A24"/>
            <stop offset="0.4" stop-color="#FEAC33"/>
            <stop offset="1" stop-color="#FFE54D"/>
        </radialGradient>
        <radialGradient id="paint19_radial_540_23275" cx="0" cy="0" r="1" gradientUnits="userSpaceOnUse" gradientTransform="translate(82.3636 36.4312) rotate(180) scale(4.70206 4.71146)">
            <stop stop-color="#FE8A24"/>
            <stop offset="0.4" stop-color="#FEAC33"/>
            <stop offset="1" stop-color="#FFE54D"/>
        </radialGradient>
        <radialGradient id="paint20_radial_540_23275" cx="0" cy="0" r="1" gradientUnits="userSpaceOnUse" gradientTransform="translate(94.3789 30.2514) rotate(180) scale(44.2198 44.3082)">
            <stop stop-color="#C43904"/>
            <stop offset="1" stop-color="#910005"/>
        </radialGradient>
        <radialGradient id="paint21_radial_540_23275" cx="0" cy="0" r="1" gradientUnits="userSpaceOnUse" gradientTransform="translate(66.4829 46.9422) rotate(180) scale(21.9254 21.9692)">
            <stop stop-color="#C43904"/>
            <stop offset="1" stop-color="#910005"/>
        </radialGradient>
        <radialGradient id="paint22_radial_540_23275" cx="0" cy="0" r="1" gradientUnits="userSpaceOnUse" gradientTransform="translate(100.487 53.8754) rotate(180) scale(27.383 27.4378)">
            <stop stop-color="#C43904"/>
            <stop offset="1" stop-color="#910005"/>
        </radialGradient>
        <radialGradient id="paint23_radial_540_23275" cx="0" cy="0" r="1" gradientUnits="userSpaceOnUse" gradientTransform="translate(73.8872 50.9775) rotate(180) scale(27.4779 27.5328)">
            <stop stop-color="#FFE54D"/>
            <stop offset="0.6" stop-color="#FEAC33"/>
            <stop offset="1" stop-color="#FE8A24"/>
        </radialGradient>
        <radialGradient id="paint24_radial_540_23275" cx="0" cy="0" r="1" gradientUnits="userSpaceOnUse" gradientTransform="translate(84.9852 48.907) rotate(180) scale(30.0679 30.128)">
            <stop stop-color="#FFE54D"/>
            <stop offset="0.6" stop-color="#FEAC33"/>
            <stop offset="1" stop-color="#FE8A24"/>
        </radialGradient>
        <radialGradient id="paint25_radial_540_23275" cx="0" cy="0" r="1" gradientUnits="userSpaceOnUse" gradientTransform="translate(92.9661 53.0797) rotate(180) scale(29.7236 29.7829)">
            <stop stop-color="#FFE54D"/>
            <stop offset="0.6" stop-color="#FEAC33"/>
            <stop offset="1" stop-color="#FE8A24"/>
        </radialGradient>
        <radialGradient id="paint26_radial_540_23275" cx="0" cy="0" r="1" gradientUnits="userSpaceOnUse" gradientTransform="translate(102.142 74.0243) rotate(180) scale(9.83288 9.85252)">
            <stop stop-color="#FFE54D"/>
            <stop offset="0.6" stop-color="#FEAC33"/>
            <stop offset="1" stop-color="#FE8A24"/>
        </radialGradient>
        <radialGradient id="paint27_radial_540_23275" cx="0" cy="0" r="1" gradientUnits="userSpaceOnUse" gradientTransform="translate(68.3946 64.6295) rotate(180) scale(8.11088 8.12709)">
            <stop stop-color="#FE8A24"/>
            <stop offset="0.4" stop-color="#FEAC33"/>
            <stop offset="1" stop-color="#FFE54D"/>
        </radialGradient>
        <radialGradient id="paint28_radial_540_23275" cx="0" cy="0" r="1" gradientUnits="userSpaceOnUse" gradientTransform="translate(47.9591 136.319) rotate(180) scale(78.786 78.9434)">
            <stop stop-color="#D81B1B"/>
            <stop offset="0.21" stop-color="#F0210B"/>
            <stop offset="0.93" stop-color="#E78A20"/>
        </radialGradient>
        <radialGradient id="paint29_radial_540_23275" cx="0" cy="0" r="1" gradientUnits="userSpaceOnUse" gradientTransform="translate(44.262 117.354) rotate(180) scale(61.4151 61.5377)">
            <stop stop-color="#FE8A24"/>
            <stop offset="0.4" stop-color="#FEAC33"/>
            <stop offset="1" stop-color="#FFE54D"/>
        </radialGradient>
        <radialGradient id="paint30_radial_540_23275" cx="0" cy="0" r="1" gradientUnits="userSpaceOnUse" gradientTransform="translate(71.7471 75.5984) rotate(180) scale(18.4885 18.5254)">
            <stop stop-color="#FFE54D"/>
            <stop offset="0.6" stop-color="#FEAC33"/>
            <stop offset="1" stop-color="#FE8A24"/>
        </radialGradient>
        <radialGradient id="paint31_radial_540_23275" cx="0" cy="0" r="1" gradientUnits="userSpaceOnUse" gradientTransform="translate(37.6695 112.762) rotate(180) scale(33.5787 33.6457)">
            <stop stop-color="#FEFAE2"/>
            <stop offset="0.19" stop-color="#FEF1D3"/>
            <stop offset="0.56" stop-color="#FED8AD"/>
            <stop offset="1" stop-color="#FDB677"/>
        </radialGradient>
        <radialGradient id="paint32_radial_540_23275" cx="0" cy="0" r="1" gradientUnits="userSpaceOnUse" gradientTransform="translate(76.7164 117.396) rotate(180) scale(86.8899 87.0635)">
            <stop stop-color="#C69C6D"/>
            <stop offset="1" stop-color="#42210B"/>
        </radialGradient>
        <radialGradient id="paint33_radial_540_23275" cx="0" cy="0" r="1" gradientUnits="userSpaceOnUse" gradientTransform="translate(17.5327 126.79) rotate(180) scale(20.9801 21.022)">
            <stop stop-color="white"/>
            <stop offset="1" stop-color="white" stop-opacity="0"/>
        </radialGradient>
        <radialGradient id="paint34_radial_540_23275" cx="0" cy="0" r="1" gradientUnits="userSpaceOnUse" gradientTransform="translate(31.3087 141.242) rotate(180) scale(11.9977 12.0216)">
            <stop stop-color="#C69C6D"/>
            <stop offset="1" stop-color="#42210B"/>
        </radialGradient>
        <radialGradient id="paint35_radial_540_23275" cx="0" cy="0" r="1" gradientUnits="userSpaceOnUse" gradientTransform="translate(29.3512 97.74) rotate(180) scale(50.0746 50.1746)">
            <stop stop-color="#D81B1B"/>
            <stop offset="0.21" stop-color="#F0210B"/>
            <stop offset="0.93" stop-color="#E78A20"/>
        </radialGradient>
        <radialGradient id="paint36_radial_540_23275" cx="0" cy="0" r="1" gradientUnits="userSpaceOnUse" gradientTransform="translate(28.9293 92.7504) rotate(180) scale(45.3795 45.4702)">
            <stop stop-color="#FE8A24"/>
            <stop offset="0.4" stop-color="#FEAC33"/>
            <stop offset="1" stop-color="#FFE54D"/>
        </radialGradient>
        <radialGradient id="paint37_radial_540_23275" cx="0" cy="0" r="1" gradientUnits="userSpaceOnUse" gradientTransform="translate(29.9275 62.1259) rotate(180) scale(38.1753 38.2516)">
            <stop offset="0.07" stop-color="#FEFAE2"/>
            <stop offset="0.35" stop-color="#FEE3BE"/>
            <stop offset="0.79" stop-color="#FDC38B"/>
            <stop offset="1" stop-color="#FDB677"/>
        </radialGradient>
        <radialGradient id="paint38_radial_540_23275" cx="0" cy="0" r="1" gradientUnits="userSpaceOnUse" gradientTransform="translate(30.9571 71.8587) rotate(180) scale(51.0375 51.1394)">
            <stop stop-color="#C69C6D"/>
            <stop offset="1" stop-color="#42210B"/>
        </radialGradient>
        <radialGradient id="paint39_radial_540_23275" cx="0" cy="0" r="1" gradientUnits="userSpaceOnUse" gradientTransform="translate(6.30827 79.8873) rotate(180) scale(15.5154 15.5464)">
            <stop stop-color="white"/>
            <stop offset="1" stop-color="white" stop-opacity="0"/>
        </radialGradient>
        <radialGradient id="paint40_radial_540_23275" cx="0" cy="0" r="1" gradientUnits="userSpaceOnUse" gradientTransform="translate(29.1964 43.7906) rotate(180) scale(49.2347 49.333)">
            <stop stop-color="#D81B1B"/>
            <stop offset="0.21" stop-color="#F0210B"/>
            <stop offset="0.93" stop-color="#E78A20"/>
        </radialGradient>
        <radialGradient id="paint41_radial_540_23275" cx="0" cy="0" r="1" gradientUnits="userSpaceOnUse" gradientTransform="translate(14.3032 54.5482) scale(14.8969 14.9267)">
            <stop stop-color="#9D0001"/>
            <stop offset="0.32" stop-color="#980001"/>
            <stop offset="0.7" stop-color="#8A0002"/>
            <stop offset="1" stop-color="#790002"/>
        </radialGradient>
        <radialGradient id="paint42_radial_540_23275" cx="0" cy="0" r="1" gradientUnits="userSpaceOnUse" gradientTransform="translate(18.7255 53.1026) rotate(-164.05) scale(10.9626 15.0442)">
            <stop stop-color="#F2F2F2"/>
            <stop offset="0.14" stop-color="#EDEDED"/>
            <stop offset="0.31" stop-color="#DFDFDF"/>
            <stop offset="0.49" stop-color="#C7C7C7"/>
            <stop offset="0.59" stop-color="#D8D8D8"/>
            <stop offset="0.7" stop-color="#F2F2F2"/>
        </radialGradient>
        <radialGradient id="paint43_radial_540_23275" cx="0" cy="0" r="1" gradientUnits="userSpaceOnUse" gradientTransform="translate(17.2832 47.3965) scale(5.52791 5.53896)">
            <stop stop-color="#730001"/>
            <stop offset="0.32" stop-color="#6E0001"/>
            <stop offset="0.7" stop-color="#600001"/>
            <stop offset="1" stop-color="#4F0001"/>
        </radialGradient>
        <radialGradient id="paint44_radial_540_23275" cx="0" cy="0" r="1" gradientUnits="userSpaceOnUse" gradientTransform="translate(15.6737 54.8579) rotate(180) scale(4.43147 4.44032)">
            <stop stop-color="#D81B1B"/>
            <stop offset="0.21" stop-color="#F0210B"/>
            <stop offset="0.93" stop-color="#E78A20"/>
        </radialGradient>
        <radialGradient id="paint45_radial_540_23275" cx="0" cy="0" r="1" gradientUnits="userSpaceOnUse" gradientTransform="translate(9.37967 59.1714) scale(9.9383 9.95815)">
            <stop stop-color="#FB6A00"/>
            <stop offset="1" stop-color="#EB0401"/>
        </radialGradient>
        <radialGradient id="paint46_radial_540_23275" cx="0" cy="0" r="1" gradientUnits="userSpaceOnUse" gradientTransform="translate(9.79438 57.615) scale(4.99022 5.00021)">
            <stop stop-color="white"/>
            <stop offset="1" stop-color="white" stop-opacity="0"/>
        </radialGradient>
        <radialGradient id="paint47_radial_540_23275" cx="0" cy="0" r="1" gradientUnits="userSpaceOnUse" gradientTransform="translate(9.74505 57.3405) scale(4.99028 5.00021)">
            <stop stop-color="white"/>
            <stop offset="1" stop-color="white" stop-opacity="0"/>
        </radialGradient>
        <radialGradient id="paint48_radial_540_23275" cx="0" cy="0" r="1" gradientUnits="userSpaceOnUse" gradientTransform="translate(45.6116 52.6711) scale(15.0832 15.1133)">
            <stop stop-color="#9D0001"/>
            <stop offset="0.32" stop-color="#980001"/>
            <stop offset="0.7" stop-color="#8A0002"/>
            <stop offset="1" stop-color="#790002"/>
        </radialGradient>
        <radialGradient id="paint49_radial_540_23275" cx="0" cy="0" r="1" gradientUnits="userSpaceOnUse" gradientTransform="translate(44.558 54.2456) rotate(-18.6503) scale(14.7426 20.2161)">
            <stop stop-color="#F2F2F2"/>
            <stop offset="0.14" stop-color="#EDEDED"/>
            <stop offset="0.31" stop-color="#DFDFDF"/>
            <stop offset="0.49" stop-color="#C7C7C7"/>
            <stop offset="0.59" stop-color="#D8D8D8"/>
            <stop offset="0.7" stop-color="#F2F2F2"/>
        </radialGradient>
        <radialGradient id="paint50_radial_540_23275" cx="0" cy="0" r="1" gradientUnits="userSpaceOnUse" gradientTransform="translate(44.6838 48.6324) scale(11.0804 11.1026)">
            <stop stop-color="#730001"/>
            <stop offset="0.32" stop-color="#6E0001"/>
            <stop offset="0.7" stop-color="#600001"/>
            <stop offset="1" stop-color="#4F0001"/>
        </radialGradient>
        <radialGradient id="paint51_radial_540_23275" cx="0" cy="0" r="1" gradientUnits="userSpaceOnUse" gradientTransform="translate(46.5094 54.7551) rotate(180) scale(4.72316 4.73259)">
            <stop stop-color="#D81B1B"/>
            <stop offset="0.21" stop-color="#F0210B"/>
            <stop offset="0.93" stop-color="#E78A20"/>
        </radialGradient>
        <radialGradient id="paint52_radial_540_23275" cx="0" cy="0" r="1" gradientUnits="userSpaceOnUse" gradientTransform="translate(47.9627 58.9038) scale(13.319 13.3456)">
            <stop stop-color="#9D0001"/>
            <stop offset="0.32" stop-color="#980001"/>
            <stop offset="0.7" stop-color="#8A0002"/>
            <stop offset="1" stop-color="#790002"/>
        </radialGradient>
        <radialGradient id="paint53_radial_540_23275" cx="0" cy="0" r="1" gradientUnits="userSpaceOnUse" gradientTransform="translate(41.4402 60.8018) scale(17.371 17.4056)">
            <stop stop-color="#FB6A00"/>
            <stop offset="1" stop-color="#EB0401"/>
        </radialGradient>
        <radialGradient id="paint54_radial_540_23275" cx="0" cy="0" r="1" gradientUnits="userSpaceOnUse" gradientTransform="translate(45.608 56.6785) scale(10.5146 10.5356)">
            <stop stop-color="white"/>
            <stop offset="1" stop-color="white" stop-opacity="0"/>
        </radialGradient>
        <radialGradient id="paint55_radial_540_23275" cx="0" cy="0" r="1" gradientUnits="userSpaceOnUse" gradientTransform="translate(26.0126 65.2175) scale(24.5541 24.6031)">
            <stop stop-color="#730001"/>
            <stop offset="0.32" stop-color="#6E0001"/>
            <stop offset="0.7" stop-color="#600001"/>
            <stop offset="1" stop-color="#4F0001"/>
        </radialGradient>
        <radialGradient id="paint56_radial_540_23275" cx="0" cy="0" r="1" gradientUnits="userSpaceOnUse" gradientTransform="translate(22.9763 70.1367) scale(24.0972 24.1454)">
            <stop stop-color="#F12A05"/>
            <stop offset="1" stop-color="#4F0001"/>
        </radialGradient>
        <radialGradient id="paint57_radial_540_23275" cx="0" cy="0" r="1" gradientUnits="userSpaceOnUse" gradientTransform="translate(11.903 71.5524) scale(20.7165 20.7579)">
            <stop stop-color="#FB6A00"/>
            <stop offset="1" stop-color="#EB0401"/>
        </radialGradient>
        <radialGradient id="paint58_radial_540_23275" cx="0" cy="0" r="1" gradientUnits="userSpaceOnUse" gradientTransform="translate(28.7679 72.4607) scale(17.6872 17.7226)">
            <stop stop-color="#FB6A00"/>
            <stop offset="1" stop-color="#EB0401"/>
        </radialGradient>
        <radialGradient id="paint59_radial_540_23275" cx="0" cy="0" r="1" gradientUnits="userSpaceOnUse" gradientTransform="translate(16.7456 57.1786) scale(27.3549 27.4096)">
            <stop stop-color="#FB6A00"/>
            <stop offset="1" stop-color="#EB0401"/>
        </radialGradient>
        <radialGradient id="paint60_radial_540_23275" cx="0" cy="0" r="1" gradientUnits="userSpaceOnUse" gradientTransform="translate(22.2314 69.2777) scale(25.6505 25.7018)">
            <stop stop-color="#FED501"/>
            <stop offset="0.48" stop-color="#FD7902"/>
            <stop offset="1" stop-color="#E06F01"/>
        </radialGradient>
        <radialGradient id="paint61_radial_540_23275" cx="0" cy="0" r="1" gradientUnits="userSpaceOnUse" gradientTransform="translate(20.4075 70.2249) scale(21.2155 21.2579)">
            <stop stop-color="#FED501"/>
            <stop offset="0.48" stop-color="#FD7902"/>
            <stop offset="1" stop-color="#E06F01"/>
        </radialGradient>
        <radialGradient id="paint62_radial_540_23275" cx="0" cy="0" r="1" gradientUnits="userSpaceOnUse" gradientTransform="translate(23.1696 59.9815) scale(25.6259 25.6771)">
            <stop offset="0.07" stop-color="#FED501"/>
            <stop offset="0.79" stop-color="#FD7902"/>
            <stop offset="1" stop-color="#E06F01"/>
        </radialGradient>
        <radialGradient id="paint63_radial_540_23275" cx="0" cy="0" r="1" gradientUnits="userSpaceOnUse" gradientTransform="translate(19.7678 63.1154) scale(22.558 22.603)">
            <stop stop-color="#FED501"/>
            <stop offset="0.08" stop-color="#FEC401"/>
            <stop offset="0.28" stop-color="#FD9B02"/>
            <stop offset="0.44" stop-color="#FD8202"/>
            <stop offset="0.54" stop-color="#FD7902"/>
            <stop offset="1" stop-color="#E06F01"/>
        </radialGradient>
        <radialGradient id="paint64_radial_540_23275" cx="0" cy="0" r="1" gradientUnits="userSpaceOnUse" gradientTransform="translate(29.3337 77.0702) scale(9.19681 9.21517)">
            <stop stop-color="white"/>
            <stop offset="1" stop-color="white" stop-opacity="0"/>
        </radialGradient>
        <radialGradient id="paint65_radial_540_23275" cx="0" cy="0" r="1" gradientUnits="userSpaceOnUse" gradientTransform="translate(10.9225 74.5877) scale(11.0664 11.0885)">
            <stop stop-color="white"/>
            <stop offset="1" stop-color="white" stop-opacity="0"/>
        </radialGradient>
        <radialGradient id="paint66_radial_540_23275" cx="0" cy="0" r="1" gradientUnits="userSpaceOnUse" gradientTransform="translate(17.7716 59.8969) scale(7.16205 7.17635)">
            <stop stop-color="white"/>
            <stop offset="1" stop-color="white" stop-opacity="0"/>
        </radialGradient>
        <radialGradient id="paint67_radial_540_23275" cx="0" cy="0" r="1" gradientUnits="userSpaceOnUse" gradientTransform="translate(28.5007 59.4497) rotate(180) scale(10.8169 10.8385)">
            <stop stop-color="#730001"/>
            <stop offset="0.32" stop-color="#6E0001"/>
            <stop offset="0.7" stop-color="#600001"/>
            <stop offset="1" stop-color="#4F0001"/>
        </radialGradient>
        <radialGradient id="paint68_radial_540_23275" cx="0" cy="0" r="1" gradientUnits="userSpaceOnUse" gradientTransform="translate(27.4641 56.2419) rotate(180) scale(3.48614 3.49311)">
            <stop stop-color="#FB6A00"/>
            <stop offset="1" stop-color="#EB0401"/>
        </radialGradient>
        <radialGradient id="paint69_radial_540_23275" cx="0" cy="0" r="1" gradientUnits="userSpaceOnUse" gradientTransform="translate(25.8087 56.1185) rotate(180) scale(1.49707 1.50006)">
            <stop stop-color="#730001"/>
            <stop offset="0.32" stop-color="#6E0001"/>
            <stop offset="0.7" stop-color="#600001"/>
            <stop offset="1" stop-color="#4F0001"/>
        </radialGradient>
        <radialGradient id="paint70_radial_540_23275" cx="0" cy="0" r="1" gradientUnits="userSpaceOnUse" gradientTransform="translate(20.7131 56.1819) rotate(180) scale(0.973444 0.975391)">
            <stop stop-color="#730001"/>
            <stop offset="0.32" stop-color="#6E0001"/>
            <stop offset="0.7" stop-color="#600001"/>
            <stop offset="1" stop-color="#4F0001"/>
        </radialGradient>
        <radialGradient id="paint71_radial_540_23275" cx="0" cy="0" r="1" gradientUnits="userSpaceOnUse" gradientTransform="translate(27.9561 41.0722) rotate(180) scale(45.3057 45.3962)">
            <stop stop-color="#FE8A24"/>
            <stop offset="0.4" stop-color="#FEAC33"/>
            <stop offset="1" stop-color="#FFE54D"/>
        </radialGradient>
        <radialGradient id="paint72_radial_540_23275" cx="0" cy="0" r="1" gradientUnits="userSpaceOnUse" gradientTransform="translate(27.9278 43.625) rotate(180) scale(30.1136 30.1738)">
            <stop offset="0.07" stop-color="#FEFAE2"/>
            <stop offset="1" stop-color="#FDB677"/>
        </radialGradient>
        <radialGradient id="paint73_radial_540_23275" cx="0" cy="0" r="1" gradientUnits="userSpaceOnUse" gradientTransform="translate(27.4358 43.8647) rotate(180) scale(46.6236 46.7167)">
            <stop stop-color="#C69C6D"/>
            <stop offset="1" stop-color="#42210B"/>
        </radialGradient>
        <radialGradient id="paint74_radial_540_23275" cx="0" cy="0" r="1" gradientUnits="userSpaceOnUse" gradientTransform="translate(100.444 26.7123) rotate(180) scale(18.3128 18.3494)">
            <stop stop-color="#FE8A24"/>
            <stop offset="0.4" stop-color="#FEAC33"/>
            <stop offset="1" stop-color="#FFE54D"/>
        </radialGradient>
        <radialGradient id="paint75_radial_540_23275" cx="0" cy="0" r="1" gradientUnits="userSpaceOnUse" gradientTransform="translate(100.445 26.7124) rotate(180) scale(18.3128 18.3493)">
            <stop stop-color="#FE8A24"/>
            <stop offset="0.4" stop-color="#FEAC33"/>
            <stop offset="1" stop-color="#FFE54D"/>
        </radialGradient>
        <radialGradient id="paint76_radial_540_23275" cx="0" cy="0" r="1" gradientUnits="userSpaceOnUse" gradientTransform="translate(100.444 26.7125) rotate(180) scale(18.3128 18.3493)">
            <stop stop-color="#FE8A24"/>
            <stop offset="0.4" stop-color="#FEAC33"/>
            <stop offset="1" stop-color="#FFE54D"/>
        </radialGradient>
        <radialGradient id="paint77_radial_540_23275" cx="0" cy="0" r="1" gradientUnits="userSpaceOnUse" gradientTransform="translate(75.4582 131.742) rotate(180) scale(19.8063 19.8459)">
            <stop stop-color="#C69C6D"/>
            <stop offset="1" stop-color="#42210B"/>
        </radialGradient>
        <radialGradient id="paint78_radial_540_23275" cx="0" cy="0" r="1" gradientUnits="userSpaceOnUse" gradientTransform="translate(105.745 77.9622) rotate(166.841) scale(24.6792 26.6686)">
            <stop stop-color="#C43904"/>
            <stop offset="1" stop-color="#910005"/>
        </radialGradient>
        <radialGradient id="paint79_radial_540_23275" cx="0" cy="0" r="1" gradientUnits="userSpaceOnUse" gradientTransform="translate(102.185 73.3695) rotate(166.841) scale(19.3848 20.9474)">
            <stop stop-color="#C43904"/>
            <stop offset="1" stop-color="#910005"/>
        </radialGradient>
        <radialGradient id="paint80_radial_540_23275" cx="0" cy="0" r="1" gradientUnits="userSpaceOnUse" gradientTransform="translate(98.3522 75.6066) rotate(166.841) scale(11.0144 11.9023)">
            <stop stop-color="#C43904"/>
            <stop offset="1" stop-color="#910005"/>
        </radialGradient>
        <radialGradient id="paint81_radial_540_23275" cx="0" cy="0" r="1" gradientUnits="userSpaceOnUse" gradientTransform="translate(82.6634 98.6351) rotate(166.841) scale(33.8227 36.5492)">
            <stop stop-color="#D81B1B"/>
            <stop offset="0.21" stop-color="#F0210B"/>
            <stop offset="0.93" stop-color="#E78A20"/>
        </radialGradient>
        <radialGradient id="paint82_radial_540_23275" cx="0" cy="0" r="1" gradientUnits="userSpaceOnUse" gradientTransform="translate(89.3332 101.362) rotate(166.841) scale(32.1239 34.7134)">
            <stop stop-color="#FE8A24"/>
            <stop offset="0.4" stop-color="#FEAC33"/>
            <stop offset="1" stop-color="#FFE54D"/>
        </radialGradient>
        <radialGradient id="paint83_radial_540_23275" cx="0" cy="0" r="1" gradientUnits="userSpaceOnUse" gradientTransform="translate(81.7874 95.949) rotate(166.841) scale(17.9329 19.3785)">
            <stop stop-color="#FEFAE2"/>
            <stop offset="0.19" stop-color="#FEF1D3"/>
            <stop offset="0.56" stop-color="#FED8AD"/>
            <stop offset="1" stop-color="#FDB677"/>
        </radialGradient>
        <radialGradient id="paint84_radial_540_23275" cx="0" cy="0" r="1" gradientUnits="userSpaceOnUse" gradientTransform="translate(38.2667 47.1499) rotate(180) scale(26.8629 26.9166)">
            <stop stop-color="#730001"/>
            <stop offset="0.32" stop-color="#6E0001"/>
            <stop offset="0.7" stop-color="#600001"/>
            <stop offset="1" stop-color="#4F0001"/>
        </radialGradient>
        <radialGradient id="paint85_radial_540_23275" cx="0" cy="0" r="1" gradientUnits="userSpaceOnUse" gradientTransform="translate(16.8651 47.1498) rotate(180) scale(4.9551 4.965)">
            <stop stop-color="#730001"/>
            <stop offset="0.32" stop-color="#6E0001"/>
            <stop offset="0.7" stop-color="#600001"/>
            <stop offset="1" stop-color="#4F0001"/>
        </radialGradient>
        <radialGradient id="paint86_radial_540_23275" cx="0" cy="0" r="1" gradientUnits="userSpaceOnUse" gradientTransform="translate(10.0894 46.9315) rotate(180) scale(7.6681 7.68341)">
            <stop stop-color="#730001"/>
            <stop offset="0.32" stop-color="#6E0001"/>
            <stop offset="0.7" stop-color="#600001"/>
            <stop offset="1" stop-color="#4F0001"/>
        </radialGradient>
        <radialGradient id="paint87_radial_540_23275" cx="0" cy="0" r="1" gradientUnits="userSpaceOnUse" gradientTransform="translate(61.345 48.5302) rotate(180) scale(12.2191 12.2435)">
            <stop stop-color="#730001"/>
            <stop offset="0.32" stop-color="#6E0001"/>
            <stop offset="0.7" stop-color="#600001"/>
            <stop offset="1" stop-color="#4F0001"/>
        </radialGradient>
        <radialGradient id="paint88_radial_540_23275" cx="0" cy="0" r="1" gradientUnits="userSpaceOnUse" gradientTransform="translate(34.3625 99.7226) rotate(180) scale(23.0113 23.0573)">
            <stop stop-color="#730001"/>
            <stop offset="0.32" stop-color="#6E0001"/>
            <stop offset="0.7" stop-color="#600001"/>
            <stop offset="1" stop-color="#4F0001"/>
        </radialGradient>
        <radialGradient id="paint89_radial_540_23275" cx="0" cy="0" r="1" gradientUnits="userSpaceOnUse" gradientTransform="translate(80.6874 142.573) rotate(180) scale(13.4877 13.5146)">
            <stop stop-color="#730001"/>
            <stop offset="0.32" stop-color="#6E0001"/>
            <stop offset="0.7" stop-color="#600001"/>
            <stop offset="1" stop-color="#4F0001"/>
        </radialGradient>
        <radialGradient id="paint90_radial_540_23275" cx="0" cy="0" r="1" gradientUnits="userSpaceOnUse" gradientTransform="translate(12.7709 4.437) rotate(180) scale(0.0597485 0.0598617)">
            <stop stop-color="#FFE54D"/>
            <stop offset="0.6" stop-color="#FEAC33"/>
            <stop offset="1" stop-color="#FE8A24"/>
        </radialGradient>
        <radialGradient id="paint91_radial_540_23275" cx="0" cy="0" r="1" gradientUnits="userSpaceOnUse" gradientTransform="translate(7.46077 27.1034) rotate(180) scale(16.8157 16.8493)">
            <stop stop-color="white"/>
            <stop offset="1" stop-color="white" stop-opacity="0"/>
        </radialGradient>
        <clipPath id="clip0_540_23275">
            <rect width="117" height="171" fill="white" transform="matrix(-1 0 0 1 117 0)"/>
        </clipPath>
    </defs>
</svg>
