<svg width="20" height="17" viewBox="0 0 20 17" fill="none" xmlns="http://www.w3.org/2000/svg">
<path d="M1.85 4.04518L2.10607 4.30125L7.986 10.1812L1.85 4.04518ZM1.85 4.04518V4.40731M1.85 4.04518V4.40731M1.85 4.40731V13.9973C1.85 14.3023 1.97116 14.5948 2.18683 14.8105C2.40249 15.0262 2.695 15.1473 3 15.1473H17C17.305 15.1473 17.5975 15.0262 17.8132 14.8105C18.0288 14.5948 18.15 14.3023 18.15 13.9973V4.40731V4.04518M1.85 4.40731L18.15 4.04518M18.15 4.04518L17.8939 4.30125M18.15 4.04518L17.8939 4.30125M17.8939 4.30125L12.014 10.1812C11.4796 10.7149 10.7553 11.0147 10 11.0147C9.24478 11.0147 8.52044 10.7149 7.98607 10.1812L17.8939 4.30125ZM16.6961 3.10338L16.9521 2.84731H16.59H3.41H3.04787L3.30393 3.10338L9.1835 8.98294C9.18358 8.98303 9.18366 8.98311 9.18374 8.98319C9.2906 9.09086 9.4177 9.17633 9.55774 9.23467C9.69788 9.29305 9.84819 9.32311 10 9.32311C10.1518 9.32311 10.3021 9.29305 10.4423 9.23467C10.5823 9.17633 10.7094 9.09086 10.8163 8.98319C10.8163 8.98311 10.8164 8.98303 10.8165 8.98294L16.6961 3.10338ZM3 1.14731H17C17.7559 1.14731 18.4808 1.44758 19.0153 1.98206C19.5497 2.51654 19.85 3.24145 19.85 3.99731V13.9973C19.85 14.7532 19.5497 15.4781 19.0153 16.0126C18.4808 16.547 17.7559 16.8473 17 16.8473H3C2.24413 16.8473 1.51922 16.547 0.984746 16.0126C0.450267 15.4781 0.15 14.7532 0.15 13.9973V3.99731C0.15 3.24145 0.450267 2.51654 0.984746 1.98206C1.51922 1.44758 2.24413 1.14731 3 1.14731Z" fill="#F37502" stroke="white" stroke-width="0.3"/>
</svg>
