<svg width="18" height="18" viewBox="0 0 18 18" fill="none" xmlns="http://www.w3.org/2000/svg">
<g clip-path="url(#clip0_1_888)">
<path d="M15.2377 3.2777C14.0905 2.75131 12.8602 2.36347 11.5739 2.14131C11.5505 2.13702 11.5271 2.14775 11.515 2.16916C11.3568 2.45058 11.1815 2.81768 11.0588 3.10625C9.67528 2.89911 8.29884 2.89911 6.94371 3.10625C6.82095 2.81129 6.63933 2.45058 6.48039 2.16916C6.46833 2.14845 6.44491 2.13773 6.4215 2.14131C5.13591 2.36273 3.90565 2.75057 2.75766 3.2777C2.74771 3.28199 2.7392 3.28913 2.73354 3.29841C0.400008 6.78468 -0.239273 10.1853 0.0743209 13.5437C0.0757272 13.5601 0.0849733 13.5758 0.097735 13.5858C1.63733 14.7165 3.12873 15.4028 4.59239 15.8578C4.61581 15.865 4.64063 15.8564 4.65553 15.8371C5.00175 15.3643 5.31039 14.8658 5.57501 14.3415C5.59062 14.3108 5.57571 14.2744 5.54379 14.2622C5.05424 14.0765 4.5881 13.8501 4.13968 13.593C4.10421 13.5723 4.10136 13.5215 4.13402 13.4972C4.22838 13.4265 4.32278 13.353 4.41288 13.2787C4.4292 13.2651 4.45191 13.2623 4.47107 13.2708C7.41688 14.6158 10.6061 14.6158 13.5171 13.2708C13.5363 13.2615 13.559 13.2644 13.576 13.2779C13.6661 13.3522 13.7605 13.4265 13.8556 13.4972C13.8882 13.5215 13.8861 13.5722 13.8506 13.5929C13.4022 13.8551 12.9361 14.0765 12.4458 14.2615C12.4139 14.2736 12.3997 14.3108 12.4153 14.3414C12.6856 14.865 12.9943 15.3635 13.3341 15.8364C13.3483 15.8564 13.3738 15.865 13.3972 15.8578C14.868 15.4028 16.3594 14.7164 17.899 13.5858C17.9125 13.5758 17.921 13.5608 17.9224 13.5443C18.2977 9.66166 17.2938 6.28894 15.2611 3.29908C15.2562 3.28913 15.2477 3.28199 15.2377 3.2777ZM6.01499 11.4987C5.1281 11.4987 4.39731 10.6845 4.39731 9.68454C4.39731 8.68456 5.1139 7.87034 6.01499 7.87034C6.92311 7.87034 7.64684 8.69173 7.63263 9.68454C7.63263 10.6845 6.91601 11.4987 6.01499 11.4987ZM11.996 11.4987C11.1092 11.4987 10.3784 10.6845 10.3784 9.68454C10.3784 8.68456 11.095 7.87034 11.996 7.87034C12.9042 7.87034 13.6279 8.69173 13.6137 9.68454C13.6137 10.6845 12.9042 11.4987 11.996 11.4987Z" fill="white"/>
</g>
<defs>
<clipPath id="clip0_1_888">
<rect width="18" height="18" fill="white" transform="translate(-6.10352e-05 0.000488281)"/>
</clipPath>
</defs>
</svg>
