<svg width="18" height="18" viewBox="0 0 18 18" fill="none" xmlns="http://www.w3.org/2000/svg">
<g clip-path="url(#clip0_1_892)">
<path d="M17.9999 3.41814C17.3376 3.71183 16.626 3.91036 15.879 3.99962C16.6414 3.54259 17.2269 2.8189 17.5027 1.95652C16.7891 2.37977 15.9988 2.68707 15.1576 2.85265C14.484 2.13494 13.5242 1.68652 12.462 1.68652C10.4226 1.68652 8.76917 3.33988 8.76917 5.37929C8.76917 5.66873 8.80183 5.95057 8.86479 6.22089C5.79567 6.06683 3.07455 4.59668 1.25318 2.3624C0.935298 2.90781 0.753154 3.54217 0.753154 4.21896C0.753154 5.50019 1.40509 6.63053 2.396 7.29276C1.79065 7.27357 1.22122 7.10746 0.723377 6.83085C0.723025 6.84625 0.723025 6.86171 0.723025 6.87729C0.723025 8.66652 1.99599 10.159 3.68531 10.4984C3.37548 10.5827 3.0492 10.628 2.7124 10.628C2.47443 10.628 2.24311 10.6048 2.01758 10.5616C2.48755 12.0287 3.85132 13.0965 5.46731 13.1262C4.20344 14.1168 2.61112 14.7071 0.880911 14.7071C0.582823 14.7071 0.288882 14.6896 -3.05176e-05 14.6554C1.63424 15.7033 3.57538 16.3146 5.66084 16.3146C12.4534 16.3146 16.1679 10.6875 16.1679 5.80745C16.1679 5.64735 16.1642 5.48809 16.1572 5.32968C16.8788 4.80905 17.5049 4.15867 17.9999 3.41814Z" fill="white"/>
</g>
<defs>
<clipPath id="clip0_1_892">
<rect width="18" height="18" fill="white" transform="translate(-6.10352e-05 0.000488281)"/>
</clipPath>
</defs>
</svg>
