<svg width="20" height="20" viewBox="0 0 20 20" fill="none" xmlns="http://www.w3.org/2000/svg">
<path d="M12.72 6.78951L8.43 11.0895L6.78 9.43951C6.69035 9.33483 6.58003 9.24981 6.45597 9.18979C6.3319 9.12976 6.19677 9.09603 6.05905 9.09071C5.92133 9.08539 5.784 9.1086 5.65567 9.15887C5.52735 9.20915 5.4108 9.28541 5.31335 9.38286C5.21589 9.48032 5.13963 9.59686 5.08936 9.72519C5.03908 9.85351 5.01588 9.99085 5.0212 10.1286C5.02652 10.2663 5.06025 10.4014 5.12027 10.5255C5.18029 10.6495 5.26532 10.7599 5.37 10.8495L7.72 13.2095C7.81344 13.3022 7.92425 13.3755 8.04609 13.4253C8.16793 13.475 8.29839 13.5003 8.43 13.4995C8.69234 13.4984 8.94374 13.3943 9.13 13.2095L14.13 8.20951C14.2237 8.11655 14.2981 8.00595 14.3489 7.88409C14.3997 7.76223 14.4258 7.63152 14.4258 7.49951C14.4258 7.3675 14.3997 7.23679 14.3489 7.11493C14.2981 6.99308 14.2237 6.88247 14.13 6.78951C13.9426 6.60326 13.6892 6.49872 13.425 6.49872C13.1608 6.49872 12.9074 6.60326 12.72 6.78951ZM10 -0.000488281C8.02218 -0.000488281 6.08879 0.586002 4.44429 1.68482C2.7998 2.78363 1.51808 4.34542 0.761202 6.17268C0.00432521 7.99994 -0.193708 10.0106 0.192144 11.9504C0.577996 13.8902 1.5304 15.6721 2.92893 17.0706C4.32745 18.4691 6.10928 19.4215 8.04909 19.8074C9.9889 20.1932 11.9996 19.9952 13.8268 19.2383C15.6541 18.4814 17.2159 17.1997 18.3147 15.5552C19.4135 13.9107 20 11.9773 20 9.99951C20 8.68629 19.7413 7.38593 19.2388 6.17268C18.7362 4.95942 17.9996 3.85703 17.0711 2.92844C16.1425 1.99986 15.0401 1.26326 13.8268 0.760716C12.6136 0.258169 11.3132 -0.000488281 10 -0.000488281ZM10 17.9995C8.41775 17.9995 6.87103 17.5303 5.55543 16.6513C4.23984 15.7722 3.21446 14.5228 2.60896 13.061C2.00346 11.5992 1.84503 9.99064 2.15371 8.43879C2.4624 6.88694 3.22432 5.46148 4.34314 4.34266C5.46196 3.22384 6.88743 2.46191 8.43927 2.15323C9.99112 1.84455 11.5997 2.00297 13.0615 2.60848C14.5233 3.21398 15.7727 4.23936 16.6518 5.55495C17.5308 6.87054 18 8.41726 18 9.99951C18 12.1212 17.1571 14.1561 15.6569 15.6564C14.1566 17.1567 12.1217 17.9995 10 17.9995Z" fill="#F37502"/>
</svg>
