<svg width="18" height="14" viewBox="0 0 18 14" fill="none" xmlns="http://www.w3.org/2000/svg">
<path d="M15.2377 1.27722C14.0905 0.750821 12.8602 0.362977 11.5739 0.140825C11.5505 0.136536 11.5271 0.147258 11.515 0.168668C11.3568 0.450094 11.1815 0.817196 11.0588 1.10576C9.67528 0.898618 8.29884 0.898618 6.94371 1.10576C6.82095 0.810797 6.63933 0.450094 6.48039 0.168668C6.46833 0.147961 6.44491 0.137239 6.4215 0.140825C5.13591 0.362239 3.90565 0.750082 2.75766 1.27722C2.74771 1.2815 2.7392 1.28864 2.73354 1.29792C0.400008 4.78419 -0.239273 8.18478 0.0743209 11.5432C0.0757272 11.5596 0.0849733 11.5753 0.097735 11.5853C1.63733 12.716 3.12873 13.4024 4.59239 13.8574C4.61581 13.8645 4.64063 13.8559 4.65553 13.8366C5.00175 13.3638 5.31039 12.8653 5.57501 12.341C5.59062 12.3103 5.57571 12.2739 5.54379 12.2617C5.05424 12.076 4.5881 11.8496 4.13968 11.5925C4.10421 11.5718 4.10136 11.521 4.13402 11.4968C4.22838 11.4261 4.32278 11.3525 4.41288 11.2782C4.4292 11.2646 4.45191 11.2618 4.47107 11.2703C7.41688 12.6153 10.6061 12.6153 13.5171 11.2703C13.5363 11.261 13.559 11.2639 13.576 11.2774C13.6661 11.3517 13.7605 11.426 13.8556 11.4967C13.8882 11.521 13.8861 11.5717 13.8506 11.5924C13.4022 11.8546 12.9361 12.076 12.4458 12.261C12.4139 12.2731 12.3997 12.3103 12.4153 12.341C12.6856 12.8645 12.9943 13.3631 13.3341 13.8359C13.3483 13.8559 13.3738 13.8645 13.3972 13.8573C14.868 13.4024 16.3594 12.7159 17.899 11.5853C17.9125 11.5753 17.921 11.5603 17.9224 11.5439C18.2977 7.66117 17.2938 4.28845 15.2611 1.29859C15.2562 1.28864 15.2477 1.2815 15.2377 1.27722ZM6.01499 9.49826C5.1281 9.49826 4.39731 8.68404 4.39731 7.68405C4.39731 6.68407 5.1139 5.86985 6.01499 5.86985C6.92311 5.86985 7.64684 6.69124 7.63263 7.68405C7.63263 8.68404 6.91601 9.49826 6.01499 9.49826ZM11.996 9.49826C11.1092 9.49826 10.3784 8.68404 10.3784 7.68405C10.3784 6.68407 11.095 5.86985 11.996 5.86985C12.9042 5.86985 13.6279 6.69124 13.6137 7.68405C13.6137 8.68404 12.9042 9.49826 11.996 9.49826Z" fill="white"/>
</svg>
