<svg width="22" height="18" viewBox="0 0 22 18" fill="none" xmlns="http://www.w3.org/2000/svg">
<path fill-rule="evenodd" clip-rule="evenodd" d="M3 2C2.45228 2 2 2.45228 2 3V15C2 15.5477 2.45228 16 3 16H19C19.5477 16 20 15.5477 20 15V3C20 2.45228 19.5477 2 19 2H3ZM0 3C0 1.34772 1.34772 0 3 0H19C20.6523 0 22 1.34772 22 3V15C22 16.6523 20.6523 18 19 18H3C1.34772 18 0 16.6523 0 15V3Z" fill="black"/>
<path fill-rule="evenodd" clip-rule="evenodd" d="M0.180793 2.42656C0.497507 1.97411 1.12104 1.86408 1.57349 2.18079L11 8.77937L20.4266 2.18079C20.879 1.86408 21.5025 1.97411 21.8193 2.42656C22.136 2.87901 22.0259 3.50254 21.5735 3.81926L11.5735 10.8193C11.2292 11.0603 10.7709 11.0603 10.4266 10.8193L0.426562 3.81926C-0.0258869 3.50254 -0.135922 2.87901 0.180793 2.42656Z" fill="black"/>
</svg>
