<svg width="20" height="21" viewBox="0 0 20 21" fill="none" xmlns="http://www.w3.org/2000/svg">
<path d="M9.29 14.2872C9.247 14.3347 9.20693 14.3848 9.17 14.4372C9.13216 14.4929 9.10189 14.5535 9.08 14.6172C9.05117 14.6739 9.03095 14.7345 9.02001 14.7972C9.0151 14.8638 9.0151 14.9306 9.02001 14.9972C9.01663 15.1284 9.04402 15.2585 9.10001 15.3772C9.14492 15.5013 9.21657 15.614 9.30989 15.7073C9.40321 15.8006 9.51591 15.8723 9.64001 15.9172C9.75971 15.9701 9.88913 15.9974 10.02 15.9974C10.1509 15.9974 10.2803 15.9701 10.4 15.9172C10.5241 15.8723 10.6368 15.8006 10.7301 15.7073C10.8234 15.614 10.8951 15.5013 10.94 15.3772C10.9844 15.2556 11.0048 15.1265 11 14.9972C11.0008 14.8656 10.9755 14.7351 10.9258 14.6133C10.876 14.4914 10.8027 14.3806 10.71 14.2872C10.617 14.1935 10.5064 14.1191 10.3846 14.0683C10.2627 14.0175 10.132 13.9914 10 13.9914C9.86799 13.9914 9.73729 14.0175 9.61543 14.0683C9.49357 14.1191 9.38297 14.1935 9.29 14.2872ZM10 0.997192C8.02219 0.997192 6.08879 1.58368 4.4443 2.6825C2.79981 3.78131 1.51809 5.3431 0.761209 7.17036C0.00433284 8.99762 -0.193701 11.0083 0.192152 12.9481C0.578004 14.8879 1.53041 16.6697 2.92894 18.0683C4.32746 19.4668 6.10929 20.4192 8.0491 20.805C9.98891 21.1909 11.9996 20.9929 13.8268 20.236C15.6541 19.4791 17.2159 18.1974 18.3147 16.5529C19.4135 14.9084 20 12.975 20 10.9972C20 9.68397 19.7413 8.38361 19.2388 7.17036C18.7363 5.9571 17.9997 4.85471 17.0711 3.92612C16.1425 2.99754 15.0401 2.26094 13.8268 1.7584C12.6136 1.25585 11.3132 0.997192 10 0.997192ZM10 18.9972C8.41775 18.9972 6.87104 18.528 5.55544 17.6489C4.23985 16.7699 3.21447 15.5205 2.60897 14.0587C2.00347 12.5969 1.84504 10.9883 2.15372 9.43647C2.4624 7.88462 3.22433 6.45916 4.34315 5.34034C5.46197 4.22152 6.88743 3.45959 8.43928 3.15091C9.99113 2.84223 11.5997 3.00066 13.0615 3.60616C14.5233 4.21166 15.7727 5.23704 16.6518 6.55263C17.5308 7.86822 18 9.41494 18 10.9972C18 13.1189 17.1572 15.1538 15.6569 16.654C14.1566 18.1543 12.1217 18.9972 10 18.9972ZM10 5.99719C9.47307 5.99685 8.95534 6.13531 8.49891 6.39863C8.04249 6.66196 7.66347 7.04085 7.4 7.49719C7.32765 7.61101 7.27907 7.73829 7.25718 7.87137C7.23529 8.00445 7.24055 8.14058 7.27263 8.27158C7.30472 8.40258 7.36297 8.52573 7.44389 8.63363C7.52481 8.74153 7.62671 8.83194 7.74348 8.89944C7.86024 8.96693 7.98945 9.01011 8.12334 9.02637C8.25722 9.04263 8.39301 9.03165 8.52254 8.99407C8.65207 8.95649 8.77266 8.8931 8.87705 8.80771C8.98145 8.72232 9.06749 8.6167 9.13 8.49719C9.21811 8.34459 9.34497 8.21797 9.49775 8.13017C9.65053 8.04237 9.82379 7.99649 10 7.99719C10.2652 7.99719 10.5196 8.10255 10.7071 8.29009C10.8946 8.47762 11 8.73198 11 8.99719C11 9.26241 10.8946 9.51676 10.7071 9.7043C10.5196 9.89184 10.2652 9.99719 10 9.99719C9.73479 9.99719 9.48043 10.1025 9.2929 10.2901C9.10536 10.4776 9 10.732 9 10.9972V11.9972C9 12.2624 9.10536 12.5168 9.2929 12.7043C9.48043 12.8918 9.73479 12.9972 10 12.9972C10.2652 12.9972 10.5196 12.8918 10.7071 12.7043C10.8946 12.5168 11 12.2624 11 11.9972V11.8172C11.6614 11.5772 12.2174 11.1124 12.5708 10.5041C12.9242 9.8957 13.0525 9.18248 12.9334 8.48908C12.8143 7.79568 12.4552 7.16621 11.919 6.71071C11.3828 6.25521 10.7035 6.00265 10 5.99719Z" fill="#DC635E"/>
</svg>
