<svg width="18" height="18" viewBox="0 0 18 18" fill="none" xmlns="http://www.w3.org/2000/svg">
<path d="M16.5 15.6639H15.6667V3.16388C15.6667 2.94287 15.5789 2.7309 15.4226 2.57462C15.2663 2.41834 15.0544 2.33055 14.8333 2.33055C14.6123 2.33055 14.4004 2.41834 14.2441 2.57462C14.0878 2.7309 14 2.94287 14 3.16388V15.6639H12.3333V9.83055C12.3333 9.60953 12.2455 9.39757 12.0893 9.24129C11.933 9.08501 11.721 8.99721 11.5 8.99721C11.279 8.99721 11.067 9.08501 10.9107 9.24129C10.7545 9.39757 10.6667 9.60953 10.6667 9.83055V15.6639H9V6.49721C9 6.2762 8.91221 6.06424 8.75593 5.90796C8.59965 5.75168 8.38769 5.66388 8.16667 5.66388C7.94566 5.66388 7.7337 5.75168 7.57742 5.90796C7.42114 6.06424 7.33334 6.2762 7.33334 6.49721V15.6639H5.66667V13.1639C5.66667 12.9429 5.57887 12.7309 5.42259 12.5746C5.26631 12.4183 5.05435 12.3305 4.83334 12.3305C4.61232 12.3305 4.40036 12.4183 4.24408 12.5746C4.0878 12.7309 4.00001 12.9429 4.00001 13.1639V15.6639H2.33334V1.49721C2.33334 1.2762 2.24554 1.06424 2.08926 0.907957C1.93298 0.751677 1.72102 0.663879 1.50001 0.663879C1.27899 0.663879 1.06703 0.751677 0.910749 0.907957C0.754469 1.06424 0.666672 1.2762 0.666672 1.49721V16.4972C0.666672 16.7182 0.754469 16.9302 0.910749 17.0865C1.06703 17.2427 1.27899 17.3305 1.50001 17.3305H16.5C16.721 17.3305 16.933 17.2427 17.0893 17.0865C17.2455 16.9302 17.3333 16.7182 17.3333 16.4972C17.3333 16.2762 17.2455 16.0642 17.0893 15.908C16.933 15.7517 16.721 15.6639 16.5 15.6639Z" fill="white"/>
</svg>
