<svg width="18" height="16" viewBox="0 0 18 16" fill="none" xmlns="http://www.w3.org/2000/svg">
<path d="M17.9999 2.41765C17.3376 2.71134 16.626 2.90987 15.879 2.99913C16.6414 2.5421 17.2269 1.81841 17.5027 0.956034C16.7891 1.37928 15.9988 1.68658 15.1576 1.85216C14.484 1.13445 13.5242 0.686035 12.462 0.686035C10.4226 0.686035 8.76917 2.33939 8.76917 4.3788C8.76917 4.66824 8.80183 4.95008 8.86479 5.2204C5.79567 5.06635 3.07455 3.59619 1.25318 1.36191C0.935298 1.90732 0.753154 2.54168 0.753154 3.21847C0.753154 4.4997 1.40509 5.63004 2.396 6.29228C1.79065 6.27308 1.22122 6.10697 0.723377 5.83036C0.723025 5.84576 0.723025 5.86123 0.723025 5.8768C0.723025 7.66603 1.99599 9.15855 3.68531 9.49788C3.37548 9.58222 3.0492 9.6275 2.7124 9.6275C2.47443 9.6275 2.24311 9.6043 2.01758 9.56113C2.48755 11.0282 3.85132 12.096 5.46731 12.1257C4.20344 13.1163 2.61112 13.7066 0.880911 13.7066C0.582823 13.7066 0.288882 13.6892 -3.05176e-05 13.6549C1.63424 14.7028 3.57538 15.3141 5.66084 15.3141C12.4534 15.3141 16.1679 9.68698 16.1679 4.80696C16.1679 4.64686 16.1642 4.48761 16.1572 4.32919C16.8788 3.80857 17.5049 3.15818 17.9999 2.41765Z" fill="white"/>
</svg>
