<svg width="63" height="47" viewBox="0 0 63 47" fill="none" xmlns="http://www.w3.org/2000/svg">
<path d="M61.7182 8.90836C60.821 5.58044 58.1939 2.95672 54.872 2.06352C50.1451 0.77178 33.3938 0.734497 31.4992 0.734497C29.606 0.734497 12.866 0.770304 8.14975 2.00951C8.14126 2.01184 8.1329 2.01406 8.12453 2.0164C4.85383 2.91291 2.16735 5.61834 1.28018 8.90836C1.27907 8.91292 1.27784 8.91735 1.27661 8.9219C0.0139091 13.7133 -0.000610352 23.1008 -0.000610352 23.4981C-0.000610352 23.8974 0.0139091 33.3334 1.28031 38.0879C2.17756 41.4158 4.80461 44.0397 8.13277 44.9345C12.9033 46.2245 29.61 46.2618 31.4992 46.2618C33.3925 46.2618 50.1325 46.226 54.8487 44.9866C54.8531 44.9855 54.8576 44.9843 54.8621 44.9831C58.1938 44.0873 60.821 41.4636 61.7182 38.1358C62.072 36.8235 61.2951 35.4728 59.9828 35.1189C58.6705 34.7653 57.3198 35.5421 56.966 36.8543C56.5243 38.4926 55.2313 39.7848 53.5906 40.2283C50.1047 41.1398 36.4643 41.3398 31.4992 41.3399C26.5471 41.3399 12.9263 41.1322 9.41418 40.1823C7.7704 39.7404 6.47472 38.4468 6.03434 36.8139C4.93553 32.6884 4.92126 23.5893 4.92126 23.4981C4.92126 20.9711 5.12121 13.6577 6.03409 10.1844C6.47595 8.55337 7.80129 7.2134 9.41393 6.76637C12.9103 5.85631 26.5374 5.65649 31.4995 5.65636C36.464 5.65636 50.1077 5.86382 53.5845 6.81399C55.2281 7.25585 56.5239 8.54944 56.9689 10.1995C57.9146 13.6502 58.0897 20.995 58.0773 23.5457C58.0773 23.5518 58.0769 24.1553 58.0576 25.1095C58.0302 26.4683 59.1095 27.5921 60.4683 27.6197C60.4853 27.6201 60.5022 27.6202 60.519 27.6202C61.8549 27.6202 62.9513 26.5508 62.9785 25.209C62.9978 24.2475 62.999 23.6318 62.999 23.5535C63.0012 23.0881 63.0284 13.6891 61.7182 8.90836Z" fill="url(#paint0_linear_1_715)"/>
<path d="M30.2263 13.1377C28.7233 12.2653 26.9272 12.2625 25.4213 13.1296C23.9109 13.9993 23.0091 15.5609 23.0091 17.3064V29.5666C23.0091 31.3123 23.9109 32.8738 25.4213 33.7436C26.1718 34.1757 26.9945 34.3918 27.8169 34.3918C28.6448 34.3918 29.4725 34.1729 30.2263 33.7356L40.7903 27.6055C42.2921 26.734 43.1888 25.1755 43.1888 23.4366C43.1888 21.6977 42.2921 20.1391 40.7903 19.2675L30.2263 13.1377ZM27.931 29.3769V17.4961L38.1683 23.4366L27.931 29.3769Z" fill="url(#paint1_linear_1_715)"/>
<defs>
<linearGradient id="paint0_linear_1_715" x1="34.4836" y1="-5.9049" x2="61.047" y2="7.56331" gradientUnits="userSpaceOnUse">
<stop stop-color="#F33800"/>
<stop offset="1" stop-color="#B00B01"/>
</linearGradient>
<linearGradient id="paint1_linear_1_715" x1="34.0548" y1="9.28604" x2="43.6572" y2="12.5264" gradientUnits="userSpaceOnUse">
<stop stop-color="#F33800"/>
<stop offset="1" stop-color="#B00B01"/>
</linearGradient>
</defs>
</svg>
